<?xml version="1.0" encoding="UTF-8" standalone="no"?>
<svg xmlns="http://www.w3.org/2000/svg" version="1.1" width="256" height="256">
  <path d="m 78.564749,81.309491 h 93.380961 c 5.16623,0 9.34952,-4.183283 9.34952,-9.349525 0,-5.166242 -4.18329,-9.349526 -9.34952,-9.349526 H 78.564749 c -5.166239,0 -9.349524,4.183284 -9.349524,9.349526 0,5.166242 4.183285,9.349525 9.349524,9.349525 z"/>
  <path d="m 78.564749,118.79903 h 93.380961 c 5.16623,0 9.34952,-4.18328 9.34952,-9.34953 0,-5.16624 -4.18329,-9.34952 -9.34952,-9.34952 H 78.564749 c -5.166239,0 -9.349524,4.18328 -9.349524,9.34952 0,5.14339 4.183285,9.34953 9.349524,9.34953 z"/>
  <path d="M 213.13848,21.463385 C 209.50383,17.828728 204.72619,15.99997 199.94856,15.99997 H 50.67619 c -4.777629,0 -9.55526,1.828758 -13.189916,5.463415 C 33.828758,25.120901 32,29.898531 32,34.676161 V 221.32377 c 0,4.77763 1.828758,9.55527 5.463414,13.18993 3.634656,3.63466 8.412287,5.4634 13.189916,5.4634 h 56.48576 c 0.22859,0.0229 0.4572,0.0229 0.68579,0.0229 5.16624,0 9.34952,-4.18329 9.34952,-9.34953 0,-5.16624 -4.18328,-9.34952 -9.34952,-9.34952 H 59.134197 c -2.17165,0 -4.3433,-0.82294 -5.989183,-2.46883 -1.645882,-1.64588 -2.468824,-3.81753 -2.468824,-5.98918 V 43.134168 c 0,-2.171651 0.822942,-4.343301 2.468824,-5.989183 1.645883,-1.645882 3.817533,-2.468824 5.989183,-2.468824 H 191.46769 c 2.17165,0 4.3433,0.822942 5.98919,2.468824 1.64588,1.645882 2.46882,3.817532 2.46882,5.989183 v 86.111642 c 0,5.16624 4.18328,9.32667 9.32667,9.32667 5.16624,0 9.32667,-4.18328 9.32667,-9.32667 V 34.676161 c 0.0457,-4.77763 -1.78304,-9.55526 -5.44056,-13.212776 z"/>
  <path d="m 168.85968,140.46982 c -27.47709,0 -49.76508,22.26512 -49.76508,49.76507 0,27.47709 22.26513,49.76508 49.76508,49.76508 27.47708,0 49.76507,-22.26513 49.76507,-49.76508 0,-27.49995 -22.28799,-49.76507 -49.76507,-49.76507 z m 24.77966,56.05142 h -18.49331 v 18.49332 c 0,3.4975 -2.81172,6.33208 -6.28635,6.33208 -3.47464,0 -6.28636,-2.83458 -6.28636,-6.33208 v -18.49332 h -18.49331 c -3.4975,0 -6.33208,-2.81171 -6.33208,-6.28635 0,-3.47464 2.83458,-6.28636 6.33208,-6.28636 h 18.49331 v -18.49331 c 0,-3.4975 2.81172,-6.33207 6.28636,-6.33207 3.47463,0 6.28635,2.83457 6.28635,6.33207 v 18.49331 h 18.49331 c 3.49751,0 6.33208,2.81172 6.33208,6.28636 0,3.47464 -2.83457,6.28635 -6.33208,6.28635 z"/>
</svg>
