<?xml version="1.0" encoding="utf-8"?>
<svg version="1.1" id="Capa_1" x="0px" y="0px" viewBox="0 0 26.775 26.775" xmlns="http://www.w3.org/2000/svg">
  <path d="M 13.915 26.397 L 22.173 16.429 C 22.173 16.429 23.425 15.246 22.067 15.246 C 20.704 15.246 17.414 15.246 17.414 15.246 C 17.414 15.246 17.414 14.446 17.414 13.223 C 17.414 9.714 17.414 3.335 17.414 0.74 C 17.414 0.74 17.598 0.032 16.529 0.032 C 15.457 0.032 10.746 0.032 9.979 0.032 C 9.214 0.032 9.23 0.623 9.23 0.623 C 9.23 3.151 9.23 9.745 9.23 13.136 C 9.23 14.236 9.23 14.949 9.23 14.949 C 9.23 14.949 6.593 14.949 4.933 14.949 C 3.279 14.949 4.525 16.188 4.525 16.188 C 4.525 16.188 11.55 25.502 12.526 26.481 C 13.24 27.189 13.915 26.397 13.915 26.397 Z"/>
</svg>