<?xml version="1.0" encoding="UTF-8" standalone="no"?>
<svg xmlns="http://www.w3.org/2000/svg" version="1.1" width="256" height="256">
  <path d="m 96.615305,32.536046 c 9.468765,2.424091 16.831405,9.972674 18.798425,19.306501 1.78287,8.326566 -0.59363,16.745235 -6.49471,22.87503 l -2.5156,2.561266 36.13334,36.098767 36.08828,36.14188 2.56066,-2.51619 c 10.01734,-9.60818 25.52237,-9.47101 35.31244,0.36645 8.68901,8.69302 9.97032,21.63849 3.10924,31.88748 -2.5156,3.84288 -5.35055,6.314 -9.51383,8.37163 -6.12835,3.0649 -12.62502,3.6136 -18.98259,1.64611 l -2.60768,-0.82305 0.86988,2.7004 c 1.96702,6.35907 1.37143,12.71815 -1.73781,19.07722 -3.97911,8.09729 -13.21865,13.77048 -22.36611,13.77048 -11.75514,0 -22.27599,-8.50881 -24.69951,-19.99238 -1.78286,-8.32656 0.59364,-16.74523 6.49472,-22.87503 l 2.5156,-2.56126 -36.13334,-36.09681 -36.088283,-36.14188 -2.560661,2.51619 c -10.017339,9.60818 -25.522369,9.47101 -35.310482,-0.36645 -14.362822,-14.366218 -6.998227,-38.383725 13.03645,-42.59306 3.979115,-0.823054 8.142394,-0.640807 12.258652,0.640806 l 2.697805,0.870086 -0.82286,-2.608298 c -1.28131,-4.117231 -1.510535,-8.418669 -0.685716,-12.351693 0.867921,-4.117231 3.246377,-9.057516 5.763937,-11.987197 2.423518,-2.790546 7.227451,-5.947547 10.977341,-7.22916 3.840013,-1.328645 10.150564,-1.602996 13.902412,-0.687838 z"/>
</svg>
