<?xml version="1.0" encoding="UTF-8" standalone="no"?>
<svg xmlns="http://www.w3.org/2000/svg" version="1.1" width="256" height="256">
  <path d="m 121.79694,32.570872 c -3.43196,1.042281 -82.564058,37.82777 -83.42152,38.772093 -1.018368,1.142199 -0.965439,3.97125 0.107977,5.06447 0.482719,0.495671 19.420984,9.431473 42.113026,19.907187 34.334467,15.886958 41.738287,19.113718 44.259857,19.411518 6.81312,0.8444 6.00859,1.1422 50.48228,-19.411518 25.26866,-11.615954 41.63031,-19.460495 42.27393,-20.204982 1.28725,-1.488974 1.28725,-3.077865 0,-4.566839 -0.64362,-0.744487 -17.06032,-8.589028 -42.32898,-20.3049 l -41.36354,-19.062783 -4.99022,-0.148897 c -3.10803,-0.101877 -5.79051,0.096 -7.13281,0.544651 z"/>
  <path d="m 33.06339,96.759355 c -1.126345,1.291097 -1.126345,1.340076 -1.018368,42.792325 l 0.160906,41.50318 1.556135,3.12685 c 3.057222,6.05581 2.951363,6.05581 42.221003,22.78717 19.313007,8.2403 36.265344,15.48925 37.660574,16.0339 2.89632,1.19118 4.61336,1.04228 6.27747,-0.49763 1.07342,-0.9933 1.07342,-1.83575 1.07342,-43.83461 0,-47.95671 0.21383,-44.82986 -3.91681,-48.5523 -2.57662,-2.33141 -78.219581,-34.698961 -81.062967,-34.698961 -1.395228,0 -2.14683,0.348733 -2.951363,1.340076 z"/>
  <path d="m 179.73808,111.75293 c -35.30203,15.04255 -38.30632,16.43161 -40.77285,18.71601 -1.71704,1.53991 -2.95136,3.17778 -3.37903,4.46888 -0.48272,1.53991 -0.64363,12.56028 -0.64363,44.28325 v 42.19674 l 1.66411,1.29109 c 0.91251,0.69551 2.09179,1.2911 2.62955,1.2911 0.53777,0 17.81192,-7.19801 38.35925,-15.98492 41.41647,-17.67372 41.4694,-17.7227 44.6346,-23.62962 l 1.50109,-2.83101 0.16091,-41.89894 0.10797,-41.898934 -1.17927,-1.191179 c -0.80453,-0.793467 -1.71704,-1.1422 -3.05722,-1.091261 -1.34654,-0.0059 -13.57754,5.009614 -40.02548,16.278794 z"/>
</svg>
