<?xml version="1.0" encoding="UTF-8" standalone="no"?>
<svg xmlns="http://www.w3.org/2000/svg" version="1.1" width="256" height="256">
  <path d="m 236.63513,19.397524 a 11.485979,11.597439 0 0 0 -16.24503,0 l -79.26094,80.029278 16.24583,16.402668 79.26014,-80.029275 a 11.485979,11.597439 0 0 0 0,-16.402671 z"/>
  <path d="M 134.43842,174.20256 C 117.01962,156.96687 99.262294,139.23649 83.897762,121.17718 l -2.519152,1.40031 -0.107291,0.0592 a 78.959288,79.725507 0 0 1 -56.119547,7.63578 7.5028928,7.5757007 0 0 0 -9.125811,8.02017 112.82494,113.9198 0 0 0 31.915237,71.09861 141.55959,142.93328 0 0 0 47.993702,-20.60361 170.00821,171.65797 0 0 1 -28.137543,37.05871 138.45884,139.80244 0 0 0 25.119844,13.60077 7.3800941,7.4517104 0 0 0 2.803806,0.55291 7.4992168,7.5719891 0 0 0 5.412673,-2.32833 204.4812,206.46548 0 0 0 36.94091,-56.67399 l 0.99422,-2.18055 c -1.56376,-1.55133 -3.05078,-3.04931 -4.63039,-4.61455 z"/>
  <path d="m 146.49772,161.78265 0.54473,0.54224 4.84761,-9.78931 a 18.517436,18.697129 0 0 0 -3.46845,-21.58196 l -19.03632,-19.22105 a 18.517436,18.697129 0 0 0 -21.37454,-3.50211 l -8.729616,4.40705 c 14.374446,16.57769 30.979946,33.07304 47.216586,49.14514 z"/>
</svg>
