<?xml version="1.0" encoding="UTF-8" standalone="no"?>
<svg xmlns="http://www.w3.org/2000/svg" version="1.1" width="225" height="225">
  <path d="M196.018387,188.925415 C186.033096,188.993530 176.042633,188.909378 166.066589,189.248978 C163.882706,189.323318 161.164551,190.343140 159.681183,191.881134 C133.871033,218.641846 94.938828,218.691284 69.193336,191.988968 C67.702805,190.443054 65.031250,189.316681 62.873566,189.255493 C52.558205,188.962921 42.230511,189.105408 31.362125,188.853806 C30.554596,188.703598 30.292139,188.792816 30.029682,188.882050 C29.559860,181.756378 29.090038,174.630707 28.578905,166.878448 C37.733616,166.878448 46.125134,166.878448 54.525677,166.878448 C53.806469,159.073944 53.141590,151.858994 52.417843,144.005219 C44.993080,144.005219 37.275745,144.005219 29.313900,144.005219 C29.313900,136.143204 29.313900,128.896179 29.313900,121.237656 C37.023262,121.237656 44.621540,121.237656 52.952866,121.237656 C52.952866,113.485634 52.952866,106.119713 52.952866,98.252739 C45.459946,98.252739 37.529728,98.252739 29.252058,98.252739 C29.252058,90.666084 29.252058,83.557793 29.726742,76.411476 C30.466116,76.255402 30.730804,76.137367 30.995495,76.019333 C39.989113,75.948463 48.985130,75.966187 57.974098,75.723289 C59.552162,75.680649 61.791790,74.999855 62.553303,73.842346 C68.530891,64.756317 76.340187,57.746994 86.029549,52.489796 C78.909676,45.330551 72.008224,38.390938 65.318939,31.664663 C70.527023,26.264797 75.581940,21.023733 81.134628,15.266575 C84.686356,18.718838 88.234596,22.132229 91.743073,25.586010 C97.443398,31.197468 103.104462,36.848816 108.807335,42.457672 C113.042992,46.623501 114.112335,46.713913 118.160904,42.524391 C127.063019,33.312363 135.849670,23.988750 144.714661,14.677912 C150.832062,21.179476 155.908188,26.574381 161.297318,32.301922 C155.322388,38.203320 148.609894,44.833218 141.517212,51.838634 C152.053284,57.355663 160.360657,64.820488 166.624603,74.554024 C167.201004,75.449722 169.224472,75.733551 170.584061,75.753487 C178.748245,75.873108 186.914780,75.832466 195.627441,76.095642 C196.444901,76.249908 196.715485,76.154053 196.986053,76.058197 C197.447021,83.192482 197.907990,90.326767 198.410248,98.099953 C190.238480,98.099953 182.849014,98.099953 175.688507,98.099953 C175.688507,105.968895 175.688507,113.209335 175.688507,120.984833 C183.316605,120.984833 190.386993,120.984833 197.697754,120.984833 C197.697754,128.775909 197.697754,136.024185 197.697754,143.842148 C190.487549,143.842148 183.418640,143.842148 176.394669,143.842148 C175.634949,151.613632 174.930496,158.819870 174.169006,166.609482 C181.979431,166.609482 189.707962,166.609482 197.745819,166.609482 C197.745819,174.297668 197.745819,181.413788 197.264923,188.557022 C196.528824,188.697891 196.273605,188.811646 196.018387,188.925415 M109.500107,120.722145 C119.230789,120.722145 128.961472,120.722145 138.640579,120.722145 C138.640579,113.186417 138.640579,106.449745 138.640579,99.635834 C121.651489,99.635834 104.982765,99.635834 88.359879,99.635834 C88.359879,106.768471 88.359879,113.507126 88.359879,120.721893 C95.280853,120.721893 101.890526,120.721893 109.500107,120.722145 M126.489761,141.695206 C113.866417,141.695206 101.243065,141.695206 88.346138,141.695206 C88.346138,148.937332 88.346138,155.661758 88.346138,162.435394 C105.337700,162.435394 122.035042,162.435394 138.650848,162.435394 C138.650848,155.407990 138.650848,148.797302 138.650848,141.694870 C134.737137,141.694870 131.110504,141.694870 126.489761,141.695206 z"/>
</svg>