<?xml version="1.0" encoding="UTF-8" standalone="no"?>
<svg xmlns="http://www.w3.org/2000/svg" version="1.1" width="256" height="256">
  <path d="M10.1,58.9L10.1,58.9L10.1,58.9z" />
  <path d="m 128.02285,97.969135 c -18.53713,0 -33.599989,14.791995 -33.599989,32.995795 0,18.2038 15.062859,32.9958 33.599989,32.9958 18.56,0 33.6,-14.76955 33.6,-32.9958 0,-18.22625 -15.04,-32.995795 -33.6,-32.995795 z m 89.6,-32.995791 h -26.88 c -3.70285,0 -7.68,-2.805765 -8.84571,-6.262464 L 174.94858,38.262465 C 173.78286,34.805766 169.80571,32 166.10286,32 H 89.942857 c -3.702857,0 -7.68,2.805766 -8.845713,6.262465 l -6.97143,20.493308 c -1.165713,3.434255 -5.142857,6.262464 -8.845712,6.262464 H 38.4 c -12.319999,0 -22.4,9.898738 -22.4,21.997195 V 186.00281 C 16,198.10127 26.080001,208 38.4,208 H 217.59999 C 229.92,208 240,198.10127 240,186.00281 V 87.015432 C 240,74.916975 229.92,65.018237 217.59999,65.018237 Z m -89.6,120.984586 c -30.948566,0 -55.99999,-24.60096 -55.99999,-54.993 0,-30.39204 25.051424,-54.992988 55.99999,-54.992988 30.90286,0 56,24.645838 56,54.992988 0,30.36961 -25.07429,54.993 -56,54.993 z m 81.76001,-83.6118 c -4.32001,0 -7.84001,-3.434257 -7.84001,-7.699017 0,-4.264761 3.49714,-7.699017 7.84001,-7.699017 4.34285,0 7.83999,3.434256 7.83999,7.699017 0,4.26476 -3.49714,7.699017 -7.83999,7.699017 z" />
</svg>
