<?xml version="1.0" encoding="UTF-8" standalone="no"?>
<svg xmlns="http://www.w3.org/2000/svg" version="1.1" width="256" height="256">
  <path d="M 235.95361,65.594525 216.29977,45.940688 c -2.69488,-2.696911 -5.97238,-4.045873 -9.82489,-4.045873 -3.85605,0 -7.13355,1.348962 -9.82844,4.045873 L 101.84254,140.88783 59.35456,98.255082 c -2.697924,-2.697916 -5.973394,-4.045358 -9.825907,-4.045358 -3.855043,0 -7.130514,1.347442 -9.828437,4.045358 L 20.046378,117.90943 C 17.348455,120.60684 16,123.88333 16,127.73787 c 0,3.85149 1.348455,7.13101 4.046378,9.82793 l 52.313891,52.31288 19.655352,19.65384 c 2.69641,2.69893 5.97289,4.04637 9.826919,4.04637 3.85252,0 7.129,-1.35099 9.82693,-4.04637 L 131.32431,189.87868 235.95361,85.249887 C 238.64901,82.551959 240,79.275981 240,75.421444 c 0.002,-3.852513 -1.35099,-7.128996 -4.04639,-9.826919 z"/>
</svg>
