<?xml version="1.0" encoding="UTF-8" standalone="no"?>
<svg xmlns="http://www.w3.org/2000/svg" version="1.1" width="256" height="256">
  <path d="m 128.43951,100.33544 a 30.417455,30.417455 0 1 0 30.41745,30.41744 30.417455,30.417455 0 0 0 -30.41745,-30.41744 z m 0,85.1689 a 54.751419,54.751419 0 1 1 54.75141,-54.75146 54.751419,54.751419 0 0 1 -54.75141,54.75146 z m 0,-139.920362 c -85.168882,0 -121.6698277,85.168902 -121.6698277,85.168902 0,0 36.5009457,85.1689 121.6698277,85.1689 85.16886,0 121.66981,-85.1689 121.66981,-85.1689 0,0 -36.50095,-85.168902 -121.66981,-85.168902 z"/>
</svg>
