<?xml version="1.0" encoding="UTF-8" standalone="no"?>
<svg xmlns="http://www.w3.org/2000/svg" version="1.1" width="256" height="256">
  <path d="m 220.53407,85.96391 c -0.33426,-1.32803 -1.21564,-2.44952 -2.42194,-3.097107 -1.20306,-0.643522 -2.6252,-0.752671 -3.9155,-0.299434 -11.31237,3.974341 -28.76626,6.531801 -48.39654,6.531801 -4.77245,0 -9.37206,-0.18219 -13.83168,-0.46905 -2.30592,10.41807 -5.99052,19.98411 -10.69687,28.40913 0.22873,-0.0108 0.44754,-0.0468 0.67843,-0.0468 6.10011,0 11.04378,-0.5088 11.04378,3.60025 0,4.10903 -4.94412,11.28112 -11.04378,11.28112 -3.55317,0 -6.68153,-1.14989 -8.70015,-2.90601 -6.09642,7.56892 -13.21859,13.53715 -21.06219,17.48388 8.84337,29.7664 29.51888,50.64763 53.61246,50.64763 32.14332,0 58.19991,-37.16042 58.19991,-83.0003 -4e-4,-9.88815 -1.23508,-19.35031 -3.46593,-28.13526 z m -31.54036,86.9 c -0.10304,0.43739 -0.42845,0.79406 -0.85612,0.93442 -0.4285,0.14336 -0.89999,0.0533 -1.24404,-0.23772 -4.5339,-3.80961 -12.24642,-6.34068 -21.09306,-6.34068 -8.8474,0 -16.55996,2.53107 -21.09341,6.34068 -0.34435,0.28779 -0.8164,0.37817 -1.24406,0.23772 -0.42806,-0.14372 -0.75307,-0.49703 -0.85611,-0.93442 -0.37534,-1.59704 -0.60622,-3.24358 -0.60622,-4.95625 0,-13.14438 10.65628,-23.79983 23.80023,-23.79983 13.14391,0 23.79941,10.65587 23.79941,23.79983 -8.3e-4,1.71267 -0.23161,3.3596 -0.60662,4.95625 z m 0.65611,-40.99032 c -6.10007,0 -11.04379,-7.17209 -11.04379,-11.28116 0,-4.10902 4.94411,-3.60022 11.04379,-3.60022 6.09967,0 11.04377,3.33162 11.04377,7.44069 -3.8e-4,4.10904 -4.9441,7.44069 -11.04377,7.44069 z"/>
  <path d="m 148.39982,62.49844 c 0,-9.886968 -1.23471,-19.34952 -3.46553,-28.134059 -0.33428,-1.328029 -1.21564,-2.450342 -2.42194,-3.097109 -0.7125,-0.381005 -1.50333,-0.574546 -2.30022,-0.574546 -0.54413,0 -1.09066,0.08968 -1.61527,0.275083 -11.31239,3.974347 -28.76585,6.530993 -48.396548,6.530993 -19.631112,0 -37.08455,-2.556646 -48.396927,-6.530993 -0.521796,-0.185429 -1.065505,-0.275083 -1.609214,-0.275083 -0.796495,0 -1.590955,0.195588 -2.306704,0.577791 -1.203054,0.646767 -2.08719,1.768674 -2.421936,3.093864 C 33.234705,43.149325 32,52.611472 32,62.49844 c 0,45.8407 26.056203,83.00032 58.200312,83.00032 32.143288,0 58.199508,-37.15962 58.199508,-83.00032 z M 55.306012,72.814291 c 0,-4.109868 4.944094,-7.440692 11.044173,-7.440692 6.099678,0 11.043771,7.17127 11.043771,11.281137 0,4.109054 -4.944093,3.600241 -11.043771,3.600241 -6.100079,0 -11.044173,-3.331634 -11.044173,-7.440686 z m 34.8943,56.993199 c -13.144348,0 -23.79981,-10.65588 -23.79981,-23.79901 0,-1.71267 0.230886,-3.36003 0.605787,-4.95708 0.103056,-0.43661 0.428474,-0.78999 0.856138,-0.93443 0.428474,-0.14047 0.899959,-0.05 1.244037,0.23773 4.533875,3.80961 12.246418,6.34068 21.093445,6.34068 8.847025,0 16.559561,-2.53107 21.093031,-6.34068 0.3445,-0.29103 0.81597,-0.38101 1.24404,-0.23773 0.42807,0.1412 0.75309,0.49782 0.85614,0.93443 0.37491,1.59705 0.60619,3.24441 0.60619,4.95708 4e-4,13.14313 -10.65546,23.79901 -23.798998,23.79901 z M 103.00586,76.654736 c 0,-4.109867 4.94409,-11.281137 11.04417,-11.281137 6.09967,0 11.04379,3.330824 11.04379,7.440692 0,4.109052 -4.94412,7.440686 -11.04379,7.440686 -6.10008,0 -11.04417,0.508813 -11.04417,-3.600241 z"/>
</svg>
