<?xml version="1.0" encoding="UTF-8" standalone="no"?>
<svg xmlns="http://www.w3.org/2000/svg" version="1.1" width="256" height="256">
  <path d="m 37.268222,193.309 c -7.024296,7.02539 -7.024296,18.40269 0,25.42808 3.512149,3.51269 8.114967,5.26292 12.71818,5.26292 4.603213,0 9.206032,-1.75023 12.71818,-5.26292 L 121.73998,159.6803 96.303621,134.26405 Z"/>
  <polygon
     transform="matrix(0.39431326,0,0,0.39437441,31.999803,31.985017)"
     points="387.548,131.577 452.755,97.863 486.893,31.866 455.065,0.038 389.098,34.207 355.324,99.353 276.012,178.756 308.175,210.98 "/>
  <path d="m 190.44867,152.12763 -2.42148,-0.23978 c -4.38713,0 -8.54674,0.89918 -12.43033,2.33786 L 101.79325,80.398814 c 1.43845,-3.884194 2.33749,-8.044449 2.33749,-12.432259 l -0.23975,-2.421853 C 102.62052,46.830059 87.205237,32.000003 68.170158,32.000003 c -5.538129,0 -10.728475,1.354676 -15.415282,3.596695 l 23.889863,23.893568 c 1.258648,1.258843 2.1218,2.74524 2.697103,4.316033 1.570155,4.243863 0.719227,9.20746 -2.697103,12.636151 -2.337489,2.337851 -5.406035,3.512693 -8.474581,3.512693 -1.414401,0 -2.816974,-0.311556 -4.15961,-0.815172 -1.570156,-0.599449 -3.056717,-1.438678 -4.315365,-2.709352 L 35.805715,52.548882 c -2.241671,4.687534 -3.596137,9.878684 -3.596137,15.417673 0,19.03803 14.827755,34.455705 33.539497,35.726385 l 2.421478,0.23978 c 4.387129,0 8.54674,-0.89918 12.430331,-2.32563 l 73.791386,73.81506 c -1.4144,3.88419 -2.31343,8.04445 -2.31343,12.43226 l 0.25157,2.42185 c 1.24682,18.72647 16.67393,33.5447 35.70901,33.5447 5.53813,0 10.7403,-1.33062 15.41528,-3.5967 L 179.56484,196.3307 c -1.24682,-1.24702 -2.1218,-2.74524 -2.72116,-4.30381 -1.57016,-4.24386 -0.71923,-9.21929 2.72116,-12.64798 2.31343,-2.33786 5.40603,-3.5127 8.47458,-3.5127 1.4144,0 2.80475,0.29973 4.17144,0.81518 1.57015,0.58761 3.06854,1.42684 4.30314,2.69752 l 23.88986,23.89356 C 222.65736,198.57271 224,193.39379 224,187.8548 223.9882,168.81598 209.16041,153.39831 190.44867,152.12763 Z"/>
</svg>
