<?xml version="1.0" encoding="UTF-8" standalone="no"?>
<svg xmlns="http://www.w3.org/2000/svg" version="1.1" width="256" height="256">
  <path
     style="fill:#697c86;stroke-width:0.43749997"
     d="m 234.74999,108.44409 -25.11352,-4.98852 c -1.70557,-5.511478 -3.80591,-10.761478 -6.5625,-15.881593 l 13.91454,-20.868408 c 1.70557,-2.625 1.44239,-6.037841 -0.78954,-8.268067 L 197.56249,39.79932 c -2.23022,-2.230225 -5.64307,-2.493409 -8.26807,-0.787843 l -20.8684,13.912842 c -5.12012,-2.754883 -10.37012,-4.855225 -15.88159,-6.5625 L 147.5559,21.250004 c -0.65625,-3.019776 -3.28125,-5.25 -6.43091,-5.25 H 114.875 c -3.14966,0 -5.77466,2.230224 -6.43091,5.25 l -4.98853,25.111815 c -5.511472,1.707275 -10.761472,3.807617 -15.881587,6.5625 L 66.705565,39.011477 c -2.625,-1.705566 -6.037841,-1.442382 -8.268067,0.787843 L 39.801024,58.437502 c -2.231933,2.230226 -2.495117,5.643067 -0.789551,8.268067 l 13.914551,20.868408 c -2.756592,5.120115 -4.856934,10.368404 -6.5625,15.881593 L 21.25,108.44409 C 18.230224,109.10034 16,111.72534 16,114.875 v 26.25 c 0,3.14966 2.230224,5.77466 5.25,6.43091 l 25.113524,4.98852 c 1.705566,5.51148 3.805908,10.76148 6.5625,15.87988 l -13.914551,20.87012 c -1.705566,2.625 -1.442382,6.03784 0.789551,8.26807 l 18.636474,18.63647 c 2.100341,2.23193 5.643067,2.49512 8.268067,0.78784 l 20.868408,-13.91284 c 5.120115,2.75659 10.370115,4.85693 15.881587,6.5625 l 4.98853,25.11352 c 0.65625,3.01807 3.28125,5.25 6.43091,5.25 h 26.24999 c 3.14966,0 5.77466,-2.23193 6.43091,-5.25 l 4.98853,-25.11352 c 5.51147,-1.70557 10.76147,-3.80591 15.88159,-6.5625 l 20.8684,13.91284 c 2.625,1.70728 6.03785,1.44409 8.26807,-0.78784 l 18.63648,-18.63647 c 2.23193,-2.23023 2.49511,-5.64307 0.78954,-8.26807 l -13.91454,-20.87012 c 2.75659,-5.1184 4.85693,-10.3684 6.5625,-15.87988 l 25.11352,-4.98852 c 3.01977,-0.65625 5.25,-3.28125 5.25,-6.43091 v -26.25 c 0,-3.14966 -2.23023,-5.77466 -5.25,-6.43091 z m -106.75,65.49341 c -25.33056,0 -45.937493,-20.60693 -45.937493,-45.9375 0,-25.33057 20.606933,-45.937499 45.937493,-45.937499 25.33057,0 45.9375,20.606929 45.9375,45.937499 0,25.33057 -20.60693,45.9375 -45.9375,45.9375 z m 0,0"/>
  <path
     style="fill:#596c76;stroke-width:0.43749997"
     d="m 239.99999,114.875 v 26.25 c 0,3.14966 -2.23023,5.77466 -5.25,6.43091 l -25.11352,4.98852 c -1.70557,5.51148 -3.80591,10.76148 -6.5625,15.87988 l 13.91454,20.87012 c 1.70557,2.625 1.44239,6.03784 -0.78954,8.26807 l -18.63648,18.63647 c -2.23022,2.23193 -5.64307,2.49512 -8.26807,0.78784 l -20.8684,-13.91284 c -5.12012,2.75659 -10.37012,4.85693 -15.88159,6.5625 l -4.98853,25.11352 c -0.65625,3.01807 -3.28125,5.25 -6.43091,5.25 h -13.125 V 173.9375 c 25.33057,0 45.9375,-20.60693 45.9375,-45.9375 0,-25.33057 -20.60693,-45.937499 -45.9375,-45.937499 V 16.000004 h 13.125 c 3.14966,0 5.77466,2.230224 6.43091,5.25 l 4.98853,25.111815 c 5.51147,1.707275 10.76147,3.807617 15.88159,6.5625 l 20.8684,-13.912842 c 2.625,-1.705566 6.03785,-1.442382 8.26807,0.787843 l 18.63648,18.638182 c 2.23193,2.230226 2.49511,5.643067 0.78954,8.268067 l -13.91454,20.868408 c 2.75659,5.120115 4.85693,10.368404 6.5625,15.881593 l 25.11352,4.98852 c 3.01977,0.65625 5.25,3.28125 5.25,6.43091 z m 0,0"/>
  <path
     style="fill:#465a61;stroke-width:0.43749997"
     d="m 127.99999,68.937502 c -32.549311,0 -59.062492,26.511475 -59.062492,59.062498 0,32.54931 26.513181,59.0625 59.062492,59.0625 32.54932,0 59.0625,-26.51319 59.0625,-59.0625 0,-32.551023 -26.51318,-59.062498 -59.0625,-59.062498 z m 0,85.312498 C 113.5625,154.25 101.75,142.4375 101.75,128 c 0,-14.4375 11.8125,-26.25 26.24999,-26.25 14.4375,0 26.25,11.8125 26.25,26.25 0,14.4375 -11.8125,26.25 -26.25,26.25 z m 0,0"/>
  <path
     style="fill:#3b4a51;stroke-width:0.43749997"
     d="m 187.06249,128 c 0,32.54931 -26.51318,59.0625 -59.0625,59.0625 V 154.25 c 14.4375,0 26.25,-11.8125 26.25,-26.25 0,-14.4375 -11.8125,-26.25 -26.25,-26.25 V 68.937502 c 32.54932,0 59.0625,26.511475 59.0625,59.062498 z m 0,0"/>
</svg>
