<?xml version="1.0" encoding="UTF-8" standalone="no"?>
<svg xmlns="http://www.w3.org/2000/svg" version="1.1" width="256" height="256">
  <path d="m 235.44578,108.85884 -26.98711,-5.05922 c -1.64008,-5.457652 -3.78978,-10.692917 -6.44912,-15.617776 L 217.6227,65.355147 c 1.44549,-2.112639 1.14898,-5.290865 -0.66251,-7.097727 L 197.71015,39.002751 c -1.81149,-1.811496 -4.98509,-2.103374 -7.09773,-0.662517 l -22.83133,15.622412 c -5.06847,-2.733458 -10.46591,-4.924858 -16.09034,-6.578832 l -5.03142,-26.843493 c -0.47719,-2.515709 -2.92804,-4.554219 -5.49008,-4.554219 h -27.22803 c -2.56204,0 -5.01288,2.03851 -5.49008,4.554219 l -5.08238,27.107573 C 97.97133,49.297235 92.79629,51.446938 87.9224,54.097003 L 65.378312,38.67381 c -2.112639,-1.445491 -5.290864,-1.14898 -7.097727,0.662516 L 39.025916,58.590995 c -1.811495,1.811495 -2.103373,4.985087 -0.662517,7.097727 l 15.520487,22.683075 c -2.613001,4.873896 -4.730274,10.044301 -6.351817,15.432453 l -26.982482,5.05459 C 18.038512,109.33604 16,111.78688 16,114.34893 v 27.22802 c 0,2.56204 2.038512,5.01289 4.549587,5.49008 l 26.96395,5.05459 c 1.644708,5.50398 3.812943,10.78557 6.490807,15.7475 L 38.65991,190.30201 c -1.445489,2.11264 -1.148979,5.29087 0.662516,7.09773 l 19.250036,19.25466 c 1.811497,1.8115 4.985089,2.10338 7.097727,0.66252 L 88.09382,201.96786 c 4.82293,2.60837 9.94238,4.73027 15.2842,6.37035 l 5.08238,27.1122 c 0.4772,2.51107 2.92805,4.54959 5.49009,4.54959 h 27.22802 c 2.56204,0 5.01289,-2.03852 5.49008,-4.54959 l 5.03143,-26.85276 c 5.5642,-1.64007 10.90603,-3.80367 15.92818,-6.4908 l 22.71087,15.53901 c 2.11265,1.4455 5.29087,1.14898 7.09773,-0.66251 l 19.25004,-19.24541 c 1.81149,-1.81149 2.10337,-4.98508 0.66251,-7.09772 l -15.45099,-22.58115 c 2.72883,-5.02216 4.92486,-10.36397 6.59274,-15.93745 l 26.95931,-5.05459 C 237.96148,146.58984 240,144.13899 240,141.57695 v -27.22802 c 0,-2.56205 -2.04315,-5.01289 -4.55422,-5.49009 z m -107.4481,65.85783 c -25.79644,0 -46.714344,-20.91791 -46.714344,-46.72826 0,-25.7918 20.917904,-46.71434 46.714344,-46.71434 25.80571,0 46.72825,20.92254 46.72825,46.71434 0,25.81035 -20.92717,46.72826 -46.72825,46.72826 z"/>
</svg>
