<?xml version="1.0" encoding="UTF-8" standalone="no"?>
<svg xmlns="http://www.w3.org/2000/svg" version="1.1" width="256" height="256">
  <path d="M 44.871598,79.811517 C 53.456458,65.104188 65.101273,53.459426 79.809108,44.875043 94.519569,36.291097 110.57809,32 127.99693,32 c 17.4171,0 33.48044,4.291097 48.18827,12.875043 14.70871,8.58307 26.35352,20.227832 34.93838,34.936474 C 219.70888,94.521036 224,110.5843 224,128 c 0,17.41657 -4.29243,33.47721 -12.8751,48.18761 -8.58442,14.70733 -20.22924,26.35209 -34.93795,34.93735 C 161.47737,219.70846 145.41534,224 127.99869,224 110.58203,224 94.518256,219.70846 79.809546,211.12496 65.101711,202.54276 53.457334,190.89494 44.873349,176.18761 36.290678,161.47853 31.999999,145.4157 31.999999,128 31.999561,110.58255 36.290678,94.518847 44.871598,79.811517 Z m 24.25153,82.312793 c 6.083132,10.41624 14.332619,18.66569 24.748899,24.75185 10.416283,6.08311 21.790953,9.1216 34.126223,9.1216 12.3322,0 23.70775,-3.03849 34.12534,-9.1216 10.41628,-6.08616 18.66577,-14.33561 24.7489,-24.75185 6.08445,-10.41623 9.12558,-21.79129 9.12558,-34.12431 0,-12.33389 -3.04245,-23.70896 -9.12558,-34.12519 -6.08182,-10.416232 -14.33349,-18.667433 -24.7489,-24.750099 -10.41628,-6.083542 -21.79139,-9.124219 -34.12534,-9.124219 -12.33483,0 -23.70994,3.040677 -34.126223,9.124219 -10.41628,6.083104 -18.666205,14.333867 -24.748899,24.750099 -6.08357,10.41623 -9.123384,21.7913 -9.123384,34.12519 0,12.33302 3.039814,23.70808 9.123384,34.12431 z"/>
</svg>
