<?xml version="1.0" encoding="UTF-8" standalone="no"?>
<svg xmlns="http://www.w3.org/2000/svg" version="1.1" width="256" height="256">
    <path d="m 211.41226,64.482229 c -20.6694,0 -33.28164,2.448982 -53.36327,16.897983 C 143.20818,92.057778 132.31021,98.32717 128,100.6782 123.6898,98.32717 112.76735,92.082269 97.951026,81.380212 77.869392,66.906721 65.257147,64.482229 44.587758,64.482229 22.351022,64.482229 8,80.694497 8,105.77209 c 0,15.06124 14.326532,26.15514 26.938777,35.92658 8.54694,6.61225 17.387755,13.4694 17.387755,18.66125 0,8.10613 -3.795918,13.64084 -7.493878,19.02859 -2.987754,4.3347 -5.77959,8.44901 -5.77959,13.32248 0,7.37144 7.689796,10.65308 13.885714,13.29797 2.375511,1.02857 6.318368,2.69388 7.12653,3.79594 0.07347,1.00408 0.02449,2.3755 -0.02449,3.84489 -0.171429,5.36328 -0.416325,12.73471 4.383674,17.70615 2.938777,3.03674 7.200001,4.5796 12.710205,4.5796 12.783675,0 16.92245,-6.88165 20.571429,-12.93064 1.934698,-3.23265 3.771434,-6.26939 7.004084,-8.76736 9.1102,-7.07756 23.16735,-7.20001 23.28979,-7.20001 0.14694,0 14.1796,0.12245 23.28979,7.20001 3.20818,2.49797 5.04491,5.53471 7.0041,8.76736 3.64897,6.07348 7.78775,12.93064 20.57142,12.93064 5.5102,0 9.77143,-1.54286 12.7102,-4.5796 4.8,-4.97144 4.55511,-12.31838 4.38368,-17.70615 -0.049,-1.46939 -0.0979,-2.84081 -0.0246,-3.84489 0.80816,-1.10206 4.75101,-2.76737 7.12652,-3.79594 6.19593,-2.64489 13.88572,-5.92653 13.88572,-13.29797 0,-4.87347 -2.81632,-8.96329 -5.77958,-13.32248 -3.67347,-5.36327 -7.49389,-10.92246 -7.49389,-19.02859 0,-5.19185 8.84082,-12.049 17.38775,-18.66125 12.6368,-9.79594 26.93884,-20.88983 26.93884,-35.92658 0,-25.077593 -14.35102,-41.289861 -36.58775,-41.289861 z M 173.30613,209.97632 c -4.60409,0 -8.37551,-3.74694 -8.37551,-8.37553 0,-4.60409 3.74694,-8.37552 8.37551,-8.37552 4.60408,0 8.37551,3.74695 8.37551,8.37552 -0.0246,4.6041 -3.77143,8.37553 -8.37551,8.37553 z m -90.612248,0 c -4.604081,0 -8.375509,-3.74694 -8.375509,-8.37553 0,-4.60409 3.746938,-8.37552 8.375509,-8.37552 4.604082,0 8.37551,3.74695 8.37551,8.37552 0,4.6041 -3.771428,8.37553 -8.37551,8.37553 z M 128.0245,179.78036 c -24.78368,-0.0736 -44.938781,-13.10207 -44.938781,-29.04494 0,-12.09799 12.367347,-23.16739 29.926531,-27.30617 1.83674,4.45715 5.63265,7.98369 10.40817,9.4041 0.12244,0.0246 0.22041,0.0735 0.26938,0.0735 0.39184,0.0979 0.78367,0.2204 1.17552,0.29388 0.2204,0.049 0.4653,0.0735 0.68571,0.12245 l 0.12244,0.0246 c 0,0 0.0979,0.0246 0.12246,0.0246 0.19592,0.0246 0.41633,0.0735 0.58775,0.0735 1.07755,0.0979 2.17959,0.0979 3.20817,0 0.22041,-0.0246 0.41632,-0.049 0.61223,-0.0735 l 0.24491,-0.0246 c 0.24489,-0.0246 0.4653,-0.0735 0.68571,-0.12244 0.39184,-0.0735 0.78367,-0.17142 1.12652,-0.26939 0.0736,-0.0246 0.24491,-0.0735 0.34286,-0.0979 4.77552,-1.4204 8.57144,-4.94694 10.40817,-9.40409 17.55919,4.13878 29.92654,15.20819 29.92654,27.30617 0,15.91839 -20.17961,28.94697 -44.91429,29.02044 z M 103.2898,27.478092 c 0,-5.877559 4.79999,-10.677566 10.67756,-10.677566 h 28.04081 c 5.87755,0 10.67755,4.800007 10.67755,10.677566 0,5.87756 -4.8,10.677568 -10.67755,10.677568 h -28.04081 c -5.87757,0 -10.67756,-4.800008 -10.67756,-10.677568 z m 48.34285,24.391874 c 0,5.877559 -4.79999,10.677566 -10.67754,10.677566 H 115.0449 c -5.87755,0 -10.67755,-4.800007 -10.67755,-10.677566 0,-5.877561 4.8,-10.677568 10.67755,-10.677568 h 25.9347 c 5.87755,0 10.65305,4.775517 10.65305,10.677568 z m -5.36325,24.391872 c 0,5.877559 -4.80001,10.677565 -10.67755,10.677565 h -15.18368 c -5.87755,0 -10.67756,-4.800006 -10.67756,-10.677565 0,-5.87756 4.80001,-10.677566 10.67756,-10.677566 h 15.18368 c 5.90203,0 10.67755,4.775516 10.67755,10.677566 z"/>
</svg>
