<?xml version="1.0" encoding="UTF-8" standalone="no"?>
<svg xmlns="http://www.w3.org/2000/svg" version="1.1" width="256" height="256">
  <path d="m 184.31064,68.910719 c -3.53007,7.355521 -10.9113,12.150422 -18.87317,12.237 -7.10725,0.100245 -13.61092,-3.219441 -17.66554,-9.050751 l -1.68604,-2.477396 -35.44924,23.686374 -35.47718,23.642454 1.641782,2.50692 c 6.230128,9.76873 3.586795,22.43892 -6.064384,28.84731 -8.534593,5.69386 -19.341053,4.62954 -26.61098,-2.66005 -2.735176,-2.68661 -4.295287,-5.41071 -5.300076,-9.1547 -1.508567,-5.51704 -0.897225,-10.92485 1.751194,-15.80805 l 1.099439,-2.00032 -2.352577,0.27128 c -5.526704,0.57217 -10.635085,-0.95344 -15.33314,-4.53674 -5.978975,-4.57915 -9.114852,-13.06882 -7.621622,-20.557021 1.918908,-9.622878 10.601736,-16.846379 20.397922,-16.955722 7.107251,-0.100245 13.610925,3.219441 17.665549,9.050751 L 56.11861,88.429454 91.566249,64.74276 127.04343,41.100311 125.40165,38.593385 c -6.23013,-9.768732 -3.5868,-22.438915 6.06406,-28.8457021 14.10492,-9.41241755 32.56372,0.5369241 32.73907,17.6246461 0.0242,3.391699 -0.8046,6.770052 -2.52568,9.930453 l -1.15265,2.066418 2.26951,-0.247824 c 3.57957,-0.376799 7.13819,0.13772 10.22316,1.454951 3.22873,1.382584 6.88464,4.136064 8.87195,6.675203 1.88875,2.439445 3.68891,6.887342 4.12592,10.16625 0.4608,3.360361 -0.34474,8.571027 -1.70635,11.492939 z"/>
  <path d="m 203.57152,246.50263 c -8.13325,0.6445 -15.98805,-3.32735 -20.06405,-10.16731 -3.65834,-6.09423 -4.05663,-13.38528 -1.05275,-19.82118 l 1.29454,-2.70266 -38.29278,-18.74448 -38.26884,-18.79072 -1.34232,2.67924 c -5.31472,10.29545 -17.597164,14.37741 -27.987659,9.2539 -9.211621,-4.51723 -13.722122,-14.39487 -11.073289,-24.34342 0.948186,-3.71483 2.519306,-6.4326 5.251245,-9.1828 4.011669,-4.07676 8.994243,-6.26586 14.546971,-6.43015 l 2.281896,-0.0547 -1.416798,-1.8976 c -3.272059,-4.4906 -4.520243,-9.67375 -3.783235,-15.53622 0.954253,-7.47035 6.71814,-14.44788 13.942507,-16.92001 9.283832,-3.17687 19.892402,0.69982 24.909892,9.11421 3.65834,6.09423 4.05663,13.38528 1.05275,19.82118 l -1.29454,2.70266 38.29225,18.74294 38.26884,18.79071 1.34232,-2.67924 c 5.31472,-10.29545 17.59716,-14.3774 27.98611,-9.25337 15.22582,7.46438 15.90033,28.42294 1.21518,37.16178 -2.92014,1.72539 -6.25742,2.7066 -9.85467,2.80686 l -2.36578,0.0419 1.35477,1.83757 c 2.12463,2.90538 3.46815,6.24057 3.87965,9.56965 0.42724,3.48622 -0.11606,8.03068 -1.31258,11.02483 -1.15987,2.85885 -4.10066,6.65043 -6.71585,8.67602 -2.67364,2.0871 -7.58337,4.00922 -10.79378,4.30041 z"/>
</svg>
