<?xml version="1.0" encoding="UTF-8" standalone="no"?>
<svg xmlns="http://www.w3.org/2000/svg" version="1.1" width="256" height="256">
  <path d="m 234.90551,21.091036 c -6.78883,-6.788052 -17.76067,-6.788052 -24.54951,0 L 183.22354,48.266099 178.35478,43.3979 c -18.42356,-18.421447 -50.72194,-18.421447 -69.16836,0 l -65.80823,65.82354 c -9.211781,9.21072 -14.286261,21.48407 -14.286261,34.55735 0,13.07329 5.07448,25.36949 14.286261,34.58021 l 4.868758,4.8682 -27.155325,27.15221 c -6.788831,6.78805 -6.788831,17.75864 0,24.54669 3.382987,3.3826 7.817442,5.0739 12.274756,5.0739 4.457313,0 8.891768,-1.6913 12.274755,-5.0739 l 27.155324,-27.15221 4.868758,4.8682 c 9.21178,9.21073 21.486536,14.28462 34.584184,14.28462 13.09764,0 25.37239,-5.07389 34.58418,-14.28462 l 65.80823,-65.80068 c 9.21178,-9.21072 14.28626,-21.48407 14.28626,-34.58021 0,-13.096138 -5.07448,-25.369485 -14.28626,-34.580209 l -4.86876,-4.868199 27.15532,-27.152208 c 6.76598,-6.788052 6.76598,-17.781496 -0.0229,-24.569548 z m -46.83607,101.180834 -65.80823,65.80067 c -2.65153,2.65123 -6.33167,3.9997 -10.03467,3.9997 -3.68014,0 -7.38314,-1.32561 -10.03467,-3.9997 l -4.86876,-4.86819 11.38329,-11.38199 c 6.78883,-6.78805 6.78883,-17.75864 0,-24.54669 -3.38298,-3.3826 -7.81744,-5.0739 -12.274752,-5.0739 -4.457314,0 -8.891769,1.6913 -12.274756,5.0739 l -11.383292,11.38198 -4.868758,-4.8682 c -2.65153,-2.65122 -4.114443,-6.23952 -4.114443,-10.03351 0,-3.794 1.462913,-7.3823 4.114443,-10.03352 L 133.71307,67.921738 c 2.65153,-2.651226 6.21738,-4.113971 10.03467,-4.113971 3.81729,0 7.38314,1.462745 10.03467,4.113971 l 4.86876,4.868199 -11.38329,11.381986 c -6.78883,6.788052 -6.78883,17.758637 0,24.546697 3.38298,3.38259 7.81744,5.07389 12.27475,5.07389 4.45732,0 8.89177,-1.6913 12.27476,-5.07389 l 11.38329,-11.38199 4.86876,4.8682 c 2.65153,2.65122 4.11444,6.23952 4.11444,10.03352 0,3.79399 -1.46291,7.38229 -4.11444,10.03352 z"/>
</svg>
