<?xml version="1.0" encoding="UTF-8" standalone="no"?>
<svg xmlns="http://www.w3.org/2000/svg" version="1.1" width="256" height="256">
  <path d="m 76.677368,238.27091 c -1.462306,-0.98785 -2.944625,-2.85297 -3.458287,-4.35136 -1.29815,-3.78679 -1.29815,-208.052473 0,-211.839294 0.513662,-1.498391 1.995981,-3.363486 3.458287,-4.351336 l 2.559304,-1.728893 48.658538,0.0028 c 47.47617,0.0027 48.71915,0.04004 51.15181,1.530082 4.94681,3.030246 4.66218,-3.713573 4.66218,110.467031 0,114.18061 0.28468,107.43676 -4.66218,110.46699 -2.43266,1.49015 -3.67564,1.52733 -51.15181,1.53007 L 79.236672,240 Z M 137.56011,43.543706 c 4.70101,-2.279764 7.98112,-6.044934 10.0106,-11.491003 2.81786,-7.561631 4.47649,-6.971604 -19.59859,-6.971604 -17.13341,0 -21.08969,0.190489 -21.08969,1.014849 0,0.558165 0.48518,2.634541 1.07815,4.614129 3.87403,12.933192 17.34787,18.77511 29.59953,12.833629 z M 43.577132,220.88914 c -7.815126,-5.29145 -7.229318,-16.91413 1.055602,-20.9437 2.642627,-1.2853 4.669724,-1.5672 11.269652,-1.5672 h 8.047437 v 12.10808 12.10812 h -8.927059 c -8.01442,0 -9.184538,-0.17447 -11.445632,-1.7053 z M 191.99443,210.48632 v -12.10808 h 8.04746 c 9.47402,0 13.44186,1.42745 16.13426,5.80441 2.19719,3.57185 2.27132,10.0973 0.14747,12.97839 -3.42315,4.64362 -5.66194,5.4334 -15.40211,5.4334 h -8.92708 z M 44.42007,180.40409 c -6.413451,-3.28572 -8.38327,-12.28379 -4.004319,-18.2916 2.660287,-3.64982 5.76154,-4.59663 15.060532,-4.59791 l 8.47354,-7.6e-4 v 12.10809 12.10812 l -8.47354,-0.002 c -6.578565,-7.6e-4 -9.05112,-0.29709 -11.056213,-1.32432 z m 147.57436,-10.7826 v -12.23153 l 9.36283,0.25084 c 10.40315,0.27887 12.17784,0.9789 15.07285,5.94637 2.98112,5.11529 1.35023,12.4689 -3.58648,16.17135 -1.83883,1.37909 -3.37884,1.62624 -11.48637,1.84353 l -9.36283,0.25084 z M 44.743127,139.346 c -7.440996,-3.81294 -8.985588,-12.77265 -3.319639,-19.25625 2.811324,-3.21701 7.557964,-4.41365 16.124104,-4.06489 l 6.025629,0.24541 v 12.10808 12.10809 l -7.908636,0.20164 c -6.729276,0.17161 -8.357921,-0.0286 -10.921458,-1.34211 z m 147.583263,0.53958 c -0.20582,-0.53855 -0.27984,-6.07234 -0.16454,-12.2973 l 0.20923,-11.31807 5.27242,-0.24026 c 9.25289,-0.42173 12.99013,0.38447 16.33397,3.52366 6.34335,5.95512 4.98393,16.02336 -2.66591,19.74406 -2.61435,1.27154 -4.67374,1.5672 -10.9167,1.5672 -5.60008,0 -7.79627,-0.26657 -8.06845,-0.97921 z M 43.577132,97.537897 c -3.567934,-2.41576 -5.410049,-5.95792 -5.410049,-10.40281 0,-4.92935 1.983095,-8.26404 6.187973,-10.4054 2.853068,-1.452968 4.535326,-1.70269 11.469123,-1.70269 h 8.125644 v 12.10809 12.10809 h -8.927059 c -8.01442,0 -9.184538,-0.17419 -11.445632,-1.70528 z M 191.99443,87.135087 v -12.10809 l 8.47356,0.01144 c 7.36703,0.01144 8.86149,0.233105 11.44438,1.70312 7.81943,4.44996 8.0642,15.64316 0.45477,20.79534 -2.2611,1.53091 -3.43122,1.70525 -11.44563,1.70525 h -8.92708 z M 44.671225,56.937587 C 36.44021,53.181827 35.814073,41.123622 43.577132,35.86744 c 2.261094,-1.530941 3.431212,-1.705268 11.445632,-1.705268 h 8.927059 v 12.108087 12.108086 l -8.096941,-0.01716 C 49.593285,58.34974 47.055961,58.025168 44.671225,56.937041 Z M 191.99443,46.270259 V 34.162172 h 8.92708 c 8.01441,0 9.18453,0.17447 11.44563,1.705268 7.60943,5.152185 7.36466,16.345387 -0.45477,20.795341 -2.58289,1.469904 -4.07735,1.692311 -11.44438,1.703122 l -8.47356,0.01144 z"/>
</svg>
