<?xml version="1.0" encoding="UTF-8" standalone="no"?>
<svg xmlns="http://www.w3.org/2000/svg" version="1.1" width="256" height="256">
  <path d="M 155.1171,121.62261 203.20317,100.877 c 3.73112,-1.609734 6.07004,-5.366131 5.86938,-9.424474 -0.20247,-4.058344 -2.90058,-7.566048 -6.77258,-8.799156 L 44.696508,32.458483 c -3.47136,-1.103207 -7.268042,-0.18104 -9.842667,2.394746 -2.575924,2.574614 -3.499284,6.371944 -2.394758,9.842646 L 82.654862,202.29791 c 1.232443,3.87197 4.74082,6.57063 8.799182,6.77257 4.058358,0.20259 7.814782,-2.13959 9.424486,-5.86934 l 20.74571,-48.08519 66.03184,66.03152 c 1.82657,1.82593 4.30314,2.85253 6.88622,2.85253 2.58308,0 5.06162,-1.02596 6.8869,-2.85253 l 19.71842,-19.71968 c 3.80318,-3.80315 3.80318,-9.97055 0,-13.77434 z"/>
</svg>
