<?xml version="1.0" encoding="UTF-8" standalone="no"?>
<svg xmlns="http://www.w3.org/2000/svg" version="1.1" width="256" height="256">
  <path d="m 106.90992,57.680179 c 0,-11.630862 9.46106,-21.09009 21.09009,-21.09009 11.62902,0 21.09008,9.459228 21.09008,21.09009 0,11.629027 -9.46106,21.090084 -21.09008,21.090084 -11.62904,0 -21.09009,-9.461057 -21.09009,-21.090084 z m 0,0"/>
  <path d="M 22.547733,22.06067 V 8.0000009 H 233.45227 V 22.06067 H 191.2721 v 29.884643 c 8.16467,2.911378 14.05884,10.642093 14.05884,19.7937 0,1.783449 -0.28748,3.486329 -0.70679,5.139774 l 25.69702,17.133178 -7.79846,11.698605 -25.70801,-17.138669 c -3.52112,2.638547 -7.84424,4.259034 -12.57385,4.259034 -5.67078,0 -10.80506,-2.276001 -14.599,-5.930789 l -20.80994,10.405885 c 0.10437,0.845948 0.25818,1.679076 0.25818,2.554321 v 42.182008 c 0,3.24646 -0.79834,6.28601 -2.11304,9.03442 l 14.1687,14.1687 c 2.75025,-1.31652 5.78797,-2.11303 9.03443,-2.11303 11.63086,0 21.09192,9.45923 21.09192,21.09009 0,11.27197 -8.91174,20.42907 -20.05005,20.98388 L 162.97864,248 l -13.71643,-3.07617 8.46314,-43.77319 c -5.20753,-3.84339 -8.63526,-9.97376 -8.63526,-16.9281 0,-3.24646 0.79834,-6.28602 2.11487,-9.03626 l -14.1687,-14.1687 c -2.75025,1.31653 -5.78979,2.11487 -9.03625,2.11487 -3.24646,0 -6.28602,-0.79834 -9.03626,-2.11487 l -14.16687,14.1687 c 1.3147,2.75024 2.11304,5.7898 2.11304,9.03626 0,6.95434 -3.4259,13.08471 -8.635259,16.9281 L 106.7378,244.92383 93.021366,248 84.777961,205.20642 c -11.136478,-0.55481 -20.048222,-9.71191 -20.048222,-20.98388 0,-11.63086 9.45923,-21.09009 21.090089,-21.09009 3.246459,0 6.286013,0.79651 9.034425,2.11303 l 14.168697,-14.1687 c -1.3147,-2.75024 -2.11303,-5.78979 -2.11303,-9.03625 V 99.860352 c 0,-0.875245 0.1538,-1.708373 0.25818,-2.556154 L 86.358159,86.900146 c -3.793945,3.654788 -8.926392,5.930789 -14.598998,5.930789 -4.729617,0 -9.052734,-1.620487 -12.573853,-4.259034 L 33.4773,105.70874 25.678837,94.010132 51.375858,76.878787 c -0.419311,-1.653445 -0.706786,-3.356325 -0.706786,-5.139774 0,-9.151607 5.894165,-16.882322 14.058839,-19.7937 V 22.06067 Z m 56.240845,29.884643 c 8.166506,2.911378 14.060672,10.642093 14.060672,19.7937 0,0.877079 -0.153811,1.710207 -0.258183,2.556155 l 20.809943,10.405884 c 3.79394,-3.654787 8.92639,-5.930789 14.599,-5.930789 5.6726,0 10.80505,2.276002 14.59899,5.930789 l 20.80994,-10.405884 c -0.10437,-0.845948 -0.25818,-1.679076 -0.25818,-2.556155 0,-9.151607 5.896,-16.882322 14.06067,-19.7937 V 22.06067 H 78.788578 Z m 0,0"/>
</svg>
