<?xml version="1.0" encoding="UTF-8" standalone="no"?>
<svg xmlns="http://www.w3.org/2000/svg" version="1.1" width="256" height="256">
  <path d="m 204.38766,17.346013 c -1.7947,-1.794684 -4.73229,-1.794684 -6.52698,0 l -66.59654,66.596159 c -1.7947,1.794685 -4.73229,1.794685 -6.52698,0 L 58.141899,17.346013 c -1.794695,-1.794684 -4.732286,-1.794684 -6.52698,0 L 17.346021,51.613428 c -1.794695,1.794684 -1.794695,4.732259 0,6.526943 l 66.596542,66.596159 c 1.794695,1.79468 1.794695,4.73226 0,6.52694 l -66.596542,66.59616 c -1.794695,1.79469 -1.794695,4.73226 0,6.52695 l 34.267612,34.26741 c 1.794695,1.79468 4.732286,1.79468 6.526981,0 l 66.596546,-66.59616 c 1.79469,-1.79468 4.73228,-1.79468 6.52698,0 l 66.59525,66.59487 c 1.7947,1.79469 4.73229,1.79469 6.52698,0 l 34.26762,-34.26741 c 1.79469,-1.79468 1.79469,-4.73226 0,-6.52694 l -66.59526,-66.59488 c -1.7947,-1.79468 -1.7947,-4.73226 0,-6.52694 l 66.59526,-66.594873 c 1.79469,-1.794685 1.79469,-4.732259 0,-6.526943 z"/>
</svg>
