<?xml version="1.0" encoding="UTF-8" standalone="no"?>
<svg xmlns="http://www.w3.org/2000/svg" version="1.1" width="256" height="256">
  <path d="m 208.02475,16.676465 c -20.92359,2.494454 -41.71531,8.621184 -60.88061,17.942567 -16.22018,7.877225 -28.30839,16.410885 -41.40761,29.189494 l -7.16501,7.001978 -8.439767,-1.050297 c -6.197954,-0.74396 -10.505752,-1.050296 -15.956435,-1.006534 -6.813353,0.04376 -7.824367,0.131287 -11.428851,1.225346 -7.252925,2.188118 -13.187136,6.12673 -17.890548,11.815837 -3.340741,4.0699 -27.209457,41.574244 -28.132557,44.199984 -2.28577,6.65188 1.011014,13.69762 7.560625,15.97326 1.362671,0.48139 15.077292,1.53168 33.319497,2.58198 4.57154,0.26257 6.461697,0.52515 6.901268,1.00653 0.395614,0.39387 0.967056,2.53822 1.318713,5.03268 1.142886,7.52712 3.20887,13.17247 6.945225,18.81781 7.252925,10.94059 17.670763,17.46118 31.4733,19.73683 2.32973,0.35009 4.65945,0.919 5.18694,1.2691 1.2308,0.78773 1.27475,0.91901 2.32973,16.14831 1.84619,25.38217 2.10994,26.87009 5.71442,30.32732 2.59347,2.53822 4.9232,3.32594 9.18704,3.06337 4.17593,-0.21882 2.98908,0.39386 21.97856,-12.03465 27.34133,-17.94257 31.20955,-21.26851 35.38548,-30.41484 3.3847,-7.39584 3.78031,-12.34099 2.28577,-27.83286 -0.6154,-6.30178 -1.14288,-11.90337 -1.14288,-12.38475 0,-0.61268 2.1539,-3.15089 6.06608,-7.13327 6.7694,-6.91445 11.03324,-11.8596 15.95643,-18.64276 16.70371,-22.88772 28.52817,-53.958993 31.82496,-83.804922 1.14288,-10.19663 1.27475,-16.542172 0.48353,-22.406329 -0.83519,-6.301779 -1.27476,-7.395838 -3.077,-7.964749 -4.52759,-1.444158 -18.94552,-1.794257 -28.3963,-0.656435 z m -30.63811,36.322758 c 14.8575,3.282177 25.80283,16.848509 25.80283,31.858998 0,9.365145 -3.6924,17.679989 -10.72554,24.200589 -7.16501,6.60811 -17.62681,9.93405 -26.63802,8.44613 -11.07719,-1.79425 -20.92359,-9.32138 -25.49513,-19.430486 -4.26384,-9.27762 -3.38469,-21.005933 2.24182,-30.283553 6.98918,-11.465738 21.67086,-17.723756 34.81404,-14.791678 z"/>
  <path d="m 45.60319,160.34829 c -2.461599,1.53169 -22.110431,21.61861 -22.462088,22.93148 -0.659357,2.75703 0.483528,5.60158 3.076998,7.48336 1.011014,0.78773 1.978071,0.91901 6.329826,1.0503 2.813255,0.0875 5.274854,0.30634 5.450682,0.48139 0.219786,0.17504 -1.450585,5.60158 -3.604483,12.07841 -4.747369,14.179 -4.923198,15.53563 -2.285771,18.16138 2.90117,2.93207 3.340741,2.88831 17.275149,-1.70674 6.681482,-2.18811 12.483822,-3.98237 12.879436,-3.98237 0.571442,0 0.703314,0.56891 0.703314,2.93208 0.04396,7.04574 1.011013,9.759 4.044055,11.33445 1.582456,0.83148 4.747369,0.78772 6.066082,-0.0875 2.153899,-1.44415 20.747761,-20.13068 21.582946,-21.70613 0.439571,-0.91901 0.835185,-2.49445 0.835185,-3.63227 0,-2.75703 -2.065984,-4.98891 -5.802339,-6.34554 -7.252925,-2.62575 -14.373979,-7.04574 -19.956533,-12.34099 -5.80234,-5.55782 -10.154095,-11.8596 -12.879436,-18.64277 -2.461599,-6.0392 -3.164913,-7.13326 -5.099026,-8.00851 -2.28577,-1.05029 -4.483626,-1.05029 -6.153997,0 z"/>
</svg>
