<?xml version="1.0" encoding="UTF-8" standalone="no"?>
<svg xmlns="http://www.w3.org/2000/svg" version="1.1" width="256" height="256">
  <path d="m 90.66853,211.78352 c 0,-26.4986 -0.04672,-28.22963 -0.766356,-28.4324 -0.421497,-0.11868 -2.244355,-0.44209 -4.050784,-0.71849 -6.718205,-1.02791 -14.692018,-3.53677 -21.896111,-6.88932 C 41.401624,165.24752 24.448303,144.49758 18.224621,119.77149 15.965241,110.79519 15.314307,95.954875 16.794429,87.165168 19.914509,68.636487 27.66645,53.41701 40.541718,40.541747 53.416984,27.666446 68.636496,19.914521 87.165161,16.794408 c 8.789719,-1.480101 23.630059,-0.829153 32.606349,1.430211 12.99147,3.270009 25.18159,9.64989 35.76773,18.719547 13.6401,11.686148 24.35887,31.034948 27.09341,48.9072 0.2764,1.806425 0.59971,3.629292 0.71847,4.050784 0.20277,0.719698 1.93379,0.766375 28.43242,0.766375 H 240 V 165.33426 240 H 165.33428 90.66853 Z m 130.50083,-46.6682 v -56.05406 h -18.80114 c -21.20656,0 -18.98493,-0.42316 -19.54295,3.72234 -2.41768,17.96047 -12.89456,37.14803 -27.21167,49.83606 -11.45005,10.14716 -26.50725,17.49173 -40.64038,19.82343 -2.16772,0.35754 -4.3847,0.74729 -4.92663,0.86593 l -0.98533,0.21581 v 18.82231 18.82231 h 56.05406 56.05404 z M 90.66853,127.45399 V 90.668525 h 36.83594 36.83592 l -0.31155,-2.493354 c -0.73375,-5.872932 -4.83442,-16.610646 -8.6641,-22.687144 -4.39352,-6.971187 -11.98868,-14.989493 -18.33909,-19.360781 -6.89178,-4.74395 -15.7144,-8.496265 -24.461,-10.403376 -4.55677,-0.993563 -16.179369,-1.378734 -20.957251,-0.694489 -30.024923,4.299893 -52.27812,26.553109 -56.578003,56.578017 -0.684244,4.77789 -0.299104,16.400462 0.694461,20.957252 1.907129,8.74658 5.65944,17.56921 10.403375,24.46099 4.253745,6.17964 12.134721,13.70079 18.965839,18.09989 6.61626,4.26078 19.144646,8.928 24.371173,9.07911 l 1.204286,0.034 z m 27.62567,35.01263 c 5.77084,-1.70071 13.2279,-5.25687 18.45665,-8.80157 5.28907,-3.58556 13.32862,-11.62511 16.91423,-16.91418 5.0169,-7.40039 9.62954,-18.62442 10.42086,-25.35727 l 0.27489,-2.339 -27.54031,0.11263 -27.5403,0.11263 -0.11278,27.54033 -0.11278,27.54028 2.33895,-0.27477 c 1.28643,-0.15118 4.3917,-0.87991 6.90059,-1.6193 z"/>
</svg>
