<?xml version="1.0" encoding="UTF-8" standalone="no"?>
<svg xmlns="http://www.w3.org/2000/svg" version="1.1" width="256" height="256">
  <path d="m 128,31.999999 c -68.583425,0 -96.000001,25.606531 -96.000001,89.593471 v 51.19347 L 59.416575,185.6 V 224 H 196.56243 V 185.6 L 224,172.80653 V 121.59347 C 224,57.60653 196.58343,31.999999 128,31.999999 M 79.989503,108.8 c 17.046141,0 30.859397,12.89143 30.859397,28.8 0,15.90857 -13.813256,28.8 -30.859397,28.8 -17.046141,0 -30.859392,-12.89143 -30.859392,-28.8 0,-15.90857 13.813251,-28.8 30.859392,-28.8 m 96.020997,0 c 17.04614,0 30.85939,12.89143 30.85939,28.8 0,15.90857 -13.81325,28.8 -30.85939,28.8 -17.04614,0 -30.8594,-12.89143 -30.8594,-28.8 0,-15.90857 13.81326,-28.8 30.8594,-28.8 v 0"/>
</svg>
