<?xml version="1.0" encoding="UTF-8" standalone="no"?>
<svg xmlns="http://www.w3.org/2000/svg" version="1.1" width="256" height="256">
  <path d="M 139.4355,122.51429 V 132.64 h 19.29143 c 5.05142,0 9.16571,4.11429 9.16571,9.16571 v 12.02286 L 185.9955,160.16 c 2.35428,0.82286 3.61143,3.40571 2.76571,5.76 -0.66286,1.85143 -2.4,3.04 -4.27428,3.04 -0.50286,0 -1.00572,-0.0914 -1.48572,-0.25143 l -15.10857,-5.30286 v 6.78858 c 0,4.75428 -3.72571,8.77714 -8.45714,9.14285 l -20,1.50857 v 10.12572 h 19.29143 c 5.05142,0 9.16571,4.11428 9.16571,9.16571 V 212.16 l 18.10286,6.35429 c 2.35428,0.82285 3.61143,3.40571 2.76571,5.76 -0.66286,1.87428 -2.4,3.04 -4.27428,3.04 -0.50286,0 -1.00572,-0.0914 -1.48572,-0.25143 l -15.08571,-5.34857 v 6.78857 c 0,4.75428 -3.72572,8.77714 -8.48,9.14285 l -30.67429,2.33143 C 128.53264,240 128.30407,240 128.0755,240 c -0.22857,0 -0.45715,0 -0.68572,-0.0229 l -30.674283,-2.33143 c -4.754286,-0.36571 -8.48,-4.36571 -8.48,-9.14285 v -6.78857 l -15.108572,5.30285 c -0.502857,0.18286 -1.005714,0.25143 -1.485714,0.25143 -1.874286,0 -3.611429,-1.16571 -4.274286,-3.04 -0.822857,-2.35428 0.411429,-4.93714 2.765714,-5.76 l 18.080001,-6.35428 v -12.02286 c 0,-5.05143 4.114285,-9.16572 9.165714,-9.16572 H 116.66978 V 180.8 l -19.999997,-1.50857 c -4.754286,-0.36572 -8.480001,-4.36572 -8.480001,-9.14286 V 163.36 l -15.108571,5.30286 c -0.502857,0.18285 -1.005714,0.25143 -1.485714,0.25143 -1.874286,0 -3.611429,-1.16572 -4.274286,-3.04 -0.822857,-2.35429 0.411428,-4.93715 2.765714,-5.76 l 18.08,-6.33143 V 141.76 c 0,-5.05143 4.114286,-9.16571 9.165715,-9.16571 h 19.29143 v -10.08 l -20.000002,-1.50858 c -4.754286,-0.36571 -8.48,-4.36571 -8.48,-9.14285 v -6.78857 l -15.108571,5.30285 c -0.502857,0.18286 -1.005715,0.25143 -1.485715,0.25143 -1.874285,0 -3.611428,-1.16571 -4.274285,-3.04 -0.822858,-2.35428 0.411428,-4.93714 2.765714,-5.76 l 18.08,-6.331427 V 83.474285 c 0,-5.051428 4.114286,-9.165714 9.165714,-9.165714 H 116.57835 V 64.182857 L 96.578354,62.674285 c -4.754286,-0.365714 -8.48,-4.365714 -8.48,-9.142857 v -6.788571 l -15.108572,5.302857 c -0.502857,0.182857 -1.005714,0.251428 -1.485714,0.251428 -1.874286,0 -3.611429,-1.165714 -4.274286,-3.04 -0.822857,-2.354285 0.411429,-4.937143 2.765715,-5.76 l 18.08,-6.354285 V 25.165714 c 0,-5.051429 4.114285,-9.165715 9.165714,-9.165715 h 61.348569 c 5.05143,0 9.16572,4.114286 9.16572,9.165715 v 12.022857 l 18.10285,6.354286 c 2.35429,0.822857 3.61143,3.405714 2.76572,5.76 -0.66286,1.851428 -2.4,3.04 -4.27429,3.04 -0.50285,0 -1.00571,-0.09143 -1.48571,-0.251429 L 167.7555,46.788571 v 6.788571 c 0,4.754286 -3.72572,8.777143 -8.45715,9.142858 l -20,1.508571 v 10.125714 h 19.29143 c 5.05143,0 9.16572,4.114286 9.16572,9.165715 v 12.022857 l 18.10285,6.354283 c 2.35429,0.82286 3.61143,3.40572 2.76572,5.76 -0.66286,1.85143 -2.4,3.04 -4.27429,3.04 -0.50285,0 -1.00571,-0.0914 -1.48571,-0.25143 l -15.10857,-5.30285 v 6.78857 c 0,4.75428 -3.72572,8.77714 -8.45715,9.14286 z"/>
</svg>
