<?xml version="1.0" encoding="UTF-8" standalone="no"?>
<svg xmlns="http://www.w3.org/2000/svg" version="1.1" width="256" height="256">
  <path d="m 79.15175,56.963273 c -38.216283,0 -69.4849592,31.71802 -69.4849592,70.484497 -8e-7,38.76639 31.2686762,70.48442 69.4849592,70.48442 h 98.09467 c 38.21628,0 69.48284,-31.71803 69.48284,-70.48442 0,-38.766477 -31.26656,-70.484497 -69.48284,-70.484497 z m 0,20.730478 A 49.04764,49.753711 0 0 1 128.19908,127.44777 49.04764,49.753711 0 0 1 79.15175,177.20171 49.04764,49.753711 0 0 1 30.102295,127.44777 49.04764,49.753711 0 0 1 79.15175,77.693751 Z"/>
</svg>