<?xml version="1.0" encoding="UTF-8" standalone="no"?>
<svg xmlns="http://www.w3.org/2000/svg" version="1.1" width="256" height="256">
  <path d="M 97.472671,204.34947 V 92.361935 c 0,-1.495825 -0.47367,-2.692486 -1.44596,-3.664774 -0.972289,-0.972286 -2.16895,-1.421035 -3.66477,-1.445966 H 82.19032 c -1.495827,0 -2.692488,0.47368 -3.664776,1.445966 -0.947356,0.947357 -1.421036,2.168949 -1.445965,3.664774 V 204.34947 c 0,1.49583 0.473678,2.71742 1.445965,3.66478 0.947357,0.94735 2.168949,1.42103 3.664776,1.44596 h 10.171622 c 1.495819,0 2.692481,-0.47367 3.664771,-1.44596 0.94735,-0.97229 1.44596,-2.19388 1.445958,-3.66478 z m 40.711409,0 V 92.361935 c 0,-1.495825 -0.47368,-2.692486 -1.44596,-3.664774 -0.94735,-0.947356 -2.16895,-1.421035 -3.66478,-1.445966 h -10.17161 c -1.49583,0 -2.6925,0.47368 -3.66478,1.445966 -0.94736,0.947357 -1.42104,2.168949 -1.44596,3.664774 V 204.34947 c 0,1.49583 0.47368,2.71742 1.44596,3.66478 0.94735,0.94735 2.16895,1.42103 3.66478,1.44596 h 10.17161 c 1.49583,0 2.6925,-0.47367 3.66478,-1.44596 0.97228,-0.97229 1.44596,-2.19388 1.44596,-3.66478 z m 40.73635,0 V 92.361935 c 0,-1.495825 -0.47368,-2.692486 -1.44597,-3.664774 -0.94736,-0.947356 -2.16895,-1.421035 -3.66478,-1.445966 h -10.17162 c -1.49583,0 -2.69249,0.47368 -3.66477,1.445966 -0.94735,0.947357 -1.42103,2.168949 -1.44596,3.664774 V 204.34947 c 0,1.49583 0.47369,2.71742 1.44596,3.66478 0.94736,0.94735 2.16894,1.42103 3.66477,1.44596 h 10.17162 c 1.49583,0 2.69249,-0.47367 3.66478,-1.44596 0.94736,-0.97229 1.42104,-2.19388 1.44597,-3.66478 z M 92.386873,46.539788 H 163.63807 L 156.00936,27.94168 c -0.74793,-0.947355 -1.64542,-1.545687 -2.71742,-1.745131 h -50.40935 c -1.04707,0.199444 -1.96951,0.797776 -2.71741,1.745131 z M 240,51.650528 v 10.17162 c 0,1.495826 -0.47367,2.692486 -1.44596,3.664774 -0.94735,0.947356 -2.16896,1.421035 -3.66478,1.445966 H 219.60691 V 217.71219 c 0,8.80044 -2.49305,16.40423 -7.47914,22.83628 -4.98609,6.40713 -10.96939,9.62315 -17.97484,9.62315 H 61.84708 c -7.005453,0 -12.988759,-3.09138 -17.974848,-9.29906 -4.986086,-6.20768 -7.47913,-13.71174 -7.47913,-22.51218 V 66.907957 h -15.28236 c -1.495827,0 -2.692487,-0.473679 -3.664774,-1.445966 -0.947357,-0.947357 -1.421035,-2.168948 -1.445966,-3.664773 V 51.625597 c 0,-1.495826 0.473678,-2.692487 1.445966,-3.664774 0.947356,-0.947357 2.168947,-1.421035 3.664774,-1.445966 H 70.273568 L 81.417475,19.96394 c 1.595548,-3.91408 4.462547,-7.254759 8.601006,-10.0220372 4.11352,-2.7423486 8.301836,-4.1135225 12.540009,-4.1135225 h 50.90795 c 4.23818,0 8.42649,1.3711739 12.56495,4.1384527 4.13845,2.767279 7.00544,6.083027 8.601,10.022038 l 11.14391,26.550917 h 49.16282 c 1.49583,0 2.69249,0.473678 3.66478,1.445966 0.89749,0.947356 1.3961,2.168947 1.3961,3.664774 z"/>
</svg>
