<?xml version="1.0" encoding="UTF-8" standalone="no"?>
<svg xmlns="http://www.w3.org/2000/svg" version="1.1" width="256" height="256">
  <path d="m 229.49958,189.18787 v -29.29234 c 0,-17.71694 -11.70178,-44.05223 -44.05223,-44.05223 h -25.52654 c -18.04549,0 -19.68829,-8.84583 -19.78939,-13.39511 V 66.761586 c 10.89301,-4.726201 18.50042,-15.543387 18.50042,-28.155013 0,-16.908172 -13.72367,-30.631845 -30.63184,-30.631845 -16.90817,0 -30.63184,13.723673 -30.63184,30.631845 0,12.611626 7.63268,23.428812 18.50042,28.155013 v 35.686604 c 0,3.31086 -0.96041,13.39511 -19.789386,13.39511 H 70.552653 c -32.299917,0 -44.052233,26.33529 -44.052233,44.05223 v 29.29234 c -10.893008,4.70092 -18.5004205,15.54338 -18.5004205,28.15501 0,16.90817 13.7236725,30.63184 30.6318435,30.63184 16.908173,0 30.631846,-13.72367 30.631846,-30.63184 0,-12.61163 -7.632687,-23.42881 -18.500422,-28.15501 v -29.29234 c 0,-3.31087 0.960405,-19.78939 19.789386,-19.78939 h 25.526541 c 7.759046,0 14.304966,-1.18786 19.789386,-3.15922 v 52.29149 c -10.89302,4.70093 -18.50042,15.54339 -18.50042,28.15502 0,16.90817 13.72367,30.63184 30.63184,30.63184 16.90817,0 30.63184,-13.72367 30.63184,-30.63184 0,-12.61163 -7.63269,-23.42881 -18.50042,-28.15502 v -52.29149 c 5.48442,1.97136 12.03033,3.15922 19.78939,3.15922 h 25.52654 c 18.04549,0 19.68829,15.21483 19.78938,19.78939 v 29.29234 c -10.89301,4.70092 -18.50043,15.54338 -18.50043,28.15501 0,16.90817 13.72368,30.63184 30.63186,30.63184 16.90816,0 30.63184,-13.72367 30.63184,-30.63184 0,-12.61163 -7.63269,-23.42881 -18.50042,-28.15501 z M 56.29823,217.34288 c 0,9.75568 -7.910699,17.69166 -17.69166,17.69166 -9.780961,0 -17.69166,-7.9107 -17.69166,-17.69166 0,-9.75569 7.910699,-17.69166 17.69166,-17.69166 9.780961,0 17.69166,7.93597 17.69166,17.69166 z M 110.30834,38.606573 c 0,-9.755687 7.9107,-17.69166 17.69166,-17.69166 9.75568,0 17.69166,7.910699 17.69166,17.69166 0,9.755687 -7.9107,17.69166 -17.69166,17.69166 -9.78096,-0.02527 -17.69166,-7.935973 -17.69166,-17.69166 z m 35.35805,178.736307 c 0,9.75568 -7.91071,17.69166 -17.69166,17.69166 -9.75569,0 -17.69167,-7.9107 -17.69167,-17.69166 0,-9.75569 7.91071,-17.69166 17.69167,-17.69166 9.78095,0 17.69166,7.93597 17.69166,17.69166 z m 71.70177,17.69166 c -9.75569,0 -17.69167,-7.9107 -17.69167,-17.69166 0,-9.75569 7.91071,-17.69166 17.69167,-17.69166 9.75568,0 17.69165,7.9107 17.69165,17.69166 -0.0253,9.75568 -7.93597,17.69166 -17.69165,17.69166 z"/>
</svg>
