<?xml version="1.0" encoding="UTF-8" standalone="no"?>
<svg xmlns="http://www.w3.org/2000/svg" version="1.1" width="256" height="256">
  <path d="m 248,128 c 0,2.32653 -0.85714,4.33469 -2.54694,6.02449 l -34.28571,34.28571 c -1.6898,1.6898 -3.69796,2.54694 -6.02449,2.54694 -2.32653,0 -4.3347,-0.85714 -6.02449,-2.54694 -1.6898,-1.68979 -2.54694,-3.69795 -2.54694,-6.02449 v -17.14285 h -51.42857 v 51.42857 h 17.14285 c 2.32654,0 4.3347,0.85714 6.02449,2.54694 1.6898,1.68979 2.54694,3.69796 2.54694,6.02449 0,2.32653 -0.85714,4.33469 -2.54694,6.02449 l -34.28571,34.28571 C 132.33469,247.14286 130.32653,248 128,248 c -2.32653,0 -4.33469,-0.85714 -6.02449,-2.54694 L 87.689796,211.16735 C 86,209.47755 85.142857,207.46939 85.142857,205.14286 c 0,-2.32653 0.857143,-4.3347 2.546939,-6.02449 1.689796,-1.6898 3.697959,-2.54694 6.02449,-2.54694 H 110.85714 V 145.14286 H 59.428571 v 17.14285 c 0,2.32654 -0.857143,4.3347 -2.546939,6.02449 -1.689796,1.6898 -3.697959,2.54694 -6.024489,2.54694 -2.326531,0 -4.334694,-0.85714 -6.02449,-2.54694 L 10.546938,134.02449 C 8.8571425,132.33469 7.9999996,130.32653 7.9999996,128 c 0,-2.32653 0.8571429,-4.33469 2.5469384,-6.02449 L 44.832653,87.689796 C 46.522449,86 48.530612,85.142857 50.857143,85.142857 c 2.32653,0 4.334693,0.857143 6.024489,2.546939 1.689796,1.689796 2.546939,3.697959 2.546939,6.02449 V 110.85714 H 110.85714 V 59.428571 H 93.714286 c -2.326531,0 -4.334694,-0.857143 -6.02449,-2.546939 C 86,55.191836 85.142857,53.183673 85.142857,50.857143 c 0,-2.326531 0.857143,-4.334694 2.546939,-6.02449 L 121.97551,10.546938 c 1.6898,-1.6897955 3.69796,-2.5469384 6.02449,-2.5469384 2.32653,0 4.33469,0.8571429 6.02449,2.5469384 l 34.28571,34.285715 c 1.6898,1.689796 2.54694,3.697959 2.54694,6.02449 0,2.32653 -0.85714,4.334693 -2.54694,6.024489 -1.68979,1.689796 -3.69795,2.546939 -6.02449,2.546939 h -17.14285 v 51.428569 h 51.42857 V 93.714286 c 0,-2.326531 0.85714,-4.334694 2.54694,-6.02449 1.68979,-1.689796 3.69796,-2.546939 6.02449,-2.546939 2.32653,0 4.33469,0.857143 6.02449,2.546939 l 34.28571,34.285714 C 247.14286,123.66531 248,125.67347 248,128 Z"/>
</svg>
