<?xml version="1.0" encoding="utf-8"?>
<svg width="100%" height="100%" viewBox="0 0 64 64"
     xmlns="http://www.w3.org/2000/svg">
<style type="text/css">
<![CDATA[
* {fill: none; stroke: #aaa; stroke-width: 0.03; stroke-linejoin: round;}
]]>
</style>
<g transform="translate(32, 32) scale(48, 48)" class="curve">
<path d="M -0.4133,0.0006 L -0.4422,0.0584 -0.4133,-0.1436 -0.5,0.0873 -0.4133,0.0006 -0.3845,0.1162 -0.4133,-0.1436 -0.3267,0.0873 -0.4133,0.0006"/>
<path d="M -0.4133,0.0006 C -0.4133,0.1111 -0.3666,0.2262 -0.2865,0.3069 -0.2065,0.3876 -0.0933,0.4339 0.0199,0.4338 0.1332,0.4336 0.2464,0.387 0.3264,0.307 0.4064,0.2271 0.4532,0.1139 0.4531,0.0007 0.4531,-0.1124 0.4061,-0.2255 0.3263,-0.3057 0.2464,-0.3858 0.1336,-0.4331 0.0199,-0.4326 -0.0938,-0.4322 -0.2084,-0.3841 -0.2864,-0.3057"/>
</g>
</svg>