<?xml version="1.0" encoding="utf-8"?>
<svg width="100%" height="100%" viewBox="0 0 64 64"
     xmlns="http://www.w3.org/2000/svg">
<style type="text/css">
<![CDATA[
* {fill: none; stroke: #aaa; stroke-width: 0.03; stroke-linejoin: round;}
]]>
</style>
<g transform="translate(32, 32) scale(48, 48)" class="curve">
<path d="M -0.5,0.1692 L -0.3855,-0.0294 -0.3451,0.0211 -0.5,0.1692 -0.3451,0.0211 -0.3216,0.0446 -0.5,0.1692 -0.3216,0.0446 -0.362,-0.0059 -0.5,0.1692 -0.3855,-0.0294 -0.362,-0.0059 -0.5,0.1692 -0.3283,-0.0227 -0.2475,-0.0934 -0.1515,-0.1439 -0.0505,-0.1692 0.0505,-0.1692 0.1515,-0.1439 0.2475,-0.0934 0.3283,-0.0227 0.5,0.1692 0.3216,0.0211 0.362,-0.0294 0.5,0.1692 0.362,-0.0294 0.3855,-0.0059 0.5,0.1692 0.3451,0.0446 0.3855,-0.0059 0.3451,0.0446 0.3216,0.0211"/>
</g>
</svg>