<?xml version="1.0" encoding="utf-8"?>
<svg width="100%" height="100%" viewBox="0 0 64 64"
     xmlns="http://www.w3.org/2000/svg">
<style type="text/css">
<![CDATA[
* {fill: none; stroke: #aaa; stroke-width: 0.03; stroke-linejoin: round;}
]]>
</style>
<g transform="translate(32, 32) scale(48, 48)" class="curve">
<path d="M 0.0112,0.0112 L -0.4777,0.0112 -0.437,0.2013 -0.3283,0.3506 -0.179,0.4593 0.0112,0.5 0.0112,0.0112 0.0112,0.5 0.2013,0.4593 0.3506,0.3506 0.4593,0.2013 0.5,0.0112 0.0112,0.0112 0.5,0.0112 0.4593,-0.179 0.3506,-0.3283 0.2013,-0.437 0.0112,-0.4777 0.0112,0.0112 0.0112,-0.4777 -0.179,-0.437 -0.3283,-0.3283 -0.437,-0.179 -0.4777,0.0112 0.0112,0.0112 -0.3099,-0.3099 -0.3099,-0.1198 -0.441,-0.441 -0.3099,-0.5 -0.3099,-0.3099 -0.1198,-0.3099 -0.441,-0.441 -0.5,-0.3099 -0.3099,-0.1198 -0.1198,-0.3099 -0.3099,-0.5 -0.5,-0.3099 -0.3099,-0.3099"/>
</g>
</svg>