<?xml version="1.0" encoding="utf-8"?>
<svg width="100%" height="100%" viewBox="0 0 64 64"
     xmlns="http://www.w3.org/2000/svg">
<style type="text/css">
<![CDATA[
* {fill: none; stroke: #aaa; stroke-width: 0.03; stroke-linejoin: round;}
]]>
</style>
<g transform="translate(32, 32) scale(48, 48)" class="curve">
<path d="M 0.0038,0.0038 L 0.0266,0.0046 0.0727,0.0068 0.1215,0.0104 0.1704,0.015 0.2194,0.0205 0.2194,0.0931 0.3162,0.0586 0.4103,0.0277 0.5,0.0 0.4103,-0.0691 0.3162,-0.1349 0.2194,-0.1973 0.2194,-0.1247 0.1704,-0.1302 0.1215,-0.1348 0.0727,-0.1384 0.0266,-0.1406 0.0038,-0.1413"/>
<path d="M -0.1413,-0.1413 L -0.1626,-0.1406 -0.2042,-0.1384 -0.2459,-0.1348 -0.2857,-0.1302 -0.3235,-0.1247 -0.3235,-0.1973 -0.3925,-0.1349 -0.4517,-0.0691 -0.5,0.0 -0.4517,0.0277 -0.3925,0.0586 -0.3235,0.0931 -0.3235,0.0205 -0.2857,0.015 -0.2459,0.0104 -0.2042,0.0068 -0.1626,0.0046 -0.1413,0.0038"/>
<path d="M 0.0038,-0.1413 L 0.0046,-0.1626 0.0068,-0.2042 0.0104,-0.2459 0.015,-0.2857 0.0205,-0.3235 0.0931,-0.3235 0.0586,-0.3925 0.0277,-0.4517 -0.0,-0.5 -0.0691,-0.4517 -0.1349,-0.3925 -0.1973,-0.3235 -0.1247,-0.3235 -0.1302,-0.2857 -0.1348,-0.2459 -0.1384,-0.2042 -0.1406,-0.1626 -0.1413,-0.1413"/>
<path d="M -0.1413,0.0038 L -0.1406,0.0266 -0.1384,0.0727 -0.1348,0.1215 -0.1302,0.1704 -0.1247,0.2194 -0.1973,0.2194 -0.1349,0.3162 -0.0691,0.4103 0.0,0.5 0.0277,0.4103 0.0586,0.3162 0.0931,0.2194 0.0205,0.2194 0.015,0.1704 0.0104,0.1215 0.0068,0.0727 0.0046,0.0266 0.0038,0.0038"/>
</g>
</svg>