<?xml version="1.0" encoding="utf-8"?>
<svg width="100%" height="100%" viewBox="0 0 64 64"
     xmlns="http://www.w3.org/2000/svg">
<style type="text/css">
<![CDATA[
* {fill: none; stroke: #aaa; stroke-width: 0.03; stroke-linejoin: round;}
]]>
</style>
<g transform="translate(32, 32) scale(48, 48)" class="curve">
<path d="M 0.0584,-0.3312 L 0.0584,-0.4416 0.1726,-0.4261 0.279,-0.382 0.3707,-0.3122 0.4405,-0.2206 0.4846,-0.1142 0.5,0.0 0.4846,0.1142 0.4405,0.2206 0.3707,0.3122 0.279,0.382 0.1726,0.4261 0.0584,0.4416 -0.0557,0.4261 -0.1622,0.382 -0.2538,0.3122 -0.3236,0.2206 -0.3677,0.1142 -0.3831,0.0 -0.5,0.0 -0.3257,-0.3486 -0.1514,0.0 -0.2727,0.0 -0.2612,0.0856 -0.2281,0.1654 -0.1757,0.2342 -0.107,0.2865 -0.0272,0.3196 0.0584,0.3312 0.1441,0.3196 0.2239,0.2865 0.2926,0.2342 0.345,0.1654 0.378,0.0856 0.3896,0.0 0.378,-0.0856 0.345,-0.1654 0.2926,-0.2342 0.2239,-0.2865 0.1441,-0.3196 Z"/>
</g>
</svg>