<?xml version="1.0" encoding="utf-8"?>
<svg width="100%" height="100%" viewBox="0 0 64 64"
     xmlns="http://www.w3.org/2000/svg">
<style type="text/css">
<![CDATA[
* {fill: none; stroke: #aaa; stroke-width: 0.03; stroke-linejoin: round;}
]]>
</style>
<g transform="translate(32, 32) scale(48, 48)" class="curve">
<path d="M -0.25,0.0 L -0.285,-0.09 -0.375,-0.125 -0.465,-0.09 -0.5,0.0 -0.465,0.09 -0.375,0.125 -0.285,0.09 -0.25,0.0 -0.285,0.09 -0.465,-0.09 -0.5,0.0 -0.465,0.09 -0.285,-0.09 -0.25,0.0 0.0,0.0 0.25,0.0 0.285,0.09 0.375,0.125 0.465,0.09 0.5,0.0 0.465,-0.09 0.375,-0.125 0.285,-0.09 0.25,0.0 0.285,0.09 0.465,-0.09 0.5,0.0 0.465,0.09 0.285,-0.09 0.25,0.0 0.0,0.0 0.0,0.25 -0.09,0.285 -0.125,0.375 -0.09,0.465 0.0,0.5 0.09,0.465 0.125,0.375 0.09,0.285 0.0,0.25 0.09,0.285 -0.09,0.465 0.0,0.5 0.09,0.465 -0.09,0.285 0.0,0.25 -0.0,-0.25 -0.09,-0.285 -0.125,-0.375 -0.09,-0.465 -0.0,-0.5 0.09,-0.465 0.125,-0.375 0.09,-0.285 -0.0,-0.25 0.09,-0.285 -0.09,-0.465 -0.0,-0.5 0.09,-0.465 -0.09,-0.285"/>
</g>
</svg>