<?xml version="1.0" encoding="utf-8"?>
<svg width="100%" height="100%" viewBox="0 0 64 64"
     xmlns="http://www.w3.org/2000/svg">
<style type="text/css">
<![CDATA[
* {fill: none; stroke: #aaa; stroke-width: 0.03; stroke-linejoin: round;}
]]>
</style>
<g transform="translate(32, 32) scale(48, 48)" class="curve">
<path d="M 0.0,0.0 L 0.3,0.0 0.3667,-0.0333 0.5,0.0 0.4333,0.0333 0.3,0.0 0.4,0.1 0.5,0.0 0.4,-0.1 0.3667,-0.0333 0.4,0.1 0.4333,0.0333 0.4,-0.1 0.3,0.0 0.0,0.0 -0.3,0.0 -0.4333,-0.0333 -0.5,0.0 -0.3667,0.0333 -0.3,0.0 -0.4,0.1 -0.5,0.0 -0.4,-0.1 -0.4333,-0.0333 -0.4,0.1 -0.3667,0.0333 -0.4,-0.1 -0.3,0.0 0.0,0.0 -0.0999,-0.0999 -0.1332,-0.2332 -0.1665,-0.1665 -0.1332,-0.0332 -0.0999,-0.0999 -0.2332,-0.1332 -0.1665,-0.1665 -0.0332,-0.1332 -0.1332,-0.0332 -0.2332,-0.1332 -0.1332,-0.2332 -0.0332,-0.1332 -0.0999,-0.0999 0.0,0.0 0.0999,0.0999 0.1332,0.0332 0.1665,0.1665 0.1332,0.2332 0.0999,0.0999 0.0332,0.1332 0.1665,0.1665 0.2332,0.1332 0.1332,0.0332 0.0332,0.1332 0.1332,0.2332 0.2332,0.1332 0.0999,0.0999 0.0,0.0 -0.0,-0.3 -0.0333,-0.4333 -0.0,-0.5 0.0333,-0.3667 -0.0,-0.3 -0.1,-0.4 -0.0,-0.5 0.1,-0.4 -0.0333,-0.4333 -0.1,-0.4 0.0333,-0.3667 0.1,-0.4 -0.0,-0.3 0.0,0.0 0.0,0.3 -0.0333,0.3667 0.0,0.5 0.0333,0.4333 0.0,0.3 -0.1,0.4 0.0,0.5 0.1,0.4 -0.0333,0.3667 -0.1,0.4 0.0333,0.4333 0.1,0.4 0.0,0.3"/>
</g>
</svg>