<?xml version="1.0" encoding="utf-8"?>
<svg width="100%" height="100%" viewBox="0 0 64 64"
     xmlns="http://www.w3.org/2000/svg">
<style type="text/css">
<![CDATA[
* {fill: none; stroke: #aaa; stroke-width: 0.03; stroke-linejoin: round;}
]]>
</style>
<g transform="translate(32, 32) scale(48, 48)" class="curve">
<path d="M -0.1155,-0.4625 C -0.2062,-0.4625 -0.2969,-0.4251 -0.361,-0.361 -0.4251,-0.2969 -0.4625,-0.2062 -0.4625,-0.1155 -0.4625,-0.0249 -0.4251,0.0658 -0.361,0.1299 -0.2969,0.194 -0.2062,0.2314 -0.1155,0.2314 -0.0249,0.2314 0.0658,0.194 0.1299,0.1299 0.194,0.0658 0.2314,-0.0249 0.2314,-0.1155 0.2314,-0.2062 0.194,-0.2969 0.1299,-0.361 0.0658,-0.4251 -0.0249,-0.4625 -0.1155,-0.4625"/>
<path d="M 0.1155,-0.2314 C 0.0249,-0.2314 -0.0658,-0.194 -0.1299,-0.1299 -0.194,-0.0658 -0.2314,0.0249 -0.2314,0.1155 -0.2314,0.2062 -0.194,0.2969 -0.1299,0.361 -0.0658,0.4251 0.0249,0.4625 0.1155,0.4625 0.2062,0.4625 0.2969,0.4251 0.361,0.361 0.4251,0.2969 0.4625,0.2062 0.4625,0.1155 0.4625,0.0249 0.4251,-0.0658 0.361,-0.1299 0.2969,-0.194 0.2062,-0.2314 0.1155,-0.2314"/>
<path d="M 0.4625,0.1155 L 0.2314,-0.1155"/>
<path d="M 0.1155,0.4625 L -0.1155,0.2314"/>
<path d="M -0.2314,0.1155 L -0.4625,-0.1155"/>
<path d="M 0.1155,-0.2314 L -0.1155,-0.4625"/>
</g>
</svg>