<?xml version="1.0" encoding="utf-8"?>
<svg width="100%" height="100%" viewBox="0 0 64 64"
     xmlns="http://www.w3.org/2000/svg">
<style type="text/css">
<![CDATA[
* {fill: none; stroke: #aaa; stroke-width: 0.03; stroke-linejoin: round;}
]]>
</style>
<g transform="translate(32, 32) scale(48, 48)" class="curve">
<path d="M -0.5,0.0068 C -0.5,0.0068 -0.3403,-0.1071 -0.2002,-0.164 -0.0602,-0.2209 0.0602,-0.2209 0.1736,-0.183 0.2871,-0.145 0.3935,-0.0691 0.4468,-0.0312 0.5,0.0068 0.5,0.0068 0.4468,0.0447 0.3935,0.0827 0.2871,0.1586 0.1748,0.1965 0.0626,0.2345 -0.0553,0.2345 -0.196,0.1776 -0.3366,0.1206 -0.5,0.0068 -0.5,0.0068"/>
<path d="M -0.2499,-0.1605 C -0.26,-0.1228 -0.2614,-0.082 -0.2537,-0.0432 -0.246,-0.0043 -0.2292,0.0325 -0.2052,0.0639 -0.1811,0.0952 -0.1497,0.1209 -0.1143,0.1384 -0.0789,0.1559 -0.0395,0.1651 0.0,0.1651 0.0395,0.1651 0.0789,0.1559 0.1143,0.1384 0.1497,0.1209 0.1811,0.0952 0.2052,0.0639 0.2292,0.0325 0.246,-0.0043 0.2537,-0.0432 0.2614,-0.082 0.26,-0.1228 0.2499,-0.1605"/>
<path d="M -0.0,-0.2207 C -0.0332,-0.2207 -0.0664,-0.207 -0.0899,-0.1835 -0.1134,-0.16 -0.1271,-0.1267 -0.1271,-0.0936 -0.1271,-0.0604 -0.1134,-0.0272 -0.0899,-0.0038 -0.0664,0.0197 -0.0332,0.0335 -0.0,0.0335 0.0332,0.0335 0.0664,0.0197 0.0899,-0.0038 0.1134,-0.0272 0.1271,-0.0604 0.1271,-0.0936 0.1271,-0.1267 0.1134,-0.16 0.0899,-0.1835 0.0664,-0.207 0.0332,-0.2207 -0.0,-0.2207"/>
</g>
</svg>