<?xml version="1.0" encoding="utf-8"?>
<svg width="100%" height="100%" viewBox="0 0 64 64"
     xmlns="http://www.w3.org/2000/svg">
<style type="text/css">
<![CDATA[
* {fill: none; stroke: #aaa; stroke-width: 0.03; stroke-linejoin: round;}
]]>
</style>
<g transform="translate(32, 32) scale(48, 48)" class="curve">
<path d="M -0.4742,0.0129 C -0.4722,-0.0125 -0.4711,-0.0252 -0.4703,-0.0358 -0.4694,-0.0464 -0.4687,-0.0548 -0.4674,-0.0632 -0.466,-0.0715 -0.464,-0.0797 -0.462,-0.088 -0.46,-0.0962 -0.458,-0.1045 -0.4559,-0.1127 -0.4539,-0.121 -0.4519,-0.1292 -0.4493,-0.1373 -0.4467,-0.1453 -0.4434,-0.1532 -0.4402,-0.161 -0.4369,-0.1689 -0.4337,-0.1767 -0.4304,-0.1845 -0.4272,-0.1924 -0.4239,-0.2002 -0.4201,-0.2077 -0.4163,-0.2153 -0.4119,-0.2225 -0.4075,-0.2298 -0.403,-0.2371 -0.3986,-0.2443 -0.3942,-0.2516 -0.3898,-0.2588 -0.3854,-0.2661 -0.3805,-0.273 -0.3755,-0.2798 -0.37,-0.2863 -0.3645,-0.2927 -0.359,-0.2992 -0.3535,-0.3057 -0.3481,-0.3122 -0.3426,-0.3186 -0.3371,-0.3251 -0.3311,-0.3311 -0.3251,-0.3371 -0.3186,-0.3426 -0.3122,-0.3481 -0.3057,-0.3535 -0.2992,-0.359 -0.2927,-0.3645 -0.2863,-0.37 -0.2798,-0.3755 -0.273,-0.3805 -0.2661,-0.3854 -0.2588,-0.3898 -0.2516,-0.3942 -0.2443,-0.3986 -0.2371,-0.403 -0.2298,-0.4075 -0.2225,-0.4119 -0.2153,-0.4163 -0.2077,-0.4201 -0.2002,-0.4239 -0.1924,-0.4272 -0.1845,-0.4304 -0.1767,-0.4337 -0.1689,-0.4369 -0.161,-0.4402 -0.1532,-0.4434 -0.1453,-0.4467 -0.1373,-0.4493 -0.1292,-0.4519 -0.121,-0.4539 -0.1127,-0.4559 -0.1045,-0.458 -0.0962,-0.46 -0.088,-0.462 -0.0797,-0.464 -0.0715,-0.466 -0.0632,-0.4674 -0.0548,-0.4687 -0.0464,-0.4694 -0.0379,-0.4701 -0.0294,-0.4708 -0.021,-0.4715 -0.0125,-0.4722 -0.004,-0.4729 0.0044,-0.4736 0.0072,-0.475 0.0101,-0.4764 0.0072,-0.4785 0.0044,-0.4806 0.0016,-0.4828 -0.0012,-0.4849 -0.004,-0.487 -0.0068,-0.4891 -0.0097,-0.4913 -0.0124,-0.4927 -0.0152,-0.4941 -0.018,-0.4948 -0.0207,-0.4956 -0.0235,-0.4963 -0.0262,-0.497 -0.0289,-0.4978 -0.0317,-0.4985 -0.0344,-0.4993 -0.0371,-0.4993 -0.0398,-0.4994 -0.0424,-0.4987 -0.045,-0.4981 -0.0476,-0.4974 -0.0503,-0.4968 -0.0529,-0.4962 -0.0555,-0.4955 -0.0581,-0.4949 -0.0606,-0.4936 -0.0631,-0.4923 -0.0655,-0.4903 -0.0679,-0.4883 -0.0704,-0.4863 -0.0728,-0.4843 -0.0752,-0.4823 -0.0776,-0.4803 -0.08,-0.4783 -0.0823,-0.4756 -0.0846,-0.473 -0.0867,-0.4696 -0.0889,-0.4663 -0.091,-0.463 -0.0932,-0.4596 -0.0954,-0.4563 -0.0975,-0.453 -0.0997,-0.4496 -0.1017,-0.4456 -0.1037,-0.4416 -0.1055,-0.437 -0.1073,-0.4324 -0.1091,-0.4277 -0.111,-0.4231 -0.1128,-0.4184 -0.1146,-0.4138 -0.1165,-0.4091 -0.1181,-0.4039 -0.1197,-0.3987 -0.1212,-0.3929 -0.1227,-0.3871 -0.1242,-0.3814 -0.1256,-0.3756 -0.1271,-0.3698 -0.1286,-0.364 -0.13,-0.3582 -0.1313,-0.3519 -0.1326,-0.3457 -0.1337,-0.3389 -0.1347,-0.3322 -0.1358,-0.3254 -0.1369,-0.3186 -0.138,-0.3119 -0.1391,-0.3051 -0.1402,-0.2984 -0.141,-0.2912 -0.1419,-0.284 -0.1426,-0.2764 -0.1432,-0.2689 -0.1439,-0.2613 -0.1446,-0.2537 -0.1453,-0.2461 -0.1459,-0.2385 -0.1466,-0.231 -0.147,-0.2231 -0.1475,-0.2152 -0.1477,-0.207 -0.148,-0.1987 -0.1482,-0.1905 -0.1484,-0.1823 -0.1486,-0.174 -0.1489,-0.1658 -0.1491,-0.1576 -0.1491,-0.1491 -0.1491,-0.1406 -0.1489,-0.132 -0.1486,-0.1233 -0.1484,-0.1146 -0.1482,-0.1059 -0.148,-0.0972 -0.1477,-0.0885 -0.1475,-0.0798 -0.147,-0.071 -0.1466,-0.0622 -0.1459,-0.0533 -0.1453,-0.0444 -0.1446,-0.0355 -0.1439,-0.0265 -0.1432,-0.0176 -0.1426,-0.0087 -0.1419,0.0002 -0.141,0.0091 -0.1402,0.0181 -0.1391,0.027 -0.138,0.0359 -0.1369,0.0448 -0.1358,0.0538 -0.1347,0.0627 -0.1337,0.0716 -0.1326,0.0805 -0.1313,0.0893 -0.13,0.0981 -0.1286,0.1069 -0.1271,0.1156 -0.1256,0.1243 -0.1242,0.133 -0.1227,0.1418 -0.1212,0.1505 -0.1197,0.1592 -0.1181,0.1677 -0.1165,0.1762 -0.1146,0.1845 -0.1128,0.1928 -0.111,0.2011 -0.1091,0.2094 -0.1073,0.2177 -0.1055,0.226 -0.1037,0.2343 -0.1017,0.2423 -0.0997,0.2503 -0.0975,0.2579 -0.0954,0.2656 -0.0932,0.2732 -0.091,0.2809 -0.0889,0.2885 -0.0867,0.2962 -0.0846,0.3038 -0.0823,0.311 -0.08,0.3183 -0.0776,0.3251 -0.0752,0.3319 -0.0728,0.3387 -0.0704,0.3456 -0.0679,0.3524 -0.0655,0.3592 -0.0631,0.3661 -0.0606,0.3724 -0.0581,0.3787 -0.0555,0.3846 -0.0529,0.3905 -0.0503,0.3963 -0.0476,0.4022 -0.045,0.408 -0.0424,0.4139 -0.0398,0.4198 -0.0371,0.4251 -0.0344,0.4304 -0.0317,0.4351 -0.0289,0.4399 -0.0262,0.4446 -0.0235,0.4494 -0.0207,0.4542 -0.018,0.4589 -0.0152,0.4637 -0.0124,0.4678 -0.0097,0.4719 -0.0068,0.4754 -0.004,0.479 -0.0012,0.4825 0.0016,0.486 0.0044,0.4895 0.0072,0.493 0.0101,0.4965 0.0072,0.4979 0.0044,0.4993 -0.004,0.4986 -0.0125,0.4979 -0.021,0.4972 -0.0294,0.4966 -0.0379,0.4959 -0.0464,0.4952 -0.0548,0.4945 -0.0632,0.4931 -0.0715,0.4918 -0.0797,0.4898 -0.088,0.4877 -0.0962,0.4857 -0.1045,0.4837 -0.1127,0.4817 -0.121,0.4797 -0.1292,0.4777 -0.1373,0.4751 -0.1453,0.4724 -0.1532,0.4692 -0.161,0.4659 -0.1689,0.4627 -0.1767,0.4594 -0.1845,0.4562 -0.1924,0.453 -0.2002,0.4497 -0.2077,0.4459 -0.2153,0.442 -0.2225,0.4376 -0.2298,0.4332 -0.2371,0.4288 -0.2443,0.4244 -0.2516,0.42 -0.2588,0.4156 -0.2661,0.4112 -0.273,0.4062 -0.2798,0.4013 -0.2863,0.3958 -0.2927,0.3903 -0.2992,0.3848 -0.3057,0.3793 -0.3122,0.3738 -0.3186,0.3683 -0.3251,0.3628 -0.3311,0.3569 -0.3371,0.3509 -0.3426,0.3444 -0.3481,0.3379 -0.3535,0.3314 -0.359,0.325 -0.3645,0.3185 -0.37,0.312 -0.3755,0.3056 -0.3805,0.2987 -0.3854,0.2919 -0.3898,0.2846 -0.3942,0.2773 -0.3986,0.2701 -0.403,0.2628 -0.4075,0.2556 -0.4119,0.2483 -0.4163,0.241 -0.4201,0.2335 -0.4239,0.226 -0.4272,0.2181 -0.4304,0.2103 -0.4337,0.2025 -0.4369,0.1946 -0.4402,0.1868 -0.4434,0.1789 -0.4467,0.1711 -0.4493,0.163 -0.4519,0.155 -0.4539,0.1467 -0.4559,0.1385 -0.458,0.1302 -0.46,0.122 -0.462,0.1137 -0.464,0.1055 -0.466,0.0973 -0.4674,0.0889 -0.4687,0.0806 -0.4694,0.0721 -0.4701,0.0637 -0.4708,0.0552 -0.4715,0.0467 -0.4722,0.0383 -0.4729,0.0298 -0.4736,0.0213 -0.475,0.0157 -0.4764,0.0101 -0.4785,0.0072 -0.4806,0.0044 -0.4828,0.0016 -0.4849,-0.0012 -0.487,-0.004 -0.4891,-0.0068 -0.4913,-0.0097 -0.4927,-0.0124 -0.4941,-0.0152 -0.4948,-0.018 -0.4956,-0.0207 -0.4963,-0.0235 -0.497,-0.0262 -0.4978,-0.0289 -0.4985,-0.0317 -0.4993,-0.0344 -0.4993,-0.0371 -0.4994,-0.0398 -0.4987,-0.0424 -0.4981,-0.045 -0.4974,-0.0476 -0.4968,-0.0503 -0.4962,-0.0529 -0.4955,-0.0555 -0.4949,-0.0581 -0.4936,-0.0606 -0.4923,-0.0631 -0.4903,-0.0655 -0.4883,-0.0679 -0.4863,-0.0704 -0.4843,-0.0728 -0.4823,-0.0752 -0.4803,-0.0776 -0.4783,-0.08 -0.4756,-0.0823 -0.473,-0.0846 -0.4696,-0.0867 -0.4663,-0.0889 -0.463,-0.091 -0.4596,-0.0932 -0.4563,-0.0954 -0.453,-0.0975 -0.4496,-0.0997 -0.4456,-0.1017 -0.4416,-0.1037 -0.437,-0.1055 -0.4324,-0.1073 -0.4277,-0.1091 -0.4231,-0.111 -0.4184,-0.1128 -0.4138,-0.1146 -0.4091,-0.1165 -0.4039,-0.1181 -0.3987,-0.1197 -0.3929,-0.1212 -0.3871,-0.1227 -0.3814,-0.1242 -0.3756,-0.1256 -0.3698,-0.1271 -0.364,-0.1286 -0.3582,-0.13 -0.3519,-0.1313 -0.3457,-0.1326 -0.3389,-0.1337 -0.3322,-0.1347 -0.3254,-0.1358 -0.3186,-0.1369 -0.3119,-0.138 -0.3051,-0.1391 -0.2984,-0.1402 -0.2912,-0.141 -0.284,-0.1419 -0.2764,-0.1426 -0.2689,-0.1432 -0.2613,-0.1439 -0.2537,-0.1446 -0.2461,-0.1453 -0.2385,-0.1459 -0.231,-0.1466 -0.2231,-0.147 -0.2152,-0.1475 -0.207,-0.1477 -0.1987,-0.148 -0.1905,-0.1482 -0.1823,-0.1484 -0.174,-0.1486 -0.1658,-0.1489 -0.1576,-0.1491 -0.1491,-0.1491 -0.1406,-0.1491 -0.132,-0.1489 -0.1233,-0.1486 -0.1146,-0.1484 -0.1059,-0.1482 -0.0972,-0.148 -0.0885,-0.1477 -0.0798,-0.1475 -0.071,-0.147 -0.0622,-0.1466 -0.0533,-0.1459 -0.0444,-0.1453 -0.0355,-0.1446 -0.0265,-0.1439 -0.0176,-0.1432 -0.0087,-0.1426 0.0002,-0.1419 0.0091,-0.141 0.0181,-0.1402 0.027,-0.1391 0.0359,-0.138 0.0448,-0.1369 0.0538,-0.1358 0.0627,-0.1347 0.0716,-0.1337 0.0805,-0.1326 0.0893,-0.1313 0.0981,-0.13 0.1069,-0.1286 0.1156,-0.1271 0.1243,-0.1256 0.133,-0.1242 0.1418,-0.1227 0.1505,-0.1212 0.1592,-0.1197 0.1677,-0.1181 0.1762,-0.1165 0.1845,-0.1146 0.1928,-0.1128 0.2011,-0.111 0.2094,-0.1091 0.2177,-0.1073 0.226,-0.1055 0.2343,-0.1037 0.2423,-0.1017 0.2503,-0.0997 0.2579,-0.0975 0.2656,-0.0954 0.2732,-0.0932 0.2809,-0.091 0.2885,-0.0889 0.2962,-0.0867 0.3038,-0.0846 0.311,-0.0823 0.3183,-0.08 0.3251,-0.0776 0.3319,-0.0752 0.3387,-0.0728 0.3456,-0.0704 0.3524,-0.0679 0.3592,-0.0655 0.3661,-0.0631 0.3724,-0.0606 0.3787,-0.0581 0.3846,-0.0555 0.3905,-0.0529 0.3963,-0.0503 0.4022,-0.0476 0.408,-0.045 0.4139,-0.0424 0.4198,-0.0398 0.4251,-0.0371 0.4304,-0.0344 0.4351,-0.0317 0.4399,-0.0289 0.4446,-0.0262 0.4494,-0.0235 0.4542,-0.0207 0.4589,-0.018 0.4637,-0.0152 0.4678,-0.0124 0.4719,-0.0097 0.4754,-0.0068 0.479,-0.004 0.4825,-0.0012 0.486,0.0016 0.4895,0.0044 0.493,0.0072 0.4965,0.0101 0.4979,0.0157 0.4993,0.0213 0.4986,0.0298 0.4979,0.0383 0.4972,0.0467 0.4966,0.0552 0.4959,0.0637 0.4952,0.0721 0.4945,0.0806 0.4931,0.0889 0.4918,0.0973 0.4898,0.1055 0.4877,0.1137 0.4857,0.122 0.4837,0.1302 0.4817,0.1385 0.4797,0.1467 0.4777,0.155 0.4751,0.163 0.4724,0.1711 0.4692,0.1789 0.4659,0.1868 0.4627,0.1946 0.4594,0.2025 0.4562,0.2103 0.453,0.2181 0.4497,0.226 0.4459,0.2335 0.442,0.241 0.4376,0.2483 0.4332,0.2556 0.4288,0.2628 0.4244,0.2701 0.42,0.2773 0.4156,0.2846 0.4112,0.2919 0.4062,0.2987 0.4013,0.3056 0.3958,0.312 0.3903,0.3185 0.3848,0.325 0.3793,0.3314 0.3738,0.3379 0.3683,0.3444 0.3628,0.3509 0.3569,0.3569 0.3509,0.3628 0.3444,0.3683 0.3379,0.3738 0.3314,0.3793 0.325,0.3848 0.3185,0.3903 0.312,0.3958 0.3056,0.4013 0.2987,0.4062 0.2919,0.4112 0.2846,0.4156 0.2773,0.42 0.2701,0.4244 0.2628,0.4288 0.2556,0.4332 0.2483,0.4376 0.241,0.442 0.2335,0.4459 0.226,0.4497 0.2181,0.453 0.2103,0.4562 0.2025,0.4594 0.1946,0.4627 0.1868,0.4659 0.1789,0.4692 0.1711,0.4724 0.163,0.4751 0.155,0.4777 0.1467,0.4797 0.1385,0.4817 0.1302,0.4837 0.122,0.4857 0.1137,0.4877 0.1055,0.4898 0.0973,0.4918 0.0889,0.4931 0.0806,0.4945 0.0721,0.4952 0.0637,0.4959 0.0552,0.4966 0.0467,0.4972 0.0383,0.4979 0.0298,0.4986 0.0213,0.4993 0.0213,0.4993 0.0213,0.4993 0.0298,0.4986 0.0383,0.4979 0.0467,0.4972 0.0552,0.4966 0.0637,0.4959 0.0721,0.4952 0.0806,0.4945 0.0889,0.4931 0.0973,0.4918 0.1055,0.4898 0.1137,0.4877 0.122,0.4857 0.1302,0.4837 0.1385,0.4817 0.1467,0.4797 0.155,0.4777 0.163,0.4751 0.1711,0.4724 0.1789,0.4692 0.1868,0.4659 0.1946,0.4627 0.2025,0.4594 0.2103,0.4562 0.2181,0.453 0.226,0.4497 0.2335,0.4459 0.241,0.442 0.2483,0.4376 0.2556,0.4332 0.2628,0.4288 0.2701,0.4244 0.2773,0.42 0.2846,0.4156 0.2919,0.4112 0.2987,0.4062 0.3056,0.4013 0.312,0.3958 0.3185,0.3903 0.325,0.3848 0.3314,0.3793 0.3379,0.3738 0.3444,0.3683 0.3509,0.3628 0.3569,0.3569 0.3628,0.3509 0.3683,0.3444 0.3738,0.3379 0.3793,0.3314 0.3848,0.325 0.3903,0.3185 0.3958,0.312 0.4013,0.3056 0.4062,0.2987 0.4112,0.2919 0.4156,0.2846 0.42,0.2773 0.4244,0.2701 0.4288,0.2628 0.4332,0.2556 0.4376,0.2483 0.442,0.241 0.4459,0.2335 0.4497,0.226 0.453,0.2181 0.4562,0.2103 0.4594,0.2025 0.4627,0.1946 0.4659,0.1868 0.4692,0.1789 0.4724,0.1711 0.4751,0.163 0.4777,0.155 0.4797,0.1467 0.4817,0.1385 0.4837,0.1302 0.4857,0.122 0.4877,0.1137 0.4898,0.1055 0.4918,0.0973 0.4931,0.0889 0.4945,0.0806 0.4952,0.0721 0.4959,0.0637 0.4966,0.0552 0.4972,0.0467 0.4979,0.0383 0.4986,0.0298 0.4993,0.0213 0.4993,0.0129 0.4993,0.0044 0.4986,-0.004 0.4979,-0.0125 0.4972,-0.021 0.4966,-0.0294 0.4959,-0.0379 0.4952,-0.0464 0.4945,-0.0548 0.4931,-0.0632 0.4918,-0.0715 0.4898,-0.0797 0.4877,-0.088 0.4857,-0.0962 0.4837,-0.1045 0.4817,-0.1127 0.4797,-0.121 0.4777,-0.1292 0.4751,-0.1373 0.4724,-0.1453 0.4692,-0.1532 0.4659,-0.161 0.4627,-0.1689 0.4594,-0.1767 0.4562,-0.1845 0.453,-0.1924 0.4497,-0.2002 0.4459,-0.2077 0.442,-0.2153 0.4376,-0.2225 0.4332,-0.2298 0.4288,-0.2371 0.4244,-0.2443 0.42,-0.2516 0.4156,-0.2588 0.4112,-0.2661 0.4062,-0.273 0.4013,-0.2798 0.3958,-0.2863 0.3903,-0.2927 0.3848,-0.2992 0.3793,-0.3057 0.3738,-0.3122 0.3683,-0.3186 0.3628,-0.3251 0.3569,-0.3311 0.3509,-0.3371 0.3444,-0.3426 0.3379,-0.3481 0.3314,-0.3535 0.325,-0.359 0.3185,-0.3645 0.312,-0.37 0.3056,-0.3755 0.2987,-0.3805 0.2919,-0.3854 0.2846,-0.3898 0.2773,-0.3942 0.2701,-0.3986 0.2628,-0.403 0.2556,-0.4075 0.2483,-0.4119 0.241,-0.4163 0.2335,-0.4201 0.226,-0.4239 0.2181,-0.4272 0.2103,-0.4304 0.2025,-0.4337 0.1946,-0.4369 0.1868,-0.4402 0.1789,-0.4434 0.1711,-0.4467 0.163,-0.4493 0.155,-0.4519 0.1467,-0.4539 0.1385,-0.4559 0.1302,-0.458 0.122,-0.46 0.1137,-0.462 0.1055,-0.464 0.0973,-0.466 0.0889,-0.4674 0.0806,-0.4687 0.0721,-0.4694 0.0615,-0.4703 0.051,-0.4711 0.0383,-0.4722 0.0129,-0.4742"/>
</g>
</svg>