<?xml version="1.0" encoding="utf-8"?>
<svg width="100%" height="100%" viewBox="0 0 64 64"
     xmlns="http://www.w3.org/2000/svg">
<style type="text/css">
<![CDATA[
* {fill: none; stroke: #aaa; stroke-width: 0.03; stroke-linejoin: round;}
]]>
</style>
<g transform="translate(32, 32) scale(48, 48)" class="curve">
<path d="M -0.105,0.0282 C -0.109,0.0091 -0.1111,-0.0004 -0.1128,-0.0083 -0.1145,-0.0163 -0.1158,-0.0227 -0.1181,-0.0321 -0.1203,-0.0416 -0.1235,-0.0542 -0.1267,-0.0668 -0.1299,-0.0794 -0.1331,-0.0921 -0.1362,-0.1047 -0.1394,-0.1173 -0.1426,-0.1299 -0.1462,-0.1429 -0.1498,-0.1558 -0.1539,-0.1692 -0.158,-0.1825 -0.1621,-0.1959 -0.1662,-0.2092 -0.1703,-0.2226 -0.1744,-0.2359 -0.1784,-0.2493 -0.181,-0.259 -0.1836,-0.2687 -0.1847,-0.2749 -0.1858,-0.281 -0.1869,-0.2871 -0.188,-0.2933 -0.1891,-0.2994 -0.1902,-0.3055 -0.1912,-0.3116 -0.1916,-0.3175 -0.192,-0.3234 -0.1918,-0.3289 -0.1915,-0.3345 -0.1912,-0.3401 -0.191,-0.3457 -0.1907,-0.3513 -0.1905,-0.3568 -0.1902,-0.3624 -0.1894,-0.3675 -0.1885,-0.3726 -0.1872,-0.3773 -0.1858,-0.3819 -0.1844,-0.3865 -0.1831,-0.3912 -0.1817,-0.3958 -0.1804,-0.4004 -0.179,-0.4051 -0.1769,-0.4091 -0.1748,-0.4131 -0.1719,-0.4165 -0.1691,-0.4199 -0.1662,-0.4233 -0.1633,-0.4267 -0.1605,-0.4301 -0.1576,-0.4336 -0.1548,-0.437 -0.1515,-0.4394 -0.1482,-0.4418 -0.1445,-0.4433 -0.1409,-0.4448 -0.1372,-0.4463 -0.1335,-0.4478 -0.1298,-0.4493 -0.1261,-0.4507 -0.1225,-0.4522 -0.1186,-0.4524 -0.1148,-0.4526 -0.1109,-0.4516 -0.107,-0.4505 -0.103,-0.4494 -0.099,-0.4483 -0.0951,-0.4473 -0.0911,-0.4462 -0.0872,-0.4451 -0.0838,-0.4435 -0.0804,-0.442 -0.0775,-0.4399 -0.0747,-0.4379 -0.0718,-0.4359 -0.0689,-0.4338 -0.0661,-0.4318 -0.0632,-0.4297 -0.0604,-0.4277 -0.0574,-0.4245 -0.0544,-0.4213 -0.0513,-0.4171 -0.0482,-0.4128 -0.0451,-0.4085 -0.042,-0.4042 -0.0389,-0.3999 -0.0358,-0.3957 -0.0327,-0.3914 -0.0302,-0.3861 -0.0277,-0.3809 -0.0258,-0.3747 -0.0238,-0.3686 -0.0219,-0.3624 -0.0199,-0.3562 -0.018,-0.35 -0.016,-0.3438 -0.014,-0.3377 -0.0128,-0.3313 -0.0115,-0.325 -0.0109,-0.3185 -0.0102,-0.312 -0.0096,-0.3054 -0.009,-0.2989 -0.0084,-0.2924 -0.0078,-0.2859 -0.0072,-0.2794 -0.0065,-0.2696 -0.0059,-0.2598 -0.0052,-0.2467 -0.0046,-0.2336 -0.0039,-0.2206 -0.0033,-0.2075 -0.0026,-0.1944 -0.002,-0.1813 -0.0013,-0.1682 -0.0007,-0.1586 -0.0001,-0.149 0.0004,-0.1429 0.001,-0.1367 0.0016,-0.1306 0.0021,-0.1244 0.0027,-0.1182 0.0033,-0.1121 0.0038,-0.1059 0.0046,-0.1013 0.0053,-0.0966 0.0062,-0.0935 0.0071,-0.0903 0.008,-0.0872 0.0088,-0.084 0.0097,-0.0809 0.0106,-0.0777 0.0115,-0.0745 0.013,-0.0717 0.0146,-0.0688 0.0168,-0.0662 0.0191,-0.0636 0.0213,-0.061 0.0235,-0.0584 0.0258,-0.0558 0.028,-0.0532 0.0302,-0.0506 0.0326,-0.0499 0.0349,-0.0491 0.0373,-0.0502 0.0397,-0.0513 0.0421,-0.0524 0.0445,-0.0535 0.0469,-0.0546 0.0493,-0.0557 0.0517,-0.0568 0.0538,-0.0587 0.0559,-0.0606 0.0578,-0.0633 0.0596,-0.066 0.0615,-0.0688 0.0634,-0.0715 0.0652,-0.0742 0.0671,-0.0769 0.0689,-0.0796 0.0702,-0.0842 0.0715,-0.0888 0.0721,-0.0953 0.0728,-0.1018 0.0734,-0.1083 0.0741,-0.1148 0.0747,-0.1213 0.0753,-0.1278 0.076,-0.1343 0.0761,-0.1441 0.0761,-0.1538 0.0757,-0.1668 0.0752,-0.1797 0.0748,-0.1927 0.0743,-0.2057 0.0738,-0.2186 0.0734,-0.2316 0.0729,-0.2446 0.0726,-0.2575 0.0722,-0.2705 0.0718,-0.2835 0.0715,-0.2965 0.0712,-0.3094 0.0709,-0.3224 0.0706,-0.3354 0.0703,-0.3484 0.0699,-0.3613 0.0706,-0.371 0.0712,-0.3806 0.0728,-0.3869 0.0743,-0.3932 0.0759,-0.3995 0.0775,-0.4058 0.0791,-0.4121 0.0806,-0.4184 0.0822,-0.4247 0.084,-0.4298 0.0858,-0.4348 0.0878,-0.4386 0.0898,-0.4423 0.0918,-0.4461 0.0938,-0.4498 0.0958,-0.4536 0.0978,-0.4573 0.0999,-0.4611 0.1027,-0.4644 0.1055,-0.4677 0.1092,-0.4706 0.1129,-0.4734 0.1165,-0.4763 0.1202,-0.4792 0.1239,-0.482 0.1276,-0.4849 0.1313,-0.4877 0.135,-0.4897 0.1388,-0.4916 0.1426,-0.4927 0.1464,-0.4937 0.1503,-0.4948 0.1541,-0.4958 0.1579,-0.4969 0.1617,-0.4979 0.1656,-0.499 0.1689,-0.499 0.1723,-0.499 0.1751,-0.4979 0.1779,-0.4969 0.1808,-0.4958 0.1836,-0.4948 0.1865,-0.4937 0.1893,-0.4927 0.1922,-0.4916 0.1949,-0.49 0.1976,-0.4883 0.2001,-0.4859 0.2027,-0.4836 0.2052,-0.4813 0.2078,-0.4789 0.2103,-0.4766 0.2129,-0.4742 0.2155,-0.4719 0.2175,-0.4694 0.2195,-0.4669 0.2211,-0.4642 0.2226,-0.4615 0.2241,-0.4588 0.2257,-0.4561 0.2272,-0.4534 0.2287,-0.4507 0.2302,-0.448 0.2315,-0.445 0.2328,-0.442 0.2338,-0.4388 0.2348,-0.4356 0.2359,-0.4324 0.2369,-0.4292 0.2379,-0.426 0.2389,-0.4228 0.2399,-0.4196 0.2406,-0.4148 0.2413,-0.4099 0.2417,-0.4035 0.242,-0.397 0.2424,-0.3905 0.2428,-0.384 0.2432,-0.3775 0.2436,-0.371 0.244,-0.3645 0.2429,-0.3549 0.2418,-0.3453 0.2393,-0.3325 0.2367,-0.3198 0.2341,-0.307 0.2316,-0.2943 0.229,-0.2815 0.2264,-0.2688 0.2239,-0.256 0.221,-0.2433 0.2181,-0.2306 0.2149,-0.2179 0.2116,-0.2053 0.2084,-0.1926 0.2052,-0.18 0.202,-0.1673 0.1988,-0.1546 0.1956,-0.1419 0.1933,-0.1325 0.1911,-0.1231 0.1898,-0.1169 0.1885,-0.1108 0.1872,-0.1046 0.1859,-0.0985 0.1846,-0.0923 0.1833,-0.0862 0.182,-0.08 0.1814,-0.0753 0.1809,-0.0706 0.1811,-0.0673 0.1813,-0.064 0.1816,-0.0608 0.1818,-0.0575 0.182,-0.0542 0.1823,-0.051 0.1825,-0.0477 0.1833,-0.0447 0.184,-0.0417 0.1852,-0.039 0.1864,-0.0363 0.1876,-0.0336 0.1888,-0.0309 0.1901,-0.0282 0.1913,-0.0255 0.1925,-0.0228 0.1945,-0.0219 0.1966,-0.021 0.1995,-0.0219 0.2023,-0.0229 0.2052,-0.0238 0.2081,-0.0247 0.2109,-0.0257 0.2138,-0.0266 0.2167,-0.0275 0.2193,-0.0292 0.2218,-0.0309 0.2241,-0.0333 0.2264,-0.0357 0.2287,-0.0382 0.231,-0.0406 0.2333,-0.043 0.2356,-0.0455 0.2378,-0.0479 0.2416,-0.055 0.2454,-0.0621 0.2507,-0.0738 0.256,-0.0855 0.2613,-0.0972 0.2666,-0.109 0.2719,-0.1207 0.2772,-0.1324 0.2824,-0.1442 0.2858,-0.1532 0.2892,-0.1622 0.2906,-0.1685 0.2921,-0.1748 0.2935,-0.1812 0.2949,-0.1875 0.2964,-0.1938 0.2978,-0.2001 0.2993,-0.2064 0.3013,-0.2125 0.3034,-0.2186 0.3061,-0.2245 0.3089,-0.2304 0.3116,-0.2362 0.3143,-0.2421 0.317,-0.248 0.3197,-0.2539 0.3224,-0.2598 0.325,-0.2644 0.3276,-0.269 0.33,-0.2724 0.3324,-0.2757 0.3349,-0.279 0.3373,-0.2824 0.3397,-0.2857 0.3422,-0.289 0.3446,-0.2924 0.3478,-0.2949 0.351,-0.2975 0.3549,-0.2992 0.3589,-0.301 0.3628,-0.3028 0.3668,-0.3046 0.3707,-0.3063 0.3747,-0.3081 0.3786,-0.3099 0.3828,-0.3107 0.3869,-0.3115 0.3913,-0.3112 0.3957,-0.311 0.4001,-0.3108 0.4045,-0.3106 0.4089,-0.3104 0.4133,-0.3102 0.4177,-0.31 0.4209,-0.3087 0.4241,-0.3074 0.4261,-0.3051 0.4281,-0.3027 0.4301,-0.3003 0.4321,-0.2979 0.4341,-0.2955 0.4361,-0.2931 0.4382,-0.2907 0.4397,-0.2879 0.4413,-0.2851 0.4423,-0.2818 0.4434,-0.2785 0.4444,-0.2753 0.4455,-0.272 0.4466,-0.2687 0.4476,-0.2655 0.4487,-0.2622 0.4489,-0.2574 0.4492,-0.2526 0.4486,-0.2463 0.4481,-0.24 0.4475,-0.2336 0.447,-0.2273 0.4464,-0.221 0.4459,-0.2146 0.4453,-0.2083 0.4437,-0.2022 0.4421,-0.196 0.4394,-0.1901 0.4367,-0.1841 0.434,-0.1781 0.4313,-0.1722 0.4286,-0.1662 0.4259,-0.1602 0.4232,-0.1543 0.4189,-0.1455 0.4146,-0.1367 0.4086,-0.1252 0.4027,-0.1137 0.3968,-0.1021 0.3908,-0.0906 0.3849,-0.079 0.379,-0.0675 0.373,-0.056 0.3685,-0.0439 0.3639,-0.0318 0.3608,-0.0193 0.3576,-0.0067 0.3545,0.0059 0.3513,0.0185 0.3481,0.0311 0.345,0.0437 0.3418,0.0563 0.339,0.0723 0.3361,0.0882 0.3337,0.1076 0.3312,0.1269 0.3287,0.1463 0.3262,0.1656 0.3237,0.185 0.3212,0.2043 0.3187,0.2236 0.3157,0.2395 0.3126,0.2555 0.3091,0.2679 0.3055,0.2804 0.302,0.2929 0.2984,0.3053 0.2949,0.3178 0.2913,0.3303 0.2878,0.3427 0.2843,0.3517 0.2807,0.3607 0.2773,0.3662 0.2738,0.3717 0.2704,0.3772 0.2669,0.3827 0.2634,0.3881 0.2599,0.3936 0.2565,0.3991 0.2524,0.4041 0.2483,0.409 0.2435,0.4135 0.2388,0.4179 0.2341,0.4224 0.2294,0.4268 0.2246,0.4313 0.2199,0.4357 0.2152,0.4402 0.21,0.4441 0.2049,0.448 0.1993,0.4513 0.1937,0.4546 0.1881,0.4578 0.1825,0.4612 0.1769,0.4645 0.1713,0.4678 0.1657,0.4711 0.1598,0.4738 0.154,0.4765 0.1478,0.4785 0.1417,0.4806 0.1355,0.4827 0.1294,0.4848 0.1232,0.4869 0.1171,0.489 0.1109,0.4911 0.1046,0.4925 0.0983,0.494 0.0919,0.4947 0.0854,0.4955 0.079,0.4962 0.0725,0.497 0.0661,0.4977 0.0596,0.4985 0.0532,0.4992 0.0468,0.4992 0.0403,0.4991 0.0339,0.4983 0.0275,0.4974 0.021,0.4965 0.0146,0.4956 0.0082,0.4948 0.0018,0.4939 -0.0047,0.493 -0.0109,0.4913 -0.0171,0.4896 -0.0231,0.4871 -0.029,0.4845 -0.035,0.482 -0.041,0.4795 -0.047,0.4769 -0.0529,0.4744 -0.0589,0.4719 -0.0645,0.4687 -0.0702,0.4656 -0.0754,0.4617 -0.0807,0.4579 -0.0859,0.454 -0.0911,0.4502 -0.0964,0.4464 -0.1016,0.4426 -0.1069,0.4387 -0.1137,0.4319 -0.1206,0.4251 -0.129,0.4152 -0.1375,0.4053 -0.1459,0.3955 -0.1543,0.3856 -0.1627,0.3758 -0.1712,0.3659 -0.1796,0.356 -0.1868,0.3453 -0.194,0.3346 -0.1999,0.3231 -0.2059,0.3116 -0.2118,0.3 -0.2178,0.2885 -0.2237,0.2769 -0.2296,0.2654 -0.2356,0.2538 -0.2397,0.245 -0.2437,0.2362 -0.2459,0.2301 -0.2481,0.224 -0.2503,0.2179 -0.2525,0.2118 -0.2547,0.2057 -0.2569,0.1996 -0.2591,0.1935 -0.2618,0.1876 -0.2646,0.1818 -0.2678,0.1762 -0.2711,0.1706 -0.2743,0.165 -0.2776,0.1594 -0.2809,0.1538 -0.2841,0.1482 -0.2874,0.1426 -0.2917,0.138 -0.2961,0.1334 -0.3014,0.1298 -0.3068,0.1262 -0.3122,0.1226 -0.3176,0.119 -0.323,0.1155 -0.3284,0.1119 -0.3337,0.1083 -0.3393,0.1049 -0.3448,0.1016 -0.3506,0.0985 -0.3563,0.0954 -0.362,0.0923 -0.3678,0.0892 -0.3735,0.0861 -0.3792,0.0831 -0.3849,0.08 -0.39,0.0761 -0.395,0.0722 -0.3994,0.0674 -0.4038,0.0627 -0.4082,0.058 -0.4125,0.0533 -0.4169,0.0485 -0.4213,0.0438 -0.4257,0.0391 -0.4287,0.035 -0.4317,0.0309 -0.4334,0.0275 -0.435,0.024 -0.4366,0.0206 -0.4383,0.0172 -0.4399,0.0137 -0.4416,0.0103 -0.4432,0.0068 -0.4443,0.0032 -0.4454,-0.0004 -0.446,-0.0042 -0.4465,-0.0081 -0.4471,-0.0119 -0.4476,-0.0157 -0.4481,-0.0195 -0.4487,-0.0233 -0.4492,-0.0271 -0.4491,-0.0305 -0.4489,-0.0339 -0.4481,-0.0369 -0.4473,-0.0399 -0.4465,-0.0429 -0.4457,-0.0459 -0.4449,-0.0489 -0.444,-0.0519 -0.4432,-0.0549 -0.4417,-0.0579 -0.4401,-0.0609 -0.4378,-0.0639 -0.4355,-0.0669 -0.4332,-0.0699 -0.4308,-0.0729 -0.4285,-0.0759 -0.4262,-0.0789 -0.4239,-0.0819 -0.4207,-0.084 -0.4175,-0.0861 -0.4134,-0.0873 -0.4093,-0.0885 -0.4052,-0.0898 -0.4011,-0.091 -0.397,-0.0922 -0.393,-0.0935 -0.3889,-0.0947 -0.3851,-0.0952 -0.3812,-0.0958 -0.3777,-0.0956 -0.3742,-0.0955 -0.3706,-0.0953 -0.3671,-0.0952 -0.3636,-0.0951 -0.36,-0.0949 -0.3565,-0.0948 -0.3529,-0.0943 -0.3493,-0.0938 -0.3458,-0.093 -0.3422,-0.0921 -0.3386,-0.0913 -0.335,-0.0905 -0.3315,-0.0896 -0.3279,-0.0888 -0.3243,-0.0879 -0.3198,-0.0858 -0.3153,-0.0836 -0.3099,-0.0801 -0.3045,-0.0765 -0.2991,-0.073 -0.2936,-0.0695 -0.2882,-0.066 -0.2828,-0.0625 -0.2774,-0.0589 -0.2724,-0.0548 -0.2674,-0.0507 -0.2628,-0.046 -0.2582,-0.0413 -0.2536,-0.0366 -0.2491,-0.0318 -0.2445,-0.0271 -0.2399,-0.0224 -0.2354,-0.0177 -0.2311,-0.0128 -0.2268,-0.008 -0.2229,-0.003 -0.2189,0.002 -0.215,0.007 -0.2111,0.012 -0.2071,0.017 -0.2032,0.0221 -0.1992,0.0271 -0.196,0.031 -0.1928,0.035 -0.1903,0.0379 -0.1878,0.0409 -0.1853,0.0438 -0.1828,0.0468 -0.1803,0.0497 -0.1778,0.0527 -0.1753,0.0556 -0.1727,0.0574 -0.1701,0.0592 -0.1674,0.0599 -0.1648,0.0606 -0.1622,0.0613 -0.1595,0.062 -0.1569,0.0627 -0.1542,0.0633 -0.1516,0.064 -0.1488,0.0636 -0.1459,0.0632 -0.1428,0.0617 -0.1397,0.0602 -0.1366,0.0587 -0.1336,0.0572 -0.1305,0.0557 -0.1274,0.0542 -0.1243,0.0527 -0.1219,0.0507 -0.1194,0.0487 -0.1176,0.0461 -0.1154,0.0429 -0.1131,0.0397 -0.1104,0.0359 -0.105,0.0282"/>
</g>
</svg>