<?xml version="1.0" encoding="utf-8"?>
<svg width="100%" height="100%" viewBox="0 0 64 64"
     xmlns="http://www.w3.org/2000/svg">
<style type="text/css">
<![CDATA[
* {fill: none; stroke: #aaa; stroke-width: 0.03; stroke-linejoin: round;}
]]>
</style>
<g transform="translate(32, 32) scale(48, 48)" class="curve">
<path d="M -0.5,-0.0272 C -0.5,-0.0082 -0.5,0.0012 -0.5,0.0091 -0.5,0.0169 -0.5,0.0232 -0.496,0.0264 -0.492,0.0296 -0.4839,0.0296 -0.4759,0.0296 -0.4679,0.0296 -0.4599,0.0296 -0.4519,0.0296 -0.4438,0.0296 -0.4358,0.0296 -0.4318,0.0347 -0.4278,0.0399 -0.4278,0.0502 -0.4278,0.0605 -0.4278,0.0708 -0.4278,0.0811 -0.4278,0.0915 -0.4278,0.1018 -0.4278,0.1121 -0.4228,0.1173 -0.4177,0.1224 -0.4077,0.1224 -0.3976,0.1224 -0.3876,0.1224 -0.3775,0.1224 -0.3675,0.1224 -0.3574,0.1224 -0.3474,0.1224 -0.3424,0.1173 -0.3373,0.1121 -0.3373,0.1018 -0.3373,0.0915 -0.3373,0.0811 -0.3373,0.0708 -0.3373,0.0605 -0.3373,0.0502 -0.3373,0.0399 -0.3369,0.0347 -0.3364,0.0296 -0.3355,0.0296 -0.3346,0.0296 -0.3337,0.0296 -0.3328,0.0296 -0.3319,0.0296 -0.331,0.0296 -0.3301,0.0296 -0.3296,0.0347 -0.3291,0.0399 -0.3291,0.0502 -0.3291,0.0605 -0.3291,0.0708 -0.3291,0.0811 -0.3291,0.0915 -0.3291,0.1018 -0.3291,0.1121 -0.3241,0.1173 -0.3191,0.1224 -0.309,0.1224 -0.299,0.1224 -0.2889,0.1224 -0.2789,0.1224 -0.2688,0.1224 -0.2588,0.1224 -0.2487,0.1224 -0.2437,0.1173 -0.2387,0.1121 -0.2387,0.1018 -0.2387,0.0915 -0.2387,0.0811 -0.2387,0.0708 -0.2387,0.0605 -0.2387,0.0502 -0.2387,0.0399 -0.2121,0.0347 -0.1856,0.0295 -0.1325,0.0295 -0.0794,0.0294 -0.0263,0.0294 0.0268,0.0293 0.0798,0.0293 0.1329,0.0292 0.186,0.0292 0.2129,0.0323 0.2398,0.0355 0.2405,0.0418 0.2411,0.0482 0.2418,0.0545 0.2424,0.0609 0.2431,0.0672 0.2438,0.0736 0.2444,0.0799 0.2455,0.0854 0.2466,0.0909 0.2481,0.0954 0.2496,0.1 0.2511,0.1046 0.2526,0.1091 0.254,0.1137 0.2555,0.1183 0.257,0.1229 0.2593,0.127 0.2616,0.1311 0.2646,0.1348 0.2677,0.1385 0.2708,0.1421 0.2738,0.1458 0.2769,0.1495 0.2799,0.1531 0.283,0.1568 0.2867,0.1596 0.2905,0.1624 0.2949,0.1643 0.2993,0.1662 0.3037,0.168 0.3081,0.1699 0.3125,0.1718 0.3169,0.1737 0.3213,0.1756 0.3259,0.1768 0.3305,0.178 0.3353,0.1785 0.3401,0.1789 0.3449,0.1794 0.3497,0.1799 0.3545,0.1804 0.3592,0.1809 0.364,0.1814 0.3688,0.1814 0.3736,0.1814 0.3784,0.1809 0.3832,0.1804 0.3879,0.1799 0.3927,0.1794 0.3975,0.1789 0.4023,0.1785 0.4071,0.178 0.4117,0.1768 0.4163,0.1756 0.4207,0.1737 0.4251,0.1718 0.4295,0.1699 0.4339,0.168 0.4383,0.1662 0.4427,0.1643 0.4471,0.1624 0.4509,0.1596 0.4546,0.1568 0.4577,0.1531 0.4607,0.1495 0.4638,0.1458 0.4669,0.1421 0.4699,0.1385 0.473,0.1348 0.476,0.1311 0.4783,0.127 0.4806,0.1229 0.4821,0.1183 0.4836,0.1137 0.4851,0.1091 0.4866,0.1046 0.4881,0.1 0.4896,0.0954 0.4911,0.0909 0.4921,0.0862 0.4932,0.0815 0.4939,0.0767 0.4945,0.072 0.4952,0.0672 0.4958,0.0624 0.4965,0.0577 0.4972,0.0529 0.4979,0.0481 0.4983,0.0433 0.4987,0.0385 0.4988,0.0337 0.499,0.0289 0.4992,0.0241 0.4993,0.0193 0.4995,0.0145 0.4997,0.0096 0.4998,0.0048 0.4971,0.0024 0.4944,0.0 0.4888,0.0 0.4832,0.0 0.4776,0.0 0.472,0.0 0.4663,0.0 0.4607,0.0 0.4551,0.0 0.4522,0.0017 0.4494,0.0034 0.4493,0.0068 0.4492,0.0103 0.4491,0.0137 0.449,0.0172 0.4489,0.0206 0.4488,0.024 0.4487,0.0274 0.4484,0.0309 0.4482,0.0343 0.4478,0.0377 0.4474,0.0411 0.447,0.0445 0.4466,0.0479 0.4461,0.0513 0.4457,0.0547 0.4453,0.058 0.4446,0.0614 0.444,0.0647 0.4431,0.068 0.4422,0.0712 0.4412,0.0745 0.4403,0.0777 0.4394,0.081 0.4385,0.0842 0.4376,0.0875 0.4362,0.0904 0.4348,0.0934 0.4329,0.096 0.431,0.0986 0.4291,0.1012 0.4272,0.1038 0.4254,0.1064 0.4235,0.109 0.4216,0.1117 0.4193,0.1136 0.417,0.1156 0.4143,0.117 0.4116,0.1183 0.4089,0.1197 0.4062,0.121 0.4034,0.1224 0.4007,0.1237 0.398,0.1251 0.3952,0.1259 0.3924,0.1268 0.3894,0.1271 0.3865,0.1274 0.3835,0.1278 0.3806,0.1281 0.3776,0.1285 0.3747,0.1288 0.3718,0.1292 0.3688,0.1292 0.3659,0.1292 0.3629,0.1288 0.36,0.1285 0.3571,0.1281 0.3541,0.1278 0.3512,0.1274 0.3482,0.1271 0.3453,0.1268 0.3425,0.1259 0.3396,0.1251 0.3369,0.1237 0.3342,0.1224 0.3315,0.121 0.3288,0.1197 0.3261,0.1183 0.3233,0.117 0.3206,0.1156 0.3183,0.1136 0.316,0.1117 0.3142,0.109 0.3123,0.1064 0.3104,0.1038 0.3085,0.1012 0.3066,0.0986 0.3047,0.096 0.3028,0.0934 0.3014,0.0904 0.3,0.0875 0.2991,0.0842 0.2982,0.081 0.2973,0.0777 0.2964,0.0745 0.2955,0.0712 0.2946,0.068 0.2937,0.0647 0.293,0.0614 0.2923,0.058 0.2919,0.0547 0.2915,0.0513 0.2911,0.0479 0.2907,0.0445 0.2903,0.0411 0.2899,0.0377 0.2895,0.0343 0.2892,0.0309 0.289,0.0274 0.2889,0.024 0.2888,0.0206 0.2887,0.0172 0.2886,0.0137 0.2885,0.0103 0.2883,0.0068 0.2882,0.0034 0.2882,-0.0 0.2882,-0.0034 0.2883,-0.0068 0.2885,-0.0103 0.2886,-0.0137 0.2887,-0.0172 0.2888,-0.0206 0.2889,-0.024 0.289,-0.0274 0.2892,-0.0309 0.2895,-0.0343 0.2899,-0.0377 0.2903,-0.0411 0.2907,-0.0445 0.2911,-0.0479 0.2915,-0.0513 0.2919,-0.0547 0.2923,-0.058 0.293,-0.0614 0.2937,-0.0647 0.2946,-0.068 0.2955,-0.0712 0.2964,-0.0745 0.2973,-0.0777 0.2982,-0.081 0.2991,-0.0842 0.3,-0.0875 0.3014,-0.0904 0.3028,-0.0934 0.3047,-0.096 0.3066,-0.0986 0.3085,-0.1012 0.3104,-0.1038 0.3123,-0.1064 0.3142,-0.109 0.316,-0.1117 0.3183,-0.1136 0.3206,-0.1156 0.3233,-0.117 0.3261,-0.1183 0.3288,-0.1197 0.3315,-0.121 0.3342,-0.1224 0.3369,-0.1237 0.3396,-0.1251 0.3425,-0.1259 0.3453,-0.1268 0.3482,-0.1271 0.3512,-0.1274 0.3541,-0.1278 0.3571,-0.1281 0.36,-0.1285 0.3629,-0.1288 0.3659,-0.1292 0.3688,-0.1292 0.3718,-0.1292 0.3747,-0.1288 0.3776,-0.1285 0.3806,-0.1281 0.3835,-0.1278 0.3865,-0.1274 0.3894,-0.1271 0.3924,-0.1268 0.3952,-0.1259 0.398,-0.1251 0.4007,-0.1237 0.4034,-0.1224 0.4062,-0.121 0.4089,-0.1197 0.4116,-0.1183 0.4143,-0.117 0.417,-0.1156 0.4193,-0.1136 0.4216,-0.1117 0.4235,-0.109 0.4254,-0.1064 0.4272,-0.1038 0.4291,-0.1012 0.431,-0.0986 0.4329,-0.096 0.4348,-0.0934 0.4362,-0.0904 0.4376,-0.0875 0.4385,-0.0842 0.4394,-0.081 0.4403,-0.0777 0.4412,-0.0745 0.4422,-0.0712 0.4431,-0.068 0.444,-0.0647 0.4446,-0.0614 0.4453,-0.058 0.4457,-0.0547 0.4461,-0.0513 0.4466,-0.0479 0.447,-0.0445 0.4474,-0.0411 0.4478,-0.0377 0.4482,-0.0343 0.4484,-0.0309 0.4487,-0.0274 0.4488,-0.024 0.4489,-0.0206 0.449,-0.0172 0.4491,-0.0137 0.4492,-0.0103 0.4493,-0.0068 0.4494,-0.0034 0.4522,-0.0017 0.4551,0.0 0.4607,0.0 0.4663,0.0 0.472,0.0 0.4776,0.0 0.4832,0.0 0.4888,0.0 0.4944,0.0 0.4971,-0.0024 0.4998,-0.0048 0.4997,-0.0096 0.4995,-0.0145 0.4993,-0.0193 0.4992,-0.0241 0.499,-0.0289 0.4988,-0.0337 0.4987,-0.0385 0.4983,-0.0433 0.4979,-0.0481 0.4972,-0.0529 0.4965,-0.0577 0.4958,-0.0624 0.4952,-0.0672 0.4945,-0.072 0.4939,-0.0767 0.4932,-0.0815 0.4921,-0.0862 0.4911,-0.0909 0.4896,-0.0954 0.4881,-0.1 0.4866,-0.1046 0.4851,-0.1091 0.4836,-0.1137 0.4821,-0.1183 0.4806,-0.1229 0.4783,-0.127 0.476,-0.1311 0.473,-0.1348 0.4699,-0.1385 0.4669,-0.1421 0.4638,-0.1458 0.4607,-0.1495 0.4577,-0.1531 0.4546,-0.1568 0.4509,-0.1596 0.4471,-0.1624 0.4427,-0.1643 0.4383,-0.1662 0.4339,-0.168 0.4295,-0.1699 0.4251,-0.1718 0.4207,-0.1737 0.4163,-0.1756 0.4117,-0.1768 0.4071,-0.178 0.4023,-0.1785 0.3975,-0.1789 0.3927,-0.1794 0.3879,-0.1799 0.3832,-0.1804 0.3784,-0.1809 0.3736,-0.1814 0.3688,-0.1814 0.364,-0.1814 0.3592,-0.1809 0.3545,-0.1804 0.3497,-0.1799 0.3449,-0.1794 0.3401,-0.1789 0.3353,-0.1785 0.3305,-0.178 0.3259,-0.1768 0.3213,-0.1756 0.3169,-0.1737 0.3125,-0.1718 0.3081,-0.1699 0.3037,-0.168 0.2993,-0.1662 0.2949,-0.1643 0.2905,-0.1624 0.2867,-0.1596 0.283,-0.1568 0.2799,-0.1531 0.2769,-0.1495 0.2738,-0.1458 0.2708,-0.1421 0.2677,-0.1385 0.2646,-0.1348 0.2616,-0.1311 0.2593,-0.127 0.257,-0.1229 0.2555,-0.1183 0.254,-0.1137 0.2526,-0.1091 0.2511,-0.1046 0.2496,-0.1 0.2481,-0.0954 0.2466,-0.0909 0.2455,-0.0853 0.2444,-0.0797 0.2438,-0.0731 0.2431,-0.0665 0.2424,-0.0599 0.2418,-0.0533 0.2411,-0.0468 0.2405,-0.0402 0.2398,-0.0336 0.1984,-0.0303 0.157,-0.027 0.0749,-0.0271 -0.0278,-0.0271 -0.1304,-0.0271 -0.2536,-0.0271 -0.5,-0.0272"/>
</g>
</svg>