<?xml version="1.0" encoding="utf-8"?>
<svg width="100%" height="100%" viewBox="0 0 64 64"
     xmlns="http://www.w3.org/2000/svg">
<style type="text/css">
<![CDATA[
* {fill: none; stroke: #aaa; stroke-width: 0.03; stroke-linejoin: round;}
]]>
</style>
<g transform="translate(32, 32) scale(48, 48)" class="curve">
<path d="M -0.5,-0.1555 C -0.5,-0.1555 -0.5,-0.1555 -0.4167,-0.1595 -0.3333,-0.1635 -0.1667,-0.1714 -0.0,-0.1714 0.1667,-0.1714 0.3333,-0.1635 0.4167,-0.1595 0.5,-0.1555 0.5,-0.1555 0.5,-0.1555 0.5,-0.1555 0.5,-0.1555 0.454,-0.0997 0.408,-0.0439 0.3159,0.0677 0.1953,0.1235 0.0746,0.1793 -0.0746,0.1793 -0.1953,0.1235 -0.3159,0.0677 -0.408,-0.0439 -0.454,-0.0997 -0.5,-0.1555 -0.5,-0.1555 -0.5,-0.1555"/>
<path d="M -0.3537,0.0133 C -0.3537,0.0133 -0.3537,0.0133 -0.3258,-0.0065 -0.2979,-0.0263 -0.2421,-0.066 -0.1832,-0.0727 -0.1243,-0.0793 -0.0621,-0.0531 -0.0311,-0.0399 -0.0,-0.0268 -0.0,-0.0268 -0.0,-0.0268 -0.0,-0.0268 -0.0,-0.0268 0.0311,-0.0399 0.0621,-0.0531 0.1243,-0.0793 0.1832,-0.0727 0.2421,-0.066 0.2979,-0.0263 0.3258,-0.0065 0.3537,0.0133 0.3537,0.0133 0.3537,0.0133"/>
</g>
</svg>