<?xml version="1.0" encoding="utf-8"?>
<svg width="100%" height="100%" viewBox="0 0 64 64"
     xmlns="http://www.w3.org/2000/svg">
<style type="text/css">
<![CDATA[
* {fill: none; stroke: #aaa; stroke-width: 0.03; stroke-linejoin: round;}
]]>
</style>
<g transform="translate(32, 32) scale(48, 48)" class="curve">
<path d="M 0.0766,0.0743 C 0.0472,0.0766 0.0326,0.0778 0.0204,0.0787 0.0082,0.0797 -0.0016,0.0805 -0.0111,0.0818 -0.0205,0.0832 -0.0296,0.0851 -0.0387,0.087 -0.0478,0.0889 -0.0569,0.0909 -0.0661,0.0928 -0.0752,0.0947 -0.0843,0.0966 -0.093,0.0989 -0.1016,0.1011 -0.1099,0.1037 -0.1182,0.1063 -0.1264,0.1089 -0.1347,0.1114 -0.1429,0.114 -0.1512,0.1166 -0.1595,0.1192 -0.1673,0.1219 -0.1751,0.1246 -0.1825,0.1275 -0.1899,0.1304 -0.1973,0.1333 -0.2048,0.1361 -0.2122,0.139 -0.2196,0.1418 -0.227,0.1447 -0.2339,0.1476 -0.2409,0.1505 -0.2475,0.1534 -0.254,0.1563 -0.2606,0.1592 -0.2671,0.1621 -0.2736,0.1651 -0.2802,0.168 -0.2867,0.1709 -0.2929,0.1737 -0.299,0.1765 -0.3047,0.1792 -0.3105,0.182 -0.3162,0.1847 -0.3219,0.1874 -0.3277,0.1902 -0.3334,0.1929 -0.3391,0.1956 -0.3445,0.1982 -0.3499,0.2008 -0.355,0.2032 -0.3601,0.2056 -0.3652,0.208 -0.3702,0.2104 -0.3753,0.2128 -0.3804,0.2152 -0.3855,0.2177 -0.3903,0.2198 -0.3951,0.222 -0.3996,0.2238 -0.4041,0.2257 -0.4086,0.2276 -0.4131,0.2294 -0.4176,0.2313 -0.4221,0.2332 -0.4266,0.2351 -0.4307,0.2365 -0.4349,0.2379 -0.4387,0.2388 -0.4426,0.2398 -0.4464,0.2408 -0.4503,0.2417 -0.4541,0.2427 -0.458,0.2437 -0.4618,0.2446 -0.4651,0.2447 -0.4684,0.2448 -0.4712,0.244 -0.474,0.2432 -0.4768,0.2425 -0.4796,0.2417 -0.4824,0.2409 -0.4851,0.2401 -0.4879,0.2393 -0.4898,0.2374 -0.4918,0.2355 -0.4928,0.2325 -0.4938,0.2295 -0.4948,0.2264 -0.4959,0.2234 -0.4969,0.2203 -0.4979,0.2173 -0.499,0.2142 -0.4992,0.2106 -0.4994,0.207 -0.4988,0.2028 -0.4982,0.1986 -0.4976,0.1944 -0.497,0.1902 -0.4964,0.186 -0.4958,0.1818 -0.4952,0.1776 -0.494,0.1732 -0.4928,0.1688 -0.4911,0.1642 -0.4893,0.1596 -0.4875,0.155 -0.4857,0.1504 -0.484,0.1458 -0.4822,0.1412 -0.4804,0.1366 -0.4781,0.132 -0.4758,0.1273 -0.473,0.1227 -0.4702,0.118 -0.4674,0.1133 -0.4646,0.1086 -0.4617,0.1039 -0.4589,0.0992 -0.4561,0.0946 -0.4528,0.0899 -0.4494,0.0853 -0.4456,0.0807 -0.4417,0.0761 -0.4378,0.0715 -0.434,0.0669 -0.4301,0.0623 -0.4262,0.0578 -0.4223,0.0532 -0.4178,0.0487 -0.4133,0.0443 -0.4081,0.04 -0.403,0.0357 -0.3978,0.0314 -0.3927,0.0271 -0.3875,0.0228 -0.3824,0.0185 -0.3772,0.0142 -0.3714,0.0101 -0.3656,0.0061 -0.3591,0.0023 -0.3527,-0.0015 -0.3462,-0.0053 -0.3397,-0.0091 -0.3333,-0.013 -0.3268,-0.0168 -0.3203,-0.0206 -0.3132,-0.024 -0.3061,-0.0275 -0.2984,-0.0306 -0.2907,-0.0337 -0.283,-0.0368 -0.2752,-0.0399 -0.2675,-0.043 -0.2598,-0.0461 -0.252,-0.0493 -0.2437,-0.0519 -0.2354,-0.0545 -0.2265,-0.0567 -0.2176,-0.0588 -0.2088,-0.061 -0.1999,-0.0631 -0.191,-0.0652 -0.1821,-0.0674 -0.1732,-0.0695 -0.1639,-0.071 -0.1545,-0.0724 -0.1448,-0.0732 -0.135,-0.074 -0.1253,-0.0749 -0.1156,-0.0757 -0.1058,-0.0765 -0.0961,-0.0773 -0.0863,-0.078 -0.0814,-0.081 -0.0764,-0.084 -0.0763,-0.0892 -0.0761,-0.0944 -0.076,-0.0996 -0.0758,-0.1047 -0.0757,-0.1099 -0.0755,-0.1151 -0.0754,-0.1203 -0.075,-0.1251 -0.0747,-0.13 -0.0741,-0.1345 -0.0736,-0.1391 -0.073,-0.1436 -0.0724,-0.1482 -0.0719,-0.1527 -0.0713,-0.1573 -0.0708,-0.1618 -0.0701,-0.166 -0.0693,-0.1701 -0.0684,-0.1738 -0.0676,-0.1776 -0.0667,-0.1813 -0.0658,-0.1851 -0.0649,-0.1889 -0.064,-0.1926 -0.0631,-0.1964 -0.0621,-0.1996 -0.061,-0.2029 -0.0598,-0.2057 -0.0586,-0.2085 -0.0574,-0.2113 -0.0562,-0.2141 -0.055,-0.2169 -0.0538,-0.2196 -0.0526,-0.2224 -0.0513,-0.2247 -0.05,-0.2269 -0.0486,-0.2286 -0.0471,-0.2304 -0.0457,-0.2321 -0.0442,-0.2338 -0.0428,-0.2355 -0.0413,-0.2372 -0.0399,-0.2389 -0.0384,-0.24 -0.0368,-0.2411 -0.0352,-0.2417 -0.0335,-0.2422 -0.0319,-0.2428 -0.0303,-0.2433 -0.0287,-0.2439 -0.027,-0.2445 -0.0254,-0.245 -0.0237,-0.245 -0.022,-0.2449 -0.0203,-0.2443 -0.0185,-0.2437 -0.0168,-0.243 -0.015,-0.2424 -0.0133,-0.2417 -0.0115,-0.2411 -0.0098,-0.2405 -0.008,-0.2393 -0.0063,-0.2381 -0.0045,-0.2363 -0.0027,-0.2345 -0.0009,-0.2327 0.0009,-0.2309 0.0027,-0.2291 0.0045,-0.2273 0.0063,-0.2255 0.008,-0.2232 0.0098,-0.2209 0.0115,-0.218 0.0133,-0.2152 0.015,-0.2123 0.0168,-0.2095 0.0185,-0.2066 0.0203,-0.2038 0.022,-0.2009 0.0237,-0.1976 0.0254,-0.1942 0.027,-0.1904 0.0287,-0.1866 0.0303,-0.1828 0.0319,-0.179 0.0335,-0.1751 0.0352,-0.1713 0.0368,-0.1675 0.0384,-0.1633 0.0399,-0.1591 0.0413,-0.1545 0.0428,-0.1499 0.0442,-0.1453 0.0457,-0.1407 0.0471,-0.1361 0.0486,-0.1315 0.05,-0.1269 0.0513,-0.122 0.0526,-0.1171 0.0538,-0.112 0.055,-0.1068 0.0562,-0.1016 0.0574,-0.0964 0.0586,-0.0913 0.0598,-0.0861 0.061,-0.0809 0.0621,-0.0755 0.0631,-0.0702 0.064,-0.0646 0.0649,-0.0591 0.0658,-0.0535 0.0667,-0.048 0.0676,-0.0425 0.0684,-0.0369 0.0693,-0.0314 0.0701,-0.0258 0.0708,-0.0202 0.0713,-0.0146 0.0719,-0.0089 0.0724,-0.0033 0.073,0.0024 0.0736,0.008 0.0741,0.0137 0.0747,0.0193 0.075,0.0249 0.0754,0.0305 0.0755,0.0359 0.0757,0.0414 0.0758,0.0469 0.076,0.0524 0.0761,0.0579 0.0763,0.0634 0.0764,0.0689 0.0814,0.072 0.0863,0.0751 0.0961,0.0759 0.1058,0.0766 0.1156,0.0774 0.1253,0.0782 0.135,0.0789 0.1448,0.0797 0.1545,0.0805 0.1639,0.0818 0.1732,0.0832 0.1821,0.0851 0.191,0.087 0.1999,0.0889 0.2088,0.0909 0.2176,0.0928 0.2265,0.0947 0.2354,0.0966 0.2437,0.0989 0.252,0.1011 0.2598,0.1037 0.2675,0.1063 0.2752,0.1089 0.283,0.1114 0.2907,0.114 0.2984,0.1166 0.3061,0.1192 0.3132,0.1219 0.3203,0.1246 0.3268,0.1275 0.3333,0.1304 0.3397,0.1333 0.3462,0.1361 0.3527,0.139 0.3591,0.1418 0.3656,0.1447 0.3714,0.1476 0.3772,0.1505 0.3824,0.1534 0.3875,0.1563 0.3927,0.1592 0.3978,0.1621 0.403,0.1651 0.4081,0.168 0.4133,0.1709 0.4178,0.1737 0.4223,0.1765 0.4262,0.1792 0.4301,0.182 0.434,0.1847 0.4378,0.1874 0.4417,0.1902 0.4456,0.1929 0.4494,0.1956 0.4528,0.1982 0.4561,0.2008 0.4589,0.2032 0.4617,0.2056 0.4646,0.208 0.4674,0.2104 0.4702,0.2128 0.473,0.2152 0.4758,0.2177 0.4781,0.2198 0.4804,0.222 0.4822,0.2238 0.484,0.2257 0.4857,0.2276 0.4875,0.2294 0.4893,0.2313 0.4911,0.2332 0.4928,0.2351 0.494,0.2365 0.4952,0.2379 0.4958,0.2388 0.4964,0.2398 0.497,0.2408 0.4976,0.2417 0.4982,0.2427 0.4988,0.2437 0.4994,0.2446 0.4992,0.2447 0.499,0.2448 0.4979,0.244 0.4969,0.2432 0.4959,0.2425 0.4948,0.2417 0.4938,0.2409 0.4928,0.2401 0.4918,0.2393 0.4898,0.2374 0.4879,0.2355 0.4851,0.2325 0.4824,0.2295 0.4796,0.2264 0.4768,0.2234 0.474,0.2203 0.4712,0.2173 0.4684,0.2142 0.4651,0.2106 0.4618,0.207 0.458,0.2028 0.4541,0.1986 0.4503,0.1944 0.4464,0.1902 0.4426,0.186 0.4387,0.1818 0.4349,0.1776 0.4307,0.1732 0.4266,0.1688 0.4221,0.1642 0.4176,0.1596 0.4131,0.155 0.4086,0.1504 0.4041,0.1458 0.3996,0.1412 0.3951,0.1366 0.3903,0.132 0.3855,0.1273 0.3804,0.1227 0.3753,0.118 0.3702,0.1133 0.3652,0.1086 0.3601,0.1039 0.355,0.0992 0.3499,0.0946 0.3445,0.0899 0.3391,0.0853 0.3334,0.0807 0.3277,0.0761 0.3219,0.0715 0.3162,0.0669 0.3105,0.0623 0.3047,0.0578 0.299,0.0532 0.2929,0.0487 0.2867,0.0443 0.2802,0.04 0.2736,0.0357 0.2671,0.0314 0.2606,0.0271 0.254,0.0228 0.2475,0.0185 0.2409,0.0142 0.2339,0.0101 0.227,0.0061 0.2196,0.0023 0.2122,-0.0015 0.2048,-0.0053 0.1973,-0.0091 0.1899,-0.013 0.1825,-0.0168 0.1751,-0.0206 0.1673,-0.024 0.1595,-0.0275 0.1512,-0.0306 0.1429,-0.0337 0.1347,-0.0368 0.1264,-0.0399 0.1182,-0.043 0.1099,-0.0461 0.1016,-0.0493 0.093,-0.0519 0.0843,-0.0545 0.0752,-0.0567 0.0661,-0.0588 0.0569,-0.061 0.0478,-0.0631 0.0387,-0.0652 0.0296,-0.0674 0.0205,-0.0695 0.0111,-0.071 0.0016,-0.0724 -0.0082,-0.0732 -0.0204,-0.0743 -0.0326,-0.0753 -0.0472,-0.0765 -0.0766,-0.0788"/>
</g>
</svg>