<?xml version="1.0" encoding="utf-8"?>
<svg width="100%" height="100%" viewBox="0 0 64 64"
     xmlns="http://www.w3.org/2000/svg">
<style type="text/css">
<![CDATA[
* {fill: none; stroke: #aaa; stroke-width: 0.03; stroke-linejoin: round;}
]]>
</style>
<g transform="translate(32, 32) scale(48, 48)" class="curve">
<path d="M -0.0108,-0.5 C -0.2805,-0.5 -0.3903,-0.5 -0.4451,-0.4634 -0.5,-0.4268 -0.5,-0.3537 -0.5,-0.2247 -0.5,-0.0958 -0.5,0.0889 -0.5,0.219 -0.5,0.3491 -0.5,0.4245 -0.4623,0.4623 -0.4245,0.5 -0.3491,0.5 -0.2189,0.5 -0.0888,0.5 0.096,0.5 0.225,0.5 0.3539,0.5 0.427,0.5 0.4635,0.4635 0.5,0.427 0.5,0.3539 0.5,0.2252 0.5,0.0965 0.5,-0.0879 0.5,-0.2181 0.5,-0.3482 0.5,-0.4241 0.4431,-0.4621 0.3862,-0.5 0.2724,-0.5 -0.0108,-0.5"/>
</g>
</svg>