<?xml version="1.0" encoding="utf-8"?>
<svg width="100%" height="100%" viewBox="0 0 64 64"
     xmlns="http://www.w3.org/2000/svg">
<style type="text/css">
<![CDATA[
* {fill: none; stroke: #aaa; stroke-width: 0.03; stroke-linejoin: round;}
]]>
</style>
<g transform="translate(32, 32) scale(48, 48)" class="curve">
<path d="M -0.0108,-0.2989 C -0.2805,-0.2989 -0.3903,-0.2989 -0.4451,-0.2623 -0.5,-0.2257 -0.5,-0.1526 -0.5,-0.0907 -0.5,-0.0288 -0.5,0.0218 -0.5,0.0848 -0.5,0.1479 -0.5,0.2234 -0.4623,0.2611 -0.4245,0.2989 -0.3491,0.2989 -0.2189,0.2989 -0.0888,0.2989 0.096,0.2989 0.225,0.2989 0.3539,0.2989 0.427,0.2989 0.4635,0.2624 0.5,0.2258 0.5,0.1527 0.5,0.091 0.5,0.0293 0.5,-0.021 0.5,-0.084 0.5,-0.1471 0.5,-0.223 0.4431,-0.261 0.3862,-0.2989 0.2724,-0.2989 -0.0108,-0.2989"/>
</g>
</svg>