<?xml version="1.0" encoding="utf-8"?>
<svg width="100%" height="100%" viewBox="0 0 64 64"
     xmlns="http://www.w3.org/2000/svg">
<style type="text/css">
<![CDATA[
* {fill: none; stroke: #aaa; stroke-width: 0.03; stroke-linejoin: round;}
]]>
</style>
<g transform="translate(32, 32) scale(48, 48)" class="curve">
<path d="M -0.085,0.0292 C -0.0846,0.0511 -0.0844,0.062 -0.0843,0.0711 -0.0841,0.0802 -0.084,0.0875 -0.0837,0.0948 -0.0835,0.1022 -0.0831,0.1096 -0.0827,0.1171 -0.0823,0.1246 -0.0819,0.132 -0.0815,0.1395 -0.0811,0.1469 -0.0807,0.1544 -0.0801,0.1619 -0.0795,0.1694 -0.0788,0.177 -0.0781,0.1845 -0.0773,0.192 -0.0766,0.1996 -0.0759,0.2071 -0.0751,0.2147 -0.0744,0.2222 -0.0735,0.2297 -0.0726,0.2372 -0.0714,0.2446 -0.0703,0.2521 -0.0692,0.2595 -0.0681,0.267 -0.0669,0.2744 -0.0658,0.2818 -0.0647,0.2893 -0.0634,0.2965 -0.062,0.3037 -0.0605,0.3107 -0.0589,0.3177 -0.0574,0.3247 -0.0558,0.3317 -0.0543,0.3387 -0.0528,0.3457 -0.0512,0.3527 -0.0495,0.3593 -0.0478,0.366 -0.0459,0.3723 -0.044,0.3786 -0.0422,0.3849 -0.0403,0.3912 -0.0384,0.3975 -0.0366,0.4038 -0.0347,0.4101 -0.0327,0.4159 -0.0307,0.4217 -0.0285,0.427 -0.0264,0.4323 -0.0243,0.4376 -0.0221,0.4429 -0.02,0.4482 -0.0178,0.4535 -0.0157,0.4588 -0.0135,0.4634 -0.0112,0.468 -0.0089,0.472 -0.0066,0.476 -0.0042,0.48 -0.0019,0.484 0.0005,0.488 0.0028,0.492 0.0051,0.496 0.0046,0.4978 0.004,0.4995 0.0006,0.499 -0.0029,0.4985 -0.0064,0.498 -0.0098,0.4975 -0.0133,0.497 -0.0168,0.4965 -0.0202,0.496 -0.0237,0.4949 -0.0271,0.4937 -0.0305,0.492 -0.034,0.4902 -0.0374,0.4885 -0.0408,0.4867 -0.0443,0.4849 -0.0477,0.4832 -0.0511,0.4814 -0.0545,0.4793 -0.0578,0.4772 -0.0612,0.4747 -0.0645,0.4722 -0.0678,0.4696 -0.0711,0.4671 -0.0745,0.4646 -0.0778,0.4621 -0.0811,0.4596 -0.0844,0.4565 -0.0876,0.4535 -0.0908,0.4499 -0.094,0.4463 -0.0972,0.4427 -0.1004,0.4391 -0.1036,0.4355 -0.1067,0.4319 -0.1099,0.4283 -0.1131,0.4241 -0.1162,0.42 -0.1192,0.4154 -0.1222,0.4107 -0.1253,0.4061 -0.1283,0.4015 -0.1313,0.3968 -0.1344,0.3922 -0.1374,0.3876 -0.1402,0.3823 -0.143,0.3771 -0.1457,0.3712 -0.1483,0.3654 -0.1509,0.3595 -0.1535,0.3536 -0.1561,0.3478 -0.1587,0.3419 -0.1613,0.336 -0.1637,0.3294 -0.1661,0.3228 -0.1682,0.3154 -0.1703,0.308 -0.1724,0.3007 -0.1745,0.2933 -0.1766,0.2859 -0.1787,0.2785 -0.1809,0.2712 -0.1823,0.263 -0.1837,0.2549 -0.1844,0.246 -0.185,0.2371 -0.1857,0.2281 -0.1864,0.2192 -0.1871,0.2103 -0.1878,0.2014 -0.1885,0.1925 -0.1885,0.1846 -0.1886,0.1768 -0.188,0.1699 -0.1875,0.163 -0.1869,0.1562 -0.1864,0.1494 -0.1858,0.1425 -0.1853,0.1357 -0.1847,0.1288 -0.1834,0.1204 -0.1822,0.1119 -0.1803,0.1019 -0.1783,0.0918 -0.1764,0.0818 -0.1744,0.0717 -0.1725,0.0617 -0.1705,0.0517 -0.1686,0.0416 -0.1666,0.0328 -0.1647,0.024 -0.1627,0.0164 -0.1608,0.0088 -0.1588,0.0011 -0.1569,-0.0065 -0.1549,-0.0141 -0.153,-0.0217 -0.151,-0.0293 -0.1491,-0.0368 -0.1471,-0.0444 -0.1451,-0.052 -0.1432,-0.0595 -0.1412,-0.0671 -0.1393,-0.0746 -0.1373,-0.0822 -0.1354,-0.0897 -0.1334,-0.0972 -0.1318,-0.1052 -0.1301,-0.1132 -0.1287,-0.1216 -0.1274,-0.1301 -0.126,-0.1385 -0.1246,-0.147 -0.1233,-0.1554 -0.1219,-0.1638 -0.1206,-0.1723 -0.1199,-0.181 -0.1192,-0.1898 -0.1192,-0.1988 -0.1192,-0.2079 -0.1192,-0.217 -0.1192,-0.226 -0.1192,-0.2351 -0.1192,-0.2442 -0.1192,-0.2532 -0.1195,-0.2623 -0.1199,-0.2713 -0.1206,-0.2804 -0.1213,-0.2895 -0.122,-0.2985 -0.1226,-0.3076 -0.1233,-0.3167 -0.124,-0.3257 -0.1247,-0.3348 -0.1243,-0.3433 -0.1239,-0.3517 -0.1224,-0.3596 -0.1208,-0.3675 -0.1193,-0.3754 -0.1177,-0.3832 -0.1162,-0.3911 -0.1147,-0.399 -0.1131,-0.4069 -0.1108,-0.413 -0.1085,-0.4192 -0.1054,-0.4235 -0.1024,-0.4279 -0.0993,-0.4323 -0.0962,-0.4367 -0.0931,-0.441 -0.0901,-0.4454 -0.087,-0.4498 -0.0838,-0.4535 -0.0807,-0.4571 -0.0774,-0.46 -0.0741,-0.4629 -0.0708,-0.4658 -0.0676,-0.4687 -0.0643,-0.4717 -0.0611,-0.4746 -0.0578,-0.4775 -0.0545,-0.4797 -0.0511,-0.482 -0.0477,-0.4836 -0.0443,-0.4852 -0.0408,-0.4868 -0.0374,-0.4884 -0.034,-0.49 -0.0305,-0.4916 -0.0271,-0.4932 -0.0237,-0.4943 -0.0202,-0.4954 -0.0168,-0.496 -0.0133,-0.4965 -0.0098,-0.4971 -0.0064,-0.4977 -0.0029,-0.4983 0.0006,-0.4988 0.004,-0.4994 0.0075,-0.4994 0.0109,-0.4994 0.0144,-0.4988 0.0179,-0.4983 0.0213,-0.4977 0.0248,-0.4971 0.0282,-0.4965 0.0317,-0.496 0.0352,-0.4954 0.0386,-0.4943 0.0421,-0.4932 0.0455,-0.4916 0.0489,-0.49 0.0523,-0.4884 0.0558,-0.4868 0.0592,-0.4852 0.0626,-0.4836 0.0661,-0.482 0.0694,-0.4797 0.0728,-0.4775 0.076,-0.4746 0.0793,-0.4717 0.0825,-0.4687 0.0858,-0.4658 0.0891,-0.4629 0.0923,-0.46 0.0956,-0.4571 0.0988,-0.4535 0.102,-0.4498 0.105,-0.4454 0.1081,-0.441 0.1112,-0.4367 0.1142,-0.4323 0.1173,-0.4279 0.1204,-0.4235 0.1235,-0.4192 0.1258,-0.413 0.1281,-0.4069 0.1296,-0.399 0.1312,-0.3911 0.1327,-0.3832 0.1342,-0.3754 0.1358,-0.3675 0.1373,-0.3596 0.1388,-0.3517 0.1393,-0.3433 0.1397,-0.3348 0.139,-0.3257 0.1383,-0.3167 0.1376,-0.3076 0.1369,-0.2985 0.1362,-0.2895 0.1355,-0.2804 0.1348,-0.2713 0.1345,-0.2623 0.1341,-0.2532 0.1341,-0.2442 0.1341,-0.2351 0.1341,-0.226 0.1341,-0.217 0.1341,-0.2079 0.1341,-0.1988 0.1341,-0.1898 0.1348,-0.181 0.1355,-0.1723 0.1369,-0.1638 0.1382,-0.1554 0.1396,-0.147 0.141,-0.1385 0.1423,-0.1301 0.1437,-0.1216 0.1451,-0.1132 0.1467,-0.1052 0.1484,-0.0972 0.1503,-0.0897 0.1523,-0.0822 0.1542,-0.0746 0.1562,-0.0671 0.1581,-0.0595 0.1601,-0.052 0.1621,-0.0444 0.164,-0.0368 0.166,-0.0293 0.1679,-0.0217 0.1699,-0.0141 0.1718,-0.0065 0.1738,0.0011 0.1757,0.0088 0.1777,0.0164 0.1796,0.024 0.1816,0.0328 0.1835,0.0416 0.1855,0.0517 0.1874,0.0617 0.1894,0.0717 0.1913,0.0818 0.1933,0.0918 0.1952,0.1019 0.1971,0.1119 0.1964,0.1156 0.1956,0.1193 0.1922,0.1166 0.1888,0.1139 0.1853,0.1112 0.1818,0.1085 0.1784,0.1059 0.1749,0.1032 0.1715,0.1005 0.1674,0.0979 0.1634,0.0953 0.1588,0.0928 0.1542,0.0904 0.1496,0.0879 0.145,0.0854 0.1404,0.0829 0.1358,0.0804 0.1312,0.078 0.1262,0.0757 0.1211,0.0733 0.1156,0.0712 0.1102,0.0691 0.1047,0.0669 0.0992,0.0648 0.0937,0.0627 0.0882,0.0606 0.0827,0.0584 0.077,0.0565 0.0712,0.0547 0.0652,0.053 0.0591,0.0514 0.0531,0.0498 0.0471,0.0482 0.041,0.0465 0.035,0.0449 0.029,0.0433 0.0229,0.042 0.0168,0.0406 0.0106,0.0396 0.0045,0.0386 -0.0016,0.0376 -0.0078,0.0365 -0.0139,0.0355 -0.0201,0.0345 -0.0262,0.0335 -0.0322,0.0328 -0.0382,0.0321 -0.0441,0.0317 -0.0499,0.0314 -0.0558,0.031 -0.0616,0.0306 -0.0675,0.0303 -0.0733,0.0299 -0.0792,0.0296 -0.0847,0.0296 -0.0901,0.0296 -0.0953,0.0299 -0.1004,0.0303 -0.1055,0.0306 -0.1107,0.031 -0.1158,0.0314 -0.121,0.0317 -0.1261,0.0321 -0.1307,0.0328 -0.1353,0.0335 -0.1394,0.0345 -0.1435,0.0355 -0.1476,0.0365 -0.1517,0.0376 -0.1558,0.0386 -0.1598,0.0396 -0.1639,0.0406 -0.1674,0.042 -0.1708,0.0433 -0.1736,0.0449 -0.1764,0.0465 -0.1792,0.0482 -0.182,0.0498 -0.1847,0.0514 -0.1875,0.053 -0.1903,0.0547 -0.1923,0.0565 -0.1943,0.0584 -0.1956,0.0606 -0.1968,0.0627 -0.198,0.0648 -0.1992,0.0669 -0.2004,0.0691 -0.2016,0.0712 -0.2029,0.0733 -0.2033,0.0757 -0.2038,0.078 -0.2034,0.0804 -0.203,0.0829 -0.2027,0.0854 -0.2023,0.0879 -0.202,0.0904 -0.2016,0.0928 -0.2012,0.0953 -0.2001,0.0979 -0.199,0.1004 -0.1971,0.1031 -0.1951,0.1058 -0.1932,0.1084 -0.1913,0.1111 -0.1894,0.1137 -0.1875,0.1164 -0.1856,0.119 -0.1849,0.1238 -0.1843,0.1286 -0.1849,0.1355 -0.1855,0.1424 -0.1861,0.1492 -0.1867,0.1561 -0.1873,0.163 -0.1879,0.1699 -0.1885,0.1767 -0.1885,0.1846 -0.1885,0.1925 -0.1878,0.2014 -0.1871,0.2103 -0.1864,0.2192 -0.1857,0.2281 -0.185,0.2371 -0.1844,0.246 -0.1837,0.2549 -0.1823,0.263 -0.1809,0.2712 -0.1787,0.2785 -0.1766,0.2859 -0.1745,0.2933 -0.1724,0.3007 -0.1703,0.308 -0.1682,0.3154 -0.1661,0.3228 -0.1637,0.3294 -0.1613,0.336 -0.1587,0.3419 -0.1561,0.3478 -0.1535,0.3536 -0.1509,0.3595 -0.1483,0.3654 -0.1457,0.3712 -0.143,0.3771 -0.1402,0.3823 -0.1374,0.3876 -0.1344,0.3922 -0.1313,0.3968 -0.1283,0.4015 -0.1253,0.4061 -0.1222,0.4107 -0.1192,0.4154 -0.1162,0.42 -0.1131,0.4241 -0.1099,0.4283 -0.1067,0.4319 -0.1036,0.4355 -0.1004,0.4391 -0.0972,0.4427 -0.094,0.4463 -0.0908,0.4499 -0.0876,0.4535 -0.0844,0.4565 -0.0811,0.4596 -0.0778,0.4621 -0.0745,0.4646 -0.0711,0.4671 -0.0678,0.4696 -0.0645,0.4722 -0.0612,0.4747 -0.0578,0.4772 -0.0545,0.4793 -0.0511,0.4814 -0.0477,0.4832 -0.0443,0.4849 -0.0408,0.4867 -0.0374,0.4885 -0.034,0.4902 -0.0305,0.492 -0.0271,0.4937 -0.0237,0.4949 -0.0202,0.496 -0.0168,0.4965 -0.0133,0.497 -0.0098,0.4975 -0.0064,0.498 -0.0029,0.4985 0.0006,0.499 0.004,0.4995 0.0075,0.4995 0.0109,0.4995 0.0144,0.499 0.0179,0.4985 0.0213,0.498 0.0248,0.4975 0.0283,0.497 0.0318,0.4965 0.0352,0.496 0.0387,0.4949 0.0421,0.4937 0.0455,0.492 0.0489,0.4902 0.0523,0.4885 0.0558,0.4867 0.0592,0.4849 0.0626,0.4832 0.066,0.4814 0.0694,0.4793 0.0728,0.4772 0.0761,0.4747 0.0794,0.4722 0.0828,0.4696 0.0861,0.4671 0.0894,0.4646 0.0927,0.4621 0.0961,0.4596 0.0993,0.4565 0.1026,0.4535 0.1058,0.4499 0.109,0.4463 0.1122,0.4427 0.1153,0.4391 0.1185,0.4355 0.1217,0.4319 0.1249,0.4283 0.128,0.4241 0.1311,0.42 0.1341,0.4154 0.1372,0.4107 0.1402,0.4061 0.1433,0.4015 0.1463,0.3968 0.1493,0.3922 0.1524,0.3876 0.1552,0.3823 0.158,0.3771 0.1606,0.3712 0.1632,0.3654 0.1658,0.3595 0.1684,0.3536 0.1711,0.3478 0.1737,0.3419 0.1763,0.336 0.1787,0.3294 0.181,0.3228 0.1831,0.3154 0.1852,0.308 0.1873,0.3007 0.1895,0.2933 0.1916,0.2859 0.1937,0.2785 0.1958,0.2712 0.1972,0.263 0.1986,0.2549 0.1993,0.246 0.2,0.2371 0.2007,0.2281 0.2014,0.2192 0.202,0.2103 0.2027,0.2014 0.2034,0.1925 0.2035,0.1846 0.2036,0.1768 0.203,0.1699 0.2023,0.1613 0.2016,0.1528 0.2008,0.1425 0.1991,0.1219"/>
</g>
</svg>