<?xml version="1.0" encoding="utf-8"?>
<svg width="100%" height="100%" viewBox="0 0 64 64"
     xmlns="http://www.w3.org/2000/svg">
<style type="text/css">
<![CDATA[
* {fill: none; stroke: #aaa; stroke-width: 0.03; stroke-linejoin: round;}
]]>
</style>
<g transform="translate(32, 32) scale(48, 48)" class="curve">
<path d="M -0.1503,-0.1503 C -0.2682,-0.1503 -0.3699,-0.134 -0.4255,-0.1063 -0.4811,-0.0785 -0.4905,-0.0393 -0.4513,-0.0 -0.412,0.0393 -0.324,0.0785 -0.2129,0.1063 -0.1018,0.134 0.0323,0.1503 0.1503,0.1503 0.2682,0.1503 0.3699,0.134 0.4255,0.1063 0.4811,0.0785 0.4905,0.0393 0.4513,0.0 0.412,-0.0393 0.324,-0.0785 0.2129,-0.1063 0.1018,-0.134 -0.0323,-0.1503 -0.1503,-0.1503"/>
<path d="M -0.0,-0.4513 C 0.0393,-0.412 0.0785,-0.324 0.1063,-0.2129 0.134,-0.1018 0.1503,0.0323 0.1503,0.1503 0.1503,0.2682 0.134,0.3699 0.1063,0.4255 0.0785,0.4811 0.0393,0.4905 0.0,0.4513 -0.0393,0.412 -0.0785,0.324 -0.1063,0.2129 -0.134,0.1018 -0.1503,-0.0323 -0.1503,-0.1503 -0.1503,-0.2682 -0.134,-0.3699 -0.1063,-0.4255 -0.0785,-0.4811 -0.0393,-0.4905 -0.0,-0.4513"/>
<path d="M -0.0,-0.4513 C -0.1179,-0.4513 -0.2359,-0.4025 -0.3192,-0.3192 -0.4025,-0.2359 -0.4513,-0.1179 -0.4513,-0.0 -0.4513,0.1179 -0.4025,0.2359 -0.3192,0.3192 -0.2359,0.4025 -0.1179,0.4513 0.0,0.4513 0.1179,0.4513 0.2359,0.4025 0.3192,0.3192 0.4025,0.2359 0.4513,0.1179 0.4513,0.0 0.4513,-0.1179 0.4025,-0.2359 0.3192,-0.3192 0.2359,-0.4025 0.1179,-0.4513 -0.0,-0.4513"/>
</g>
</svg>