<?xml version="1.0" encoding="utf-8"?>
<svg width="100%" height="100%" viewBox="0 0 64 64"
     xmlns="http://www.w3.org/2000/svg">
<style type="text/css">
<![CDATA[
* {fill: none; stroke: #aaa; stroke-width: 0.03; stroke-linejoin: round;}
]]>
</style>
<g transform="translate(32, 32) scale(48, 48)" class="curve">
<path d="M 0.0833,0.0832 L -0.0833,-0.0832 0.0,0.0 0.0,0.25 -0.0,-0.25 0.0,0.0 -0.25,0.0 0.25,0.0"/>
<path d="M 0.5,0.0 L -0.5,0.0 0.0,0.0 -0.1665,-0.1665 0.1665,0.1665 0.0,0.0 0.0,0.5 -0.0,-0.5"/>
<path d="M -0.0833,-0.0832 C -0.1486,-0.0832 -0.2049,-0.0743 -0.2357,-0.0589 -0.2665,-0.0435 -0.2718,-0.0218 -0.25,-0.0 -0.2282,0.0218 -0.1795,0.0435 -0.1179,0.0589 -0.0564,0.0743 0.0179,0.0832 0.0833,0.0832 0.1486,0.0832 0.2049,0.0743 0.2357,0.0589 0.2665,0.0435 0.2718,0.0218 0.25,0.0 0.2282,-0.0218 0.1795,-0.0435 0.1179,-0.0589 0.0564,-0.0743 -0.0179,-0.0832 -0.0833,-0.0832"/>
<path d="M -0.0,-0.25 C 0.0218,-0.2282 0.0435,-0.1795 0.0589,-0.1179 0.0743,-0.0564 0.0833,0.0179 0.0833,0.0832 0.0833,0.1486 0.0743,0.2049 0.0589,0.2357 0.0435,0.2665 0.0218,0.2718 0.0,0.25 -0.0218,0.2282 -0.0435,0.1795 -0.0589,0.1179 -0.0743,0.0564 -0.0833,-0.0179 -0.0833,-0.0832 -0.0833,-0.1486 -0.0743,-0.2049 -0.0589,-0.2357 -0.0435,-0.2665 -0.0218,-0.2718 -0.0,-0.25"/>
<path d="M -0.0,-0.25 C -0.0653,-0.25 -0.1307,-0.223 -0.1768,-0.1768 -0.223,-0.1307 -0.25,-0.0653 -0.25,-0.0 -0.25,0.0653 -0.223,0.1307 -0.1768,0.1768 -0.1307,0.223 -0.0653,0.25 0.0,0.25 0.0653,0.25 0.1307,0.223 0.1768,0.1768 0.223,0.1307 0.25,0.0653 0.25,0.0 0.25,-0.0653 0.223,-0.1307 0.1768,-0.1768 0.1307,-0.223 0.0653,-0.25 -0.0,-0.25"/>
</g>
</svg>