<?xml version="1.0" encoding="utf-8"?>
<svg width="100%" height="100%" viewBox="0 0 64 64"
     xmlns="http://www.w3.org/2000/svg">
<style type="text/css">
<![CDATA[
* {fill: none; stroke: #aaa; stroke-width: 0.03; stroke-linejoin: round;}
]]>
</style>
<g transform="translate(32, 32) scale(48, 48)" class="curve">
<path d="M 0.0,0.5 L 0.0,0.0146"/>
<path d="M -0.0,-0.4741 C -0.0647,-0.4741 -0.1294,-0.4482 -0.1748,-0.4029 -0.2201,-0.3576 -0.246,-0.2929 -0.246,-0.2282 -0.246,-0.1634 -0.2201,-0.0987 -0.1748,-0.0534 -0.1294,-0.0081 -0.0647,0.0178 0.0,0.0178 0.0647,0.0178 0.1294,-0.0081 0.1748,-0.0534 0.2201,-0.0987 0.246,-0.1634 0.246,-0.2282 0.246,-0.2929 0.2201,-0.3576 0.1748,-0.4029 0.1294,-0.4482 0.0647,-0.4741 -0.0,-0.4741"/>
</g>
</svg>