<?xml version="1.0" encoding="utf-8"?>
<svg width="100%" height="100%" viewBox="0 0 64 64"
     xmlns="http://www.w3.org/2000/svg">
<style type="text/css">
<![CDATA[
* {fill: none; stroke: #aaa; stroke-width: 0.03; stroke-linejoin: round;}
]]>
</style>
<g transform="translate(32, 32) scale(48, 48)" class="curve">
<path d="M -0.0,0.2682 L -0.0,-0.2805 0.1097,-0.2805 -0.0,-0.5 -0.1097,-0.2805 -0.0,-0.2805"/>
<path d="M -0.0,0.2679 C -0.0287,0.2679 -0.0574,0.2799 -0.0777,0.3003 -0.098,0.3206 -0.11,0.3493 -0.11,0.378 -0.11,0.4066 -0.098,0.4353 -0.0777,0.4557 -0.0574,0.476 -0.0287,0.488 0.0,0.488 0.0287,0.488 0.0574,0.476 0.0777,0.4557 0.098,0.4353 0.11,0.4066 0.11,0.378 0.11,0.3493 0.098,0.3206 0.0777,0.3003 0.0574,0.2799 0.0287,0.2679 -0.0,0.2679"/>
</g>
</svg>