<?xml version="1.0" encoding="utf-8"?>
<svg width="100%" height="100%" viewBox="0 0 64 64"
     xmlns="http://www.w3.org/2000/svg">
<style type="text/css">
<![CDATA[
* {fill: none; stroke: #aaa; stroke-width: 0.03; stroke-linejoin: round;}
]]>
</style>
<g transform="translate(32, 32) scale(48, 48)" class="curve">
<path d="M -0.0,-0.4285 C -0.0202,-0.4285 -0.0405,-0.357 -0.0602,-0.318 -0.0799,-0.2791 -0.0991,-0.2726 -0.138,-0.2925 -0.1769,-0.3124 -0.2355,-0.3585 -0.2519,-0.3467 -0.2682,-0.3348 -0.2425,-0.2648 -0.2355,-0.2217 -0.2286,-0.1785 -0.2406,-0.1621 -0.2838,-0.1554 -0.3269,-0.1487 -0.4013,-0.1517 -0.4075,-0.1325 -0.4137,-0.1132 -0.3517,-0.0718 -0.3207,-0.041 -0.2897,-0.0101 -0.2897,0.0101 -0.3207,0.041 -0.3517,0.0718 -0.4137,0.1132 -0.4075,0.1325 -0.4013,0.1517 -0.3269,0.1487 -0.2838,0.1554 -0.2406,0.1621 -0.2286,0.1785 -0.2355,0.2217 -0.2425,0.2648 -0.2682,0.3348 -0.2519,0.3467 -0.2355,0.3585 -0.1769,0.3124 -0.138,0.2925 -0.0991,0.2726 -0.0799,0.2791 -0.0602,0.318 -0.0405,0.357 -0.0202,0.4285 0.0,0.4285 0.0202,0.4285 0.0405,0.357 0.0602,0.318 0.0799,0.2791 0.0991,0.2726 0.138,0.2925 0.1769,0.3124 0.2355,0.3585 0.2519,0.3467 0.2682,0.3348 0.2425,0.2648 0.2355,0.2217 0.2286,0.1785 0.2406,0.1621 0.2838,0.1554 0.3269,0.1487 0.4013,0.1517 0.4075,0.1325 0.4137,0.1132 0.3517,0.0718 0.3207,0.041 0.2897,0.0101 0.2897,-0.0101 0.3207,-0.041 0.3517,-0.0718 0.4137,-0.1132 0.4075,-0.1325 0.4013,-0.1517 0.3269,-0.1487 0.2838,-0.1554 0.2406,-0.1621 0.2286,-0.1785 0.2355,-0.2217 0.2425,-0.2648 0.2682,-0.3348 0.2519,-0.3467 0.2355,-0.3585 0.1769,-0.3124 0.138,-0.2925 0.0991,-0.2726 0.0799,-0.2791 0.0602,-0.318 0.0405,-0.357 0.0202,-0.4285 -0.0,-0.4285"/>
</g>
</svg>