<?xml version="1.0" encoding="UTF-8"?>
<!DOCTYPE svg PUBLIC "-//W3C//DTD SVG 1.1//EN" "http://www.w3.org/Graphics/SVG/1.1/DTD/svg11.dtd">
<svg
   version="1.1"
   width="256"
   height="256"
   xmlns="http://www.w3.org/2000/svg">
  <path
     d="m 125.24497,79.300377 c 12.70356,-2.692872 33.03243,-3.824042 46.14326,-2.573046 9.18577,0.876415 18.69388,3.081812 27.69249,5.642727 7.85654,2.235849 19.15784,6.923927 23.99124,9.217214 -0.36938,5.475614 0.0468,74.884068 1.14902,81.071708 -5.59438,1.90314 -17.24533,4.08778 -22.71283,4.66376 -3.71981,0.39191 -14.92774,1.39678 -22.13415,1.72309 -0.026,0.41444 -0.20647,3.70793 -0.33051,5.19115 -0.15226,1.82289 -0.18766,4.80617 -1.26734,5.99973 -0.9747,1.07769 -4.7824,2.75774 -9.30361,3.63762 -8.90874,1.73401 -24.99615,4.54721 -48.3338,4.52789 -20.697017,-0.0171 -34.500803,-1.16186 -48.640796,-4.29567 -8.636898,-1.91425 -12.763476,-3.65321 -13.441336,-5.26121 -0.402557,-0.95515 -0.276046,-3.1135 -0.215886,-3.89609 0.174788,-2.27942 0.562243,-5.17704 0.926178,-7.759 0.115865,-0.82442 2.785713,-19.20215 10.324369,-38.55929 5.556323,-14.26675 14.403412,-27.70165 16.66897,-30.76811 1.796156,-2.43119 6.535977,-8.402449 7.679031,-9.640819 -0.603835,-1.532736 -1.832302,-4.131034 -2.368797,-6.313159 -0.53699,-2.183363 -2.118746,-6.302515 0.186176,-11.867256 0.904887,-2.184601 2.545566,-3.575229 4.226599,-4.271409 2.291553,-0.949203 5.215662,-0.544418 7.552272,0.227768 1.68698,0.557539 4.68783,2.037047 7.09896,4.022597 1.04031,0.856857 2.33562,1.949405 3.24299,2.674057 0.40775,-0.125273 6.01433,-2.153407 11.8675,-3.394252 z"
     fill="#bc924f"
     id="path1"
     style="stroke-width:0.247575" />
  <path
     d="m 167.30473,46.885024 c 2.96867,2.854291 4.79156,9.571246 5.16491,16.168374 0.34982,6.181945 0.0168,9.04812 -0.36617,11.869731 -0.36913,2.71961 -1.51169,4.791317 -3.62573,6.548109 -3.11301,2.209853 -10.62641,4.938871 -17.01533,5.424118 -6.67685,0.507281 -14.66757,0.686525 -21.9901,-3.243231 -3.15732,-1.979114 -4.23402,-4.840584 -5.05993,-8.340056 -1.56715,-7.01652 -1.71966,-13.673314 -0.49515,-20.796291 0.73307,-4.264478 2.90851,-6.9982 5.72566,-8.455921 8.89686,-4.603408 31.58561,-5.017105 37.66184,0.825167 z"
     fill="#fe9b00"
     id="path2"
     style="stroke-width:0.247575" />
  <path
     d="m 222.69961,91.395154 c 5.20427,2.250456 10.00104,5.060926 13.72184,7.371047 6.30598,3.915149 8.71043,8.487609 9.86363,12.038329 0.81774,2.51759 1.82636,12.24134 -0.0151,27.58034 -1.61246,13.43119 -3.77403,21.21073 -10.29639,27.45927 -2.59286,2.48392 -8.40043,5.65037 -11.78853,6.88011 -1.43792,-3.31131 -2.71095,-6.78058 -4.10851,-12.20841 -1.90533,-7.39927 -3.58414,-19.32817 -3.39598,-37.26349 0.14904,-14.20857 2.15291,-24.259865 6.01904,-31.857196 z"
     fill="#886d43"
     id="path3"
     style="stroke-width:0.247575" />
  <path
     d="m 144.00807,104.40126 c 2.76293,-0.74545 5.91531,-1.59364 13.45446,-1.88083 7.81198,-0.29758 13.1081,0.14879 14.83469,0.5407 1.72658,0.39191 2.66539,0.90959 3.92901,2.42797 1.4701,1.76645 2.39083,5.19957 2.35345,7.35941 -0.0748,4.32365 -0.59443,6.24161 -2.9709,9.94484 -1.67831,2.61513 -8.71613,7.57232 -17.26959,7.37055 -8.55347,-0.20177 -12.71297,-2.69931 -15.15753,-4.79577 -2.44455,-2.09647 -4.52467,-5.26419 -5.21343,-9.21821 -0.68875,-3.95402 0.31195,-6.26018 1.1438,-8.0343 0.44266,-0.81526 2.27199,-3.0063 4.89604,-3.71436 z"
     fill="#503e31"
     id="path4"
     style="stroke-width:0.247575" />
  <path
     d="m 149.95914,52.550652 c 1.85136,-0.270599 3.94609,-0.558777 6.88555,-0.510747 -0.11116,2.062546 -0.26614,2.788189 -0.80908,5.237695 -0.40181,1.812248 -0.82021,3.144448 -1.19925,4.308793 2.42723,-0.04704 5.47834,0.151021 6.95983,0.356508 1.09874,-2.387612 1.40944,-3.533389 1.9806,-5.199073 1.10666,0.331255 2.04001,0.772929 3.03279,1.361662 0.38498,0.226036 1.53472,1.005402 2.02987,1.500552 -0.26293,1.346312 -0.75189,2.542594 -1.34904,3.822308 0.79075,0.24609 1.54982,0.50332 2.49011,0.850173 0.91305,0.336949 2.03383,0.826157 2.60226,1.179199 0.15052,3.869596 -0.0119,4.311269 -0.128,6.598614 -2.25763,-0.910581 -5.00819,-1.875875 -7.84144,-2.562648 -1.95832,4.484076 -5.21467,10.666022 -9.50068,16.878171 -2.33488,0.448853 -3.74606,0.535257 -5.62119,0.606311 2.00139,-3.297202 3.44302,-5.362225 5.53057,-9.435327 1.95684,-3.817853 2.4916,-5.393667 4.13178,-9.347933 -2.45792,-0.49713 -4.01368,-0.646913 -5.77518,-0.805361 -0.22975,0.566699 -1.34606,2.846616 -2.31111,4.61331 -1.34607,2.464361 -2.36508,4.107268 -4.4004,6.058406 -2.10958,2.022439 -4.27859,2.804281 -7.19031,2.764916 -1.55106,-0.148792 -2.73298,-0.748171 -3.78419,-1.893452 -1.15048,-1.507236 -1.27253,-3.010264 -1.12968,-4.858658 0.65038,-3.3638 2.41138,-5.629606 4.67793,-7.325246 3.32864,-2.490356 6.19283,-3.430645 8.84832,-4.213972 0.26268,-1.696631 0.54863,-3.091963 0.66895,-4.444713 -4.61331,0.901916 -10.12086,2.844141 -14.69035,5.585785 -1.0621,-0.735297 -2.12419,-1.470595 -3.21847,-2.228174 3.04888,-2.889694 7.83673,-5.526367 10.73583,-6.648624 2.72135,-1.053431 5.48626,-1.82636 8.37398,-2.248475 z"
     fill="#feba5b"
     id="path5"
     style="stroke-width:0.247575" />
  <path
     d="m 59.941395,206.77397 c 7.364611,1.43519 17.271073,3.63217 32.836355,4.49844 15.1803,0.84472 27.9673,0.56942 36.42619,0.37383 1.70257,-0.0394 3.57845,0.23322 3.88296,1.7407 0.27011,1.3374 -0.61225,2.62281 -4.4811,2.96521 -12.01035,1.06308 -20.03005,1.07076 -35.847361,0.68108 -16.612771,-0.40925 -30.443791,-3.2618 -36.650246,-5.16565 -2.013031,-0.61746 -4.031262,-1.84914 -3.686885,-3.75299 0.38894,-2.15069 5.653373,-1.70456 7.520087,-1.34062 z"
     fill="#83878d"
     id="path6"
     style="stroke-width:0.247575" />
  <path
     d="m 48.4356,172.53411 c 2.085571,0 4.180054,-0.16934 4.427629,1.16286 0.172807,0.9294 -0.798677,1.61964 -3.149648,2.20515 -1.330962,0.33151 -7.250973,1.33171 -12.804078,2.52873 -4.169409,0.8987 -7.724585,1.46639 -13.738922,3.72254 -3.419752,1.28293 -7.402737,3.75794 -7.685963,6.37084 -0.318381,2.93822 3.125138,5.94502 5.048052,7.28589 2.705499,1.88652 5.629111,3.12191 10.414486,4.78438 2.856272,0.99228 5.813306,1.71916 5.674665,3.17564 -0.136909,1.43693 -3.341271,1.98729 -6.357229,1.38023 -5.56177,-1.11928 -7.556233,-1.96178 -12.572348,-5.02032 -4.524927,-2.75922 -7.342082,-6.41689 -7.9070475,-10.28377 -0.1057145,-1.79491 0.3084785,-3.97803 1.4896585,-5.33895 1.630033,-1.87785 3.995363,-3.95055 8.112782,-5.6296 4.77671,-1.94792 9.024105,-3.25215 16.132723,-4.57816 5.026761,-0.93781 10.382796,-1.76546 12.91524,-1.76546 z"
     fill="#83878d"
     id="path7"
     style="stroke-width:0.247575" />
  <path
     d="m 209.68832,185.6666 c 4.47541,1.74541 4.68634,6.32777 3.93817,8.04718 -1.44955,3.33161 -6.37902,7.14798 -9.74257,8.85179 -6.17897,3.12984 -14.75645,6.21364 -19.56931,7.56614 -7.30742,2.05363 -15.02953,3.05829 -19.6567,3.66683 -3.66882,0.48252 -9.72326,0.87419 -12.52209,0.97545 -2.72927,0.0988 -6.13219,-0.10399 -6.31688,-2.29973 -0.15127,-1.79912 5.75884,-2.39405 6.02078,-2.42524 0.82244,-0.0976 7.88229,-0.70014 11.87097,-1.23738 3.96689,-0.53427 10.18696,-1.13513 19.37125,-3.44228 4.35236,-1.09329 13.0623,-4.3187 17.81796,-6.72488 2.97709,-1.50624 7.36214,-4.67025 8.21726,-6.82589 1.17326,-2.95753 -2.94168,-3.52546 -1.8479,-5.55855 0.52758,-0.98039 1.36909,-1.00292 2.41906,-0.59344 z"
     fill="#83878d"
     id="path8"
     style="stroke-width:0.247575" />
  <path
     d="m 126.94185,31.891021 c 2.87632,0.771691 5.62564,3.662376 6.26315,5.606086 0.72019,2.195495 1.08165,4.225856 0.46395,5.141884 -0.70261,1.042042 -3.10211,2.244018 -5.97918,3.071414 -3.77106,1.084378 -5.80315,1.301501 -7.93477,0.263915 -0.39266,-0.282483 -2.28462,-0.879139 -4.43877,-5.508789 -1.68252,-3.615832 -1.41712,-6.398821 -0.55927,-7.256668 2.04274,-2.042741 7.13362,-2.673314 12.18489,-1.317842 z"
     fill="#7da928"
     id="path9"
     style="stroke-width:0.247575" />
  <path
     d="m 161.30104,106.25881 c 2.98674,-0.32185 6.54737,-0.27332 8.40343,0.0978 2.71788,0.54343 3.86019,2.16405 4.45412,4.47195 0.84077,3.26675 0.42138,5.57637 -0.9893,8.56733 -1.56567,3.08156 -5.10574,4.98467 -7.89962,6.08093 -3.86613,1.54116 -8.04347,1.59463 -10.9698,1.11582 -2.42326,-0.39661 -4.77225,-1.27575 -5.41025,-1.46242 0,-0.0817 1.76372,0.16463 2.97015,-0.01 2.55225,-0.36889 5.3444,-1.20173 8.38338,-3.9612 2.91792,-3.17515 3.64034,-5.73482 3.6198,-8.53613 -0.20302,-3.03849 -1.5367,-4.4821 -2.56191,-6.36441 z"
     fill="#fdfdfd"
     id="path10"
     style="stroke-width:0.247575" />
  <path
     d="m 232.68766,110.49434 c 1.54512,1.14157 3.70471,4.28453 4.3645,5.93734 0.61374,1.5372 0.91677,4.03498 -0.69098,5.28177 -1.51566,1.17524 -3.35984,0.51792 -4.20358,-0.13666 -2.26234,-1.75531 -3.83221,-4.70046 -4.5066,-7.14799 -0.46668,-1.6939 -0.55853,-2.99194 0.74272,-4.20877 1.14776,-1.07348 2.81245,-0.82022 4.29394,0.27431 z"
     fill="#4f3d30"
     id="path11"
     style="stroke-width:0.247575" />
  <path
     d="m 101.66854,81.440833 c 1.66346,0.689001 3.19273,1.891968 3.83469,2.728028 0.51892,0.67588 1.71594,2.00709 0.58849,3.521753 -1.38543,1.861268 -3.77849,3.680944 -5.69423,4.456348 -1.406223,0.569175 -2.038776,-0.01783 -2.828788,-0.718215 -1.01778,-0.902163 -2.270509,-3.816119 -2.403952,-5.323603 -0.22257,-2.512637 0.825414,-3.571515 1.73748,-4.257793 1.096014,-0.824919 3.042201,-1.120771 4.76631,-0.406518 z"
     fill="#886d43"
     id="path12"
     style="stroke-width:0.247575" />
  <path
     d="m 140.99989,29.263014 c 1.04006,0.854629 0.84671,6.679818 -0.50307,9.022125 -1.55304,2.6951 -4.62767,3.686142 -5.43873,3.35662 -0.76723,-0.311697 -0.71648,-5.507056 0.35948,-7.977854 1.45797,-3.34845 4.88614,-4.973037 5.58232,-4.400891 z"
     fill="#7da928"
     id="path13"
     style="stroke-width:0.247575" />
  <path
     d="m 145.85929,107.25554 c 2.75972,-0.66845 4.63064,0.94846 4.91659,2.98402 0.49218,3.50195 -2.6129,4.78637 -4.24096,4.92229 -1.38097,0.11512 -4.23229,-0.5162 -4.17188,-3.94536 0.0257,-1.45871 0.88483,-3.32839 3.49625,-3.96095 z"
     fill="#faf9f9"
     id="path14"
     style="stroke-width:0.247575" />
  <path
     d="m 146.97239,67.613604 c -1.03189,3.222187 -2.22743,6.176746 -3.62623,7.365106 -0.88508,0.751885 -2.67826,1.653305 -4.06419,0.735297 -0.72688,-0.481533 -0.81724,-1.846414 -0.57561,-2.683959 0.36096,-1.251244 1.0512,-2.046455 2.25293,-2.950103 1.82661,-1.163107 3.9716,-1.941482 6.0131,-2.466341 z"
     fill="#ff9b02"
     id="path15"
     style="stroke-width:0.247575" />
</svg>
